<?xml version="1.0" encoding="utf-8"?>
<!-- Generator: Adobe Illustrator 21.0.0, SVG Export Plug-In . SVG Version: 6.00 Build 0)  -->
<svg version="1.0" id="Camada_1" xmlns="http://www.w3.org/2000/svg" xmlns:xlink="http://www.w3.org/1999/xlink" x="0px" y="0px"
	 viewBox="0 0 610.5 168.5" style="enable-background:new 0 0 610.5 168.5;" xml:space="preserve">
<style type="text/css">
	.st0{fill:none;stroke:#1486AB;stroke-width:2;stroke-linecap:round;stroke-linejoin:round;stroke-miterlimit:10;}
	.st1{fill:#FFFFFF;}
</style>
<path class="st0" d="M125.8,128.8c-7.1,0-10.9-7.4-12.9-15.6 M120.9,56.7c-4.3,0-7.4-3.2-7.4-7.6 M181.1,92.7
	c-0.4-0.5-0.8-1.1-1.2-1.8c-4.2-7.2-7-21.1-7-27.4 M142.8,99c-1.3-9.4-1.6-18.2-1.6-22.4 M158.8,130.5c-6.1,0-10.1-6.8-12.8-15.7
	 M193.1,99c-1.6,0-3.1-0.3-4.5-0.9 M186.8,61.6c0-1.8,0-7.9-2.2-9.5 M261.1,70.6c-4.7-3.4-6.9-9.2-7.1-13.5 M267,91.7
	c1.1-6.3,2.6-13.4,2.9-15s0.8-3.5-0.1-3.5h-0.9 M285.7,148.8c-7,1.4-16.8-3-19.6-20.1 M265.9,59.1c2.2-7.6,2.9-13.2-0.1-14.9
	 M239.9,67.1c0-2.8-1.8-4.6-4.2-5.5 M222.5,126.3c-13.9,0-21.7-13.1-23.7-25.6 M498.2,67.1c0-2.8-1.8-4.6-4.2-5.5 M457.5,102.7
	c-0.1-0.7-0.3-1.3-0.4-2 M480.8,126.3c-10.2,0-17.1-7.1-20.9-15.8 M53,159.5c-28.7,2.8-30.4-67.9-31.5-98.6 M13,42.2
	C3.7,42.2-4.5,37-2.7,26.5 M112.1,108.6c-7-0.4-12-3.9-15.3-7 M88.8,92.3C81.8,78.9,76,64.1,76.6,49 M98.9,62.1
	c0.7-5.2,1.1-10.2,1.1-14.7c0-6.5-2-12.9-8-14.4 M21,45.3c-0.3-7.9-0.7-15.2-1.8-21.4c-0.8-4.1-2.3-6.9-4-8.3 M194.7,158.5
	c-8.8,3.6-18.5,6.1-29.9,6.1c-28.9,0-37.2-14.1-39.3-22.2 M419.7,24.1c0-6.2-1.4-15.8-9.4-15.8 M427.1,103.2
	c1.2-10.9-0.8-21.5-9.2-27.7c-6.4-4.6-16.7-7.1-24.6-7.8 M359,145.2c-2,0.4-3.4,0.2-3.4,0.2c-8.4,0-9.5-9.2-9.5-15.5
	c0-5,0.4-10,1-15 M367.8,42.3c-2.5-15.2-7.1-23.3-11.4-26.1 M419.1,163.8c-13.7,9.8-27.2,11.4-33.5-1.3c-1-2-3.2-7.4-2.2-14.5
	 M421.2,121.4c-7,2.7-13.7,6.3-18.2,10.8 M370.1,65.1c-4.1,9.4-7,18.4-7,18.4 M574.2,144.5c-6.4-0.4-9.6-10.3-9.6-21.2
	c0-23.2,8.6-43.3,9.7-63.4 M503.6,102.7c-0.4-7.3,0.5-14.6,0.5-14.6 M509.6,117.2c-1.4-0.3-2.5-1.2-3.3-2.6 M540.3,111.3
	c-7.2-0.9-5.3-20.7-4-33.1"/>
<g>
	<path class="st1" d="M106.8,44.6c0-11.3-5-18.5-14.7-18.5c-10.1,0-12,13.2-12.5,19.9C79,60.1,84,74,90.4,86.7
		c0.2,0.4,1.9-3.1,2.2-4.9c-5-9.7-9.4-23.7-9.4-31.7c0-5.5,0.8-20.4,9-20.4S103.4,37,103,44.4c-1.3,21.3-4.6,42.6-32.5,91.7
		c-3.2,4.9-6.4,7.7-8.7,7.7c-11.3,0-14.1-51.7-16.9-89.2c-0.4-3.5-0.4-6.9-0.6-10.6C43.6,24.5,42.8,5.5,24.1,5.5
		C13,5.5,2.8,13.3,0.2,23.6c-1.8,10.5,6.4,15.7,15.7,15.7c2.3,0,2.1-2.6,0-2.7c-7.7-0.2-14-4.2-12.5-12c1.5-6.3,6.9-12.9,12-12.9
		c2.7,0,5.5,3.1,6.7,9.4c1.5,8.8,1.7,19.9,2.1,31.8c0,1.8,0.1,3.5,0.1,5.2c1.1,30.7,2.8,101.4,31.5,98.6c3.2-0.6,6.2-2.8,9.4-6.2
		c13.6-15.1,29.2-48.7,37.7-76.4C105.6,65.6,106.8,53,106.8,44.6L106.8,44.6z M99.9,93.3c-0.5,1.3-1.1,2.8-1.5,3.9
		c2.8,3,7.3,6.8,13.8,8.1c-0.2-1.1-0.4-2.3-0.6-3.6C107.1,100.2,103.1,97.2,99.9,93.3L99.9,93.3z M145.8,109.1c-0.4-1.3-0.8-3-1.1-5
		c-0.2,0.3-0.3,0.7-0.5,1c-2.7,5.5-5.7,10.1-8.1,10.1c-7.6,0-7.7-23.2-7.7-28.3c0-6,1.4-11.6,1.4-17.6c0-2.8-1-5.2-4.2-5.2
		c-13.3,0-11.9,17.5-11.9,27c0,2.7,0.2,6.7,0.7,11.1c0.1,1.1,0.3,2.2,0.5,3.4c1.7,9.9,5.5,20.2,13.9,20.2
		C135.3,125.8,141.2,118,145.8,109.1L145.8,109.1z M146.5,100.2c0.2,0.9,0.3,1.8,0.5,2.7v0.2c0.2,0.9,0.4,1.8,0.5,2.7
		c2.5,11.7,6.9,21.8,14.3,21.8c13.5,0,21.1-20.2,24.5-32c-1-0.4-2.4-2.1-2.9-2.8c-2.2,8.2-9.2,26.4-14.3,26.4
		c-6.9,0-8.3-33.5-8.3-38.6c0-7.8-3.4-12-11.3-12c-3.5,0-5.3,1.7-5.3,5.2C144.2,78.4,144.7,89.4,146.5,100.2L146.5,100.2z
		 M123.9,53.7c5.5,0,8-4.1,8-9.1c0-4.3-3.4-7.7-7.7-7.7c-5.5,0-7.7,4.3-7.7,9.2C116.5,50.5,119.6,53.7,123.9,53.7L123.9,53.7z
		 M199.4,95.5c-0.1-0.9-0.2-2-0.2-3c-0.9,0.3-1.9,0.5-2.8,0.5c-3.2,0-7.5-0.8-10.9-6.4c-3.4-5.7-6-18.6-6-26c0-4.6,1-11.8,7-11.8
		c3.4,0,3.4,7.8,3.4,9.9c0,7.5-1.1,16.7-3.3,24.4c0.2,0.9,1.5,3.6,2.4,4.1c2.3-8.1,4.3-20.9,4.3-28.5c0-4.3-0.3-13.3-6.6-13.3
		c-8.8,0-10.6,8-10.6,15.3c0,6.9,3.8,23.6,8.1,29.1C190.1,97.4,196.8,96.2,199.4,95.5L199.4,95.5z M607,88.2
		c-5.2,13.1-18.5,39.6-22.1,39.6c-0.7,0-1.3-0.4-1.3-4.8c0-22.7,9-44,9-65.9c0-9-1.8-15.5-7-16.1c-2.4-0.4-5.6,0.6-8.4,3.5
		C566,58.8,561,75.4,552.4,90.4c-0.7,1.5-0.3-4.6,0.4-11.6c0-9.8,5.9-26.7-6.2-28.3c-2.7,0.1-4.9,1.7-6.4,4.6l-17.3,37.8
		c1-5.5,1.5-13.2,1.5-19.5c0-6,0-9.4-4.9-9.4C508.4,64,507,86,507,86s-1.1,9.3-0.1,17c0.2,1.7,0.5,3.2,0.9,4.6
		c0.8,2.9,2.2,5,4.3,5.4c5.3,1.1,7-2.9,8.8-6.6c2.2-5.6,7.1-16.9,19-43c0.1,1,0.1,2,0.1,3.1c0,6.9-6.2,40.6,3.2,41.7
		c2.1,0.1,4.3-1.3,7-5.2c2.2-2.2,22.7-51.4,25.8-50.8c1,0.1,1.3,2,1.3,4.6c0,20.7-8.7,41.2-8.7,64.4c0,10.9,2.1,19.7,8.5,20.2
		c2.7,0.4,6.6-2.8,10.1-7.4c9.4-13.2,21.6-42.3,23.1-45.9C611.2,86.2,608.7,83.9,607,88.2L607,88.2z M264.3,69.9
		c-0.4,1.2-0.9,2.5-1.3,3.8c-5.7,16.4-19.4,43.6-31.1,43.6c-6.1,0-16.3-9.9-15.6-27.3c0.1-1.8,0.3-3.5,0.6-5.3
		c0.2-1.2,0.5-2.4,0.8-3.5c3.4-12.9,12.4-23.1,17.6-23.1c3.9,0,7.7,2,7.7,6c0,9.1-14.8,16.2-23.1,17c-0.2,0.9-0.4,2.1-0.6,3.3
		c10.8-1.8,26.8-8.4,26.8-20c0-8.1-8.7-11.6-15.7-11.6c-18.3,0-29,23-29,38.6v1.8c0,0.5,0.1,1,0.1,1.5c1.1,13.4,9.1,28.6,24.1,28.6
		c6.9,0,21.5,2.2,41.6-52.4C265.9,70.6,265,70.3,264.3,69.9L264.3,69.9z"/>
	<path class="st1" d="M265.9,120.7c-39,2-61.7,36.4-97,36.4c-22.4,0-35.9-7.3-36.9-22.4c-0.4-5.4-5.2-4.5-5.2-0.9
		c0,4.9,3.9,26.9,40,26.9c43.2,0,61.7-35.5,99.4-35.9C266,123.6,265.9,122.1,265.9,120.7z M286.3,122.8c0,1.4,0,3.1,0.3,4.6
		c2.1,1.2,3.9,3,5.6,5.7c3.6,5.7,0.9,8.4-1.6,7.1c-2.3-1.2-5.6-6.9-6.9-14c-0.3-1.4-0.5-2.9-0.6-4.5c0-0.7-0.1-1.4-0.1-2.1
		c0-10,1.7-19.9,1.7-19.9l2.8-16.4c0.6-2.8,0.8-4.8,0.8-5.7c0-3.5-2.4-7.3-5-9c-4.3-2.2-6.8-1.3-12.5-1.8c-0.7-0.1-1.4-0.2-2.1-0.4
		c-1-0.3-1.9-0.8-2.8-1.3c-3.1-2.2-5.3-6.2-5.8-11.4c-0.7-7.7,1.7-14,7.3-12.9c5.7,1.1,3.2,10.5-0.9,22.7c0.7,0.3,1.7,0.7,3,0.8
		l0.6-1.8c1.4-4.1,8.5-22.6-2-25.2c-2-0.5-12.1-0.8-11.2,17c0.2,4.5,2.6,10.7,7.9,14c0.8,0.5,1.8,1,2.8,1.3c1.5,0.5,3.2,0.8,5.1,0.8
		c1,0,0.5,1.9,0.1,3.5s-1.8,8.7-2.9,15c-0.9,5.8-2.4,17.7-1.4,31.8v0.7c0.1,1.2,0.2,2.4,0.4,3.5c2.6,17.9,12.6,22.4,19.7,21
		c8.6-1.7,9-7.3,6.3-13.5C292.7,127.5,290.1,124.5,286.3,122.8L286.3,122.8z M504.9,106c-4.4,6.2-9.7,11.3-14.8,11.3
		c-6.1,0-16.3-9.9-15.6-27.3c0.1-1.8,0.3-3.5,0.6-5.3c0.2-1.2,0.5-2.4,0.8-3.5c3.4-12.9,12.4-23.1,17.6-23.1c3.9,0,7.7,2,7.7,6
		c0,9.1-14.6,16.1-23,17c-0.3,1-0.5,2.2-0.6,3.3c10.8-1.8,26.7-8.4,26.7-20c0-8.1-8.7-11.6-15.7-11.6c-18.3,0-29,23-29,38.6
		c0,4.2,0.7,8.7,2.1,13c0.4,1.1,0.7,2.1,1.2,3.1c3.8,8.7,10.7,15.8,20.9,15.8c9,0,16.5-5.8,22.4-13.4
		C505.7,108.8,505.3,107.4,504.9,106L504.9,106z M382.7,30.4c-0.5-1.6-1.1-3.1-1.7-4.6c-4.1-9.8-10.2-16.4-18.9-17.7
		c-20.6-3.1-14.7,20.8-14,23.3c0.7,2.2,4,1.6,2.8-1.7s-3.1-13.8,2.5-17c5.3-3.1,14.6,4.8,17.9,31c0.2,1.2,0.3,2.5,0.4,3.8
		c0.1,1.2,0.2,2.5,0.3,3.8c1.9,30.5-5.8,88.1-15.1,86.9c-4.9-0.6-4.5-8.4-4.5-11.5c0-15.3,3.4-29.8,7.7-44.4c0,0,3.6-11.2,9.1-24.5
		c0.1-2.6,0.1-6.2-0.2-9.2c-8.1,18.1-12,32.7-12,32.7c-4.6,15.1-8,30.2-8,45.5c0,6.3,1.1,15.5,9.5,15.5c0,0,20.2,3.3,26.3-38.4
		C388.7,78.3,389,49.7,382.7,30.4L382.7,30.4z M451.7,105.7c-0.1,1.1-0.3,2.3-0.5,3.6c3.4-0.7,6.6-1.2,9.4-1.5
		c-0.4-1-0.9-2.1-1.3-3.1C456.8,104.9,454.3,105.3,451.7,105.7L451.7,105.7z"/>
	<path class="st1" d="M436.8,67.4c-7.1-5.7-17.4-8-29.5-6.2c15.7-7.1,30.8-21.8,30.8-40.2c0-10.8-7.1-21-18.8-21
		c-15.7,0-27,8.6-36.5,23c0.6,1.1,1.3,2.6,1.8,4.4c7.4-11.3,17.2-22.2,28.7-22.2c8,0,9.4,9.7,9.4,15.8c0,15.7-16.4,37.3-30.7,40.5
		c-1.7,0.4-1.9,2.9,0,2.9c8,0,21.1,2.5,28.8,8c11.5,8.4,11.1,25,6.9,39.3c0,0.1-0.1,0.2-0.1,0.4c-0.4,1.4-0.9,2.9-1.4,4.3
		c-6.4,18.2-18.5,35.3-25.1,39.3c-5.6,3.5-12,4.5-11.8-4.8c0.5-14.7,15.4-25.6,32.5-32.8c0.6-1.4,1.3-2.9,1.9-4.5
		c-14.7,6.2-25.1,14.1-30.3,19.9c-11.2,12.7-6.7,24.2-5.3,27.1c5.5,11,17.2,9.7,29.1,1.1c12.9-9.3,27-33.5,30.1-51.7
		c0.2-1,0.3-2,0.4-3c0-0.2,0-0.5,0.1-0.7C449.6,90.3,446.4,75,436.8,67.4L436.8,67.4z"/>
</g>
</svg>
