<svg xmlns="http://www.w3.org/2000/svg" viewBox="0 0 300 400">
  <style>
    .st1{fill:#cbf0f4}.st2{fill:#60c7e2}.st3{opacity:.5;fill:#cbf0f4}.st4{fill:#1486ab}
  </style>
  <ellipse cx="151.7" cy="318.6" rx="72.6" ry="8.4" opacity=".2" id="Camada_1"/>
  <path class="st1" d="M212.6 192c3 5.5 6.6 44.9 8 55.9.6 4.9-.8 18.5-2.3 24.8 3.3 5.9 2.1 12.9-.9 17.3-3 4.5-10 5.3-12.4 4.1-9.4-5 2.8-14.4 4.1-16 2-2.6-2.1.3-2.7-.5-3.5-4 7.2-6.4 7.6-7.4 7.1-20.4-5.1-53.7-7.9-75.5-.5-3.5 5.1-5.3 6.5-2.7z" id="Camada_2"/>
  <path class="st1" d="M134.7 239c5.3 19.9 8.9 46.3 1.6 64-6.3 15.4 21.6 14.7 22.3 10.8.7-3.9-9.3-10.5-17.3-4.8 8-13 3-49 .2-63.1" id="Camada_3"/>
  <path class="st1" d="M162.4 239c5.3 19.9 8.9 46.3 1.6 64-6.3 15.4 21.6 14.7 22.3 10.8.7-3.9-9.3-10.5-17.3-4.8 8-13 3-49 .2-63.1" id="Camada_4"/>
  <g id="Camada_5">
    <path class="st2" d="M241.7 189.5c-7.7 45.8-75.9 91.8-146.3 50.6-71.9-42-32-152.1 33.1-164.9 66.9-13.2 126.2 37.4 113.2 114.3z"/>
    <path class="st3" d="M72.6 157.8c-8.3 3.8-7.7 22.3-5.6 32.5 3.1 14.8 13.7 33.8 23.9 32.6 9.8-1.2 18.1-20.8 14.5-36.8-4-18.2-23.5-32.5-32.8-28.3zM74.9 134.1c-.7 2.5-2.4 8.4.6 12.1 4.7 5.8 19.4 4.7 24-3.4 4.9-8.7-3.3-22.6-11.1-23-6.3-.3-11.7 8.1-13.5 14.3zM197.6 94.5c3.6-.9 8 4.4 7 7.4-1 3.1-8 4.4-10.2 1.6-1.9-2.5 0-8.2 3.2-9zM210.7 107.3c5.6-3.2 18.4 18 23.8 43.8 6.4 30.7-11 66.9-14.9 65.4-3.9-1.5 15.4-27.7 8.8-60.9s-23.4-45-17.7-48.3z"/>
    <path class="st2" d="M199.2 86.5c-46-26.7-100-24.9-133.2-.4s-6 6.9 1 18.5c4.1 6.9-10.6 43.1-9.8 69.9 0 0 7.2-56.1 42.1-75.1 59-32.2 99.9-12.9 99.9-12.9z"/>
  </g>
  <g id="Camada_8">
    <path class="st4" d="M137 169.4c.1 4.9 1.4 10.5 6.6 10.5 5.2 0 6.3-6.2 6.1-11.3-.1-2.5-1-5-2.3-6.7-2.4.8-6.3 2.4-10.2 4.5-.1.8-.2 1.9-.2 3zM191.3 161.6c-1.3 1.8-2.3 4.3-2.4 6.9-.2 5.1.9 11.3 6.1 11.3 5.2 0 6.5-5.6 6.6-10.5 0-.7 0-1.4-.1-2.1-4.3-3.8-7.1-5-10.2-5.6z"/>
  </g>
  <path class="st1" d="M87.9 192c3 5.5 6.6 44.9 8 55.9.6 4.9-.8 18.5-2.3 24.8 3.3 5.9 2.1 12.9-.9 17.3-3 4.5-10 5.3-12.4 4.1-9.4-5 2.8-14.4 4.1-16 2-2.6-2.1.3-2.7-.5-3.5-4 7.2-6.4 7.6-7.4 7.1-20.4-5.1-53.7-7.9-75.5-.5-3.5 5.1-5.3 6.5-2.7z" id="Camada_6"/>
  <path class="st4" d="M137 198.4c2.1-4.1 32.2-8.8 42-2.3 5.4 3.6-.8 5.5-6 3.2-16.3-7.4-41.5 9.8-36-.9z" id="Camada_7"/>
</svg>
