<svg xmlns="http://www.w3.org/2000/svg" viewBox="0 0 600 1000">
  <style>
    .st0{fill:#cbf0f4}.st1{fill:#60c7e2}.st2{opacity:.5;fill:#cbf0f4}.st3{fill:#1486ab}.st4{fill:none;stroke:#60c7e2;stroke-width:8;stroke-linecap:round;stroke-linejoin:round;stroke-miterlimit:10}
  </style>
  <path class="st0" d="M352.2 536.7c23.2 35.1-.3 47.1-13.8 44.9 4.2 10.6 6.4 25.9-2.1 23.8-8.5-2.1-10.3-25.6-7.8-28.5 2.5-2.8 21 1.5 24.4-7.2 3.4-8.6-3.5-24.2-3.5-24.2l2.8-8.8z" id="Camada_10"/>
  <path class="st0" d="M307.5 547.6c16.2 27.7-1.3 64.2 1 69.7 2 4.8 8.2 24.3 14.1 18.5 5.9-5.9-6.3-20-6.3-20 5-18.4 8-48.8.1-65.8" id="Camada_9"/>
  <path class="st0" d="M390.6 464.6c9.1-.8 16.3-35.4 12.8-65.2-1.5-13.3-5-24.1-8-31.5 3.1-7.7 3.4-12-1.7-16.4-3.2-2.8-11 3.2-13.6 5.1-8.3 6 4.1 6.5 4.5 7.1 0 0-3.4-2.4-4.2-1.5-4.2 4.4 10.2 8.7 10.7 9.4 9.2 14.4 12.2 71.5-5 85.4-2.8 2.3.2 8 4.5 7.6z" id="Camada_8"/>
  <g id="Camada_7">
    <path class="st1" d="M407 456.6c8.5 45.7-39.7 112.3-120 97.8-81.9-14.7-82.3-131.8-25.6-166.2 58.2-35.4 131.4-8.3 145.6 68.4z"/>
    <path class="st2" d="M237.3 485c-6.5 6.4.5 23.6 6 32.4 7.9 12.8 24.5 27 33.7 22.4 8.8-4.5 9.8-25.7 1-39.5-10.2-15.7-33.5-22.4-40.7-15.3zM231.3 461.9c.2 2.6.6 8.7 4.7 11.2 6.4 3.8 19.8-2.2 21.3-11.5 1.6-9.8-10.9-20.1-18.3-17.8-5.9 1.9-8.1 11.7-7.7 18.1zM332.9 382.6c3.1-2 9 1.4 9.1 4.5.1 3.2-6 6.9-9.1 5-2.6-1.7-2.7-7.6 0-9.5zM349.6 390.2c4.2-5 23.4 10.5 37.4 33 16.6 26.6 12.6 66.6 8.5 66.5-4.1-.1 4.9-31.3-12.7-60.3-17.6-28.9-37.4-34.3-33.2-39.2z"/>
    <path class="st1" d="M331.7 374.5c-52.3-9.3-102.4 10.9-125.3 45.4s-3.2 8.5 7.3 17.1c6.3 5.1 4.8 44.1 14.8 69 0 0-12.5-55.1 13.7-85 44.5-50.6 89.5-46.5 89.5-46.5z"/>
  </g>
  <path class="st3" d="M295.5 487.4c10.8 22.8 46.6 19.9 58-10.6 1.4-3.8-18.1 16.6-54-7-3.6-2.4-6.5 10.8-4 17.6z" id="Camada_6"/>
  <path class="st0" d="M300.2 543.6c.2-.8-6-14.5.1-14.2 1.2.1 1.6 4.2 1.6 4.2.2-.8-7.5-10.4 2.4-8.1 3.1.7 12.7 2.7 12.8 6.9.1 6.8-3.4 9.4-11.3 12.1 0 0 0 21-31.4 10.4-28.4-9.6-37.8-52.2-31.3-58.6 3.1-3.1 8.3-.5 8.3 3.1 0 18.4-.3 25.7 10.5 39 11 13.6 35.5 19.7 38.3 5.2z" id="Camada_5"/>
  <path class="st3" d="M341.5 447.9c.5-8 10.8-10.1 15.2-9 4.4 1.2 6.6 4.3 4 5.6-1.1.6-5.1-1.5-8.3-1.4-2.8.1-7.8 3.7-8.7 6-1.4 3.2-2.4 1.2-2.2-1.2z" id="Camada_4"/>
  <path class="st3" d="M313.8 450.6c-3.5-6.8-13.8-5.1-18.1-2.4-3.6 2.2-4.3 6.2-1.4 6.4 1.2 0 3.7-2.9 6.6-3.8 2.6-.8 9.3.1 11.1 1.5 2.7 1.9 3.2.9 1.8-1.7z" id="Camada_3"/>
  <g id="Camada_2">
    <path class="st4" d="M330.9 340.5l3.9-14.2M347.3 347l7.7-11M312.5 340.2L308 329"/>
    <g id="Camada_1_1_">
      <ellipse cx="316.7" cy="669.4" rx="72.6" ry="8.4" opacity=".2"/>
    </g>
  </g>
</svg>
