<svg xmlns="http://www.w3.org/2000/svg" viewBox="0 0 300 400">
  <style>
    .st1{fill:#cbf0f4}.st2{fill:#60c7e2}.st3{opacity:.5;fill:#cbf0f4}.st4{fill:#1486ab}.st5{fill:none;stroke:#60c7e2;stroke-width:8;stroke-linecap:round;stroke-linejoin:round;stroke-miterlimit:10}
  </style>
  <ellipse cx="153.7" cy="344.4" rx="72.6" ry="8.4" opacity=".2" id="Camada_1"/>
  <path class="st1" d="M131.3 264.6c16.4 28-3.4 71.9 1.9 74.9 5.2 3 20.9 7.6 26.8 1.7 5.9-5.9-19.8-7.7-19.8-7.7 5.1-18.6 8.1-49.3.1-66.5" id="Camada_2"/>
  <path class="st1" d="M167.6 264.6c16.4 28-3.4 71.9 1.9 74.9 5.2 3 20.9 7.6 26.8 1.7 5.9-5.9-19.8-7.7-19.8-7.7 5.1-18.6 8.1-49.3.1-66.5" id="Camada_3"/>
  <path class="st1" d="M183.3 232.1c5.2 7.5 38.8-3.1 63.1-20.7 10.9-7.9 18.6-16.2 23.5-22.4 8.3-1 9 .6 10.3-4.7 1-4.1-.4-10.7-3.6-11.2s-6.2.3-8.3 2.4c0 0 3.1-7.2-1.9-7.9-6.1-.8-1.3 18.5-1.7 19.3-8 15.1-56.4 45.6-76.9 37.4-3.4-1.2-7 4.2-4.5 7.8z" id="Camada_4"/>
  <g id="Camada_5">
    <path class="st2" d="M243.7 178.1c8.5 45.7-39.7 112.3-120 97.8C41.7 261.2 41.4 144 98 109.6c58.3-35.3 131.5-8.2 145.7 68.5z"/>
    <path class="st3" d="M74 206.4c-6.5 6.4.5 23.6 6 32.4 7.9 12.8 24.5 27 33.7 22.4 8.8-4.5 9.8-25.7 1-39.5-10.2-15.7-33.5-22.4-40.7-15.3zM68 183.4c.2 2.6.6 8.7 4.7 11.2 6.4 3.8 19.8-2.2 21.3-11.5 1.6-9.8-10.9-20.1-18.3-17.8-5.9 1.9-8.1 11.6-7.7 18.1zM169.6 104.1c3.1-2 9 1.4 9.1 4.5.1 3.2-6 6.9-9.1 5-2.6-1.7-2.7-7.7 0-9.5zM186.3 111.6c4.2-5 23.4 10.5 37.4 33 16.6 26.6 12.6 66.6 8.5 66.5s4.9-31.3-12.7-60.3-37.4-34.2-33.2-39.2z"/>
    <path class="st2" d="M168.4 96C116.1 86.7 66 106.9 43.1 141.4s-3.2 8.5 7.3 17.1c6.3 5.1 4.8 44.1 14.8 69 0 0-12.5-55.1 13.7-85C123.4 91.9 168.4 96 168.4 96z"/>
  </g>
  <path class="st4" d="M139.5 206.7c5.8 12.8 43.9 18.1 54.1-9.2 1.4-3.8-18.1 16.6-54-7-3.6-2.4-4.8 5.8-.1 16.2z" id="Camada_6"/>
  <g id="Camada_7">
    <path class="st4" d="M143.9 173.5c.3 3.7 1.5 7.9 5.5 7.6s4.5-5 4.1-8.8c-.3-3.5-2.7-6.8-5.2-6.7-2.5.1-4.7 4-4.4 7.9zM192.9 170.7c.1 3.7-.6 8-4.6 8.2-4 .2-5-4.4-5.1-8.3-.1-3.5 1.9-7.1 4.3-7.3 2.6-.2 5.2 3.4 5.4 7.4z"/>
  </g>
  <path class="st1" d="M86.7 221.5c-7.4 1.5-10.4 30.6-5 54.8 2.4 10.9 6.2 19.4 9.3 25.3-1.9 6.6-.2 13.2 4.3 16.6 4.5 3.5 11.1 3.1 12.9 1.2 7.3-7.6-7.8-14.5-8.2-15-.7-.8 2.7.3 3.2-.5 3.1-4-8.6-5.2-9-5.7-8.8-11.1-16.1-57.9-3.1-70.8 2.1-2.1-.8-6.6-4.4-5.9z" id="Camada_8"/>
  <g id="Camada_9">
    <path class="st5" d="M172.1 66.6l3.8-14.2M188.4 73.1l9.5-13.6M153.7 66.3l-6.8-13.9"/>
  </g>
</svg>
