<svg xmlns="http://www.w3.org/2000/svg" viewBox="0 0 400 400">
  <style>
    .st0{opacity:.2;fill:#00374f}.st1{fill:#c7d12c}.st2{fill:#ffd549}.st3{fill:#ffe77a}.st4,.st5,.st6,.st7{fill-rule:evenodd;clip-rule:evenodd;fill:#999}.st5,.st6,.st7{fill:#666}.st6,.st7{fill:#b3b3b3}.st7{fill:#ccc}.st9{fill:#f68f1e}.st10{fill:#f9ba19}.st13{fill:#f9a11b}.st19,.st20,.st21,.st22{fill-rule:evenodd;clip-rule:evenodd;fill:#f0c6a0}.st20,.st21,.st22{fill:#a23f31}.st21,.st22{fill:#f8c859}.st22{fill:#d7963f}.st24,.st25,.st32,.st33,.st36,.st38{fill-rule:evenodd;clip-rule:evenodd;fill:#70180c}.st25,.st32,.st33,.st36,.st38{fill:#ca8c3d}.st32,.st33,.st36,.st38{fill:#c5782e}.st33,.st36,.st38{fill:#c67a2f}.st36,.st38{fill:#c5792f}.st38{fill:#c3772e}.st44{fill:#1486ab}.st45{fill:#1da0be}.st46{opacity:.5;fill:#1486ab}.st47{fill:#60c7e2}.st48{opacity:.5;fill:#cbf0f4}
  </style>
  <ellipse class="st0" cx="203.8" cy="285.2" rx="51" ry="5.9" id="Camada_14"/>
  <ellipse class="st0" cx="68.1" cy="285.2" rx="51" ry="5.9" id="Camada_13"/>
  <ellipse class="st0" cx="329.7" cy="285.2" rx="51" ry="5.9" id="Camada_12"/>
  <g id="Camada_11">
    <path class="st1" d="M55.6 197.3l-2.9 1.9-6.5-6.6 2.8-1.9z"/>
    <path class="st2" d="M125.6 207.1c-1.2-1-2.8-1.5-4.4-1.3l-.4.1s-.3 0-.9.1c-.3.1-.6.1-1 .2s-.8.2-1.3.3c-1 .2-2.2.4-3.5.8-.7.2-1.4.3-2.1.4-.7.1-1.5.4-2.3.5-.8.1-1.6.3-2.5.5-.8.1-1.7.3-2.6.4-.9.1-1.8.2-2.7.4-.4 0-.9.1-1.4.1-.2 0-.5.1-.7.1-.2 0-.5.1-.7.1-.5 0-.9.1-1.4.1-.2 0-.5 0-.7.1h-.7c-.5 0-.9 0-1.4.1h-2.8c-.4 0-.9 0-1.3-.1-.4 0-.9-.1-1.3-.1h-.6l-.7-.1c-1.7-.2-3.4-.5-5.1-1-1.6-.4-3.3-1-4.8-1.6-1.6-.6-3.1-1.3-4.5-2.1-1.5-.7-2.8-1.6-4.1-2.3-.6-.4-1.3-.8-1.9-1.2-.6-.4-1.2-.8-1.7-1.1-.5-.4-1-.7-1.5-1-.5-.3-.9-.7-1.3-.9-.4-.3-.7-.5-1-.7-.1-.1-.2-.1-.2-.2-.1-.1-.2-.1-.2-.2-.1-.1-.3-.2-.4-.3-.5-.4-.7-.5-.7-.5-1.2-.8-2.8-1.2-4.4-.9-.9.2-1.7.6-2.3 1.1-.8.6-1.4 1.4-1.8 2.3-.4 1.1-.6 2.2-.3 3.4 0 0 .1.3.2.9 0 .1.1.3.1.5 0 .1.1.2.1.3 0 .1.1.2.1.3.2.5.4 1 .6 1.6.2.6.5 1.2.8 1.8.3.7.7 1.4 1.1 2.1.4.7.9 1.5 1.4 2.3.3.4.5.8.8 1.2.3.4.6.8.9 1.3 1.3 1.7 2.8 3.5 4.7 5.2 1.8 1.7 4 3.4 6.4 4.9 2.4 1.5 5.1 2.7 7.9 3.7.4.1.7.2 1.1.4.4.1.7.2 1.1.3.7.2 1.5.4 2.2.6.7.2 1.5.3 2.2.4.4.1.8.1 1.1.2l1.1.1c1.5.2 3 .2 4.5.3.7 0 1.5 0 2.2-.1h1.1c.4 0 .7-.1 1.1-.1.7-.1 1.4-.2 2.1-.2.7-.1 1.4-.2 2.1-.4.3-.1.7-.1 1-.2.3-.1.7-.2 1-.2.7-.2 1.3-.3 2-.5 1.3-.4 2.5-.8 3.7-1.2 1.2-.5 2.3-.9 3.4-1.4 1.1-.5 2.1-1 3.1-1.5s1.9-1.1 2.7-1.6c.2-.1.4-.3.6-.4.2-.1.4-.3.6-.4.4-.3.8-.5 1.2-.8.4-.3.7-.5 1.1-.8.2-.1.3-.2.5-.4.2-.1.3-.3.5-.4.6-.5 1.2-1 1.7-1.4.3-.2.5-.4.8-.6.2-.2.5-.4.7-.6l1.1-1.1.8-.8c.4-.4.6-.7.6-.7.8-.9 1.3-2 1.4-3.2v-1.3c-.2-1.5-.9-2.7-1.9-3.6zm-69.3-7.8c.2.2.4.4.5.6-.2-.2-.4-.4-.5-.6zm2.8 2.7c.3.3.6.5.9.8-.3-.2-.6-.5-.9-.8zm1.9 1.6c.4.3.7.6 1.1.9-.4-.3-.8-.6-1.1-.9zm2.6 2c.5.4 1.1.8 1.6 1.1-.5-.3-1.1-.7-1.6-1.1z"/>
    <path class="st3" d="M125.6 207.1c-1.2-1-2.8-1.5-4.4-1.3l-.4.1s-.3 0-.9.1c-.3.1-.6.1-1 .2s-.8.2-1.3.3c-1 .2-2.2.4-3.5.8-.7.2-1.4.3-2.1.4-.7.1-1.5.4-2.3.5-.8.1-1.6.3-2.5.5-.8.1-1.7.3-2.6.4-.9.1-1.8.2-2.7.4-.4 0-.9.1-1.4.1-.2 0-.5.1-.7.1-.2 0-.5.1-.7.1-.5 0-.9.1-1.4.1-.2 0-.5 0-.7.1h-.7c-.5 0-.9 0-1.4.1h-2.8c-.4 0-.9 0-1.3-.1-.4 0-.9-.1-1.3-.1h-.6l-.7-.1c-1.7-.2-3.4-.5-5.1-1-1.6-.4-3.3-1-4.8-1.6-1.6-.6-3.1-1.3-4.5-2.1-1.5-.7-2.8-1.6-4.1-2.3-.6-.4-1.3-.8-1.9-1.2-.6-.4-1.2-.8-1.7-1.1-.5-.4-1-.7-1.5-1-.5-.3-.9-.7-1.3-.9-.4-.3-.7-.5-1-.7-.1-.1-.2-.1-.2-.2-.1-.1-.2-.1-.2-.2-.1-.1-.3-.2-.4-.3-.5-.4-.7-.5-.7-.5-1.2-.8-2.8-1.2-4.4-.9-.9.2-1.7.6-2.3 1.1 2.3 3 27.5 32.5 71.5 10.2z"/>
    <ellipse class="st4" cx="70.3" cy="244.7" rx="65.3" ry="15.1"/>
    <path class="st5" d="M135.5 239.6c0-8.3-29.2-15.1-65.3-15.1S5 231.3 5 239.6v5.1c0-8.3 29.2-15.1 65.3-15.1s65.3 6.8 65.3 15.1v-5.1z"/>
    <path class="st6" d="M5 244.7c0 8.3 29.2 15.1 65.3 15.1s65.3-6.8 65.3-15.1v-5.1c0 8.3-29.2 15.1-65.3 15.1S5 248 5 239.6v5.1z"/>
    <path class="st7" d="M135.5 239.6c0 8.3-29.2 15.1-65.3 15.1S5 248 5 239.6s29.2-15.1 65.3-15.1 65.2 6.8 65.2 15.1zm-19.4 9.2c13.2-3.1 17.9-6.7 17.9-9.2s-4.7-6.1-17.9-9.2c-12.2-2.8-28.5-4.4-45.8-4.4s-33.6 1.6-45.8 4.4c-13.2 3.1-17.9 6.7-17.9 9.2s4.7 6.1 17.9 9.2c12.2 2.8 28.5 4.4 45.8 4.4s33.6-1.6 45.8-4.4z"/>
    <g>
      <path class="st1" d="M52.3 201l-3.3.9-4.3-8.2 3.4-1z"/>
      <path class="st2" d="M116.2 231.2c-.8-1.3-2.2-2.3-3.8-2.5l-.4-.1s-.3 0-.9-.1c-.3 0-.6-.1-1-.1s-.9-.1-1.4-.1c-1-.1-2.2-.2-3.6-.3-.7 0-1.4-.1-2.2-.2-.8-.1-1.5-.1-2.3-.2-.8-.1-1.6-.2-2.5-.3-.8-.1-1.7-.2-2.6-.3-.9-.1-1.8-.3-2.7-.4-.4-.1-.9-.2-1.3-.3-.2 0-.5-.1-.7-.1-.2 0-.5-.1-.7-.1-.4-.1-.9-.2-1.3-.3-.2-.1-.4-.1-.7-.2-.2-.1-.4-.1-.7-.2-.4-.1-.9-.2-1.3-.3-.4-.1-.9-.3-1.3-.4l-.7-.2-.6-.2c-.4-.2-.9-.3-1.3-.4-.4-.2-.8-.3-1.2-.5l-.3-.1c-.1 0-.2-.1-.3-.1l-.6-.3c-1.6-.7-3.1-1.5-4.6-2.5-1.4-.9-2.8-1.9-4.1-2.9-1.3-1.1-2.5-2.2-3.7-3.3-1.2-1.1-2.2-2.3-3.2-3.5-.5-.6-1-1.1-1.4-1.7-.5-.5-.9-1.1-1.3-1.6s-.8-1-1.1-1.5c-.4-.5-.7-.9-1-1.3-.3-.4-.5-.7-.8-1l-.2-.2c-.1-.1-.1-.2-.2-.2-.1-.1-.2-.3-.3-.4-.3-.5-.5-.7-.5-.7-.9-1.2-2.4-2-4-2.1-.9-.1-1.7 0-2.5.3-.9.3-1.7.9-2.4 1.7-.7.9-1.2 2-1.3 3.2 0 0 0 .3-.1.9v1.1c0 .5.1 1 .1 1.7 0 .6.1 1.3.2 2s.2 1.5.4 2.3c.2.8.4 1.7.6 2.6.1.5.3.9.4 1.4.2.5.3 1 .5 1.5.7 2 1.7 4.2 2.9 6.3 1.3 2.2 2.8 4.4 4.6 6.5 1.9 2.1 4 4.1 6.5 5.9.3.2.6.4.9.7l.9.6c.6.4 1.3.8 1.9 1.2.7.4 1.3.7 2 1.1.3.2.7.4 1 .5l1 .5c1.4.6 2.8 1.1 4.2 1.6l2.1.6c.4.1.7.2 1.1.3.4.1.7.1 1.1.2.7.1 1.4.3 2.1.4l2.1.3c.3 0 .7.1 1 .1.3 0 .7 0 1 .1.7 0 1.4.1 2 .1h3.9c1.3-.1 2.5-.2 3.7-.3 1.2-.2 2.3-.3 3.4-.5s2.1-.5 3.1-.7c.2-.1.5-.1.7-.2.2-.1.5-.1.7-.2.5-.1.9-.3 1.3-.4.4-.1.9-.3 1.3-.4.2-.1.4-.1.6-.2.2-.1.4-.1.6-.2.8-.3 1.5-.6 2.1-.8.3-.1.6-.3.9-.4.3-.1.6-.3.8-.4.5-.3 1-.5 1.4-.7.4-.2.7-.4 1-.5.5-.3.8-.5.8-.5 1-.6 1.8-1.5 2.3-2.7.2-.4.3-.8.3-1.2.7-1.7.3-3.1-.4-4.2zm-63.8-28.1c.1.2.2.4.4.7-.2-.2-.3-.5-.4-.7zm1.9 3.5c.2.3.4.7.6 1-.2-.4-.4-.7-.6-1zm1.3 2c.3.4.5.8.8 1.2-.3-.4-.5-.8-.8-1.2zm1.9 2.7c.4.5.8 1 1.2 1.6-.4-.6-.8-1.1-1.2-1.6z"/>
      <path class="st3" d="M116.2 231.2c-.8-1.3-2.2-2.3-3.8-2.5l-.4-.1s-.3 0-.9-.1c-.3 0-.6-.1-1-.1s-.9-.1-1.4-.1c-1-.1-2.2-.2-3.6-.3-.7 0-1.4-.1-2.2-.2-.8-.1-1.5-.1-2.3-.2-.8-.1-1.6-.2-2.5-.3-.8-.1-1.7-.2-2.6-.3-.9-.1-1.8-.3-2.7-.4-.4-.1-.9-.2-1.3-.3-.2 0-.5-.1-.7-.1-.2 0-.5-.1-.7-.1-.4-.1-.9-.2-1.3-.3-.2-.1-.4-.1-.7-.2-.2-.1-.4-.1-.7-.2-.4-.1-.9-.2-1.3-.3-.4-.1-.9-.3-1.3-.4l-.7-.2-.6-.2c-.4-.2-.9-.3-1.3-.4-.4-.2-.8-.3-1.2-.5l-.3-.1c-.1 0-.2-.1-.3-.1l-.6-.3c-1.6-.7-3.1-1.5-4.6-2.5-1.4-.9-2.8-1.9-4.1-2.9-1.3-1.1-2.5-2.2-3.7-3.3-1.2-1.1-2.2-2.3-3.2-3.5-.5-.6-1-1.1-1.4-1.7-.5-.5-.9-1.1-1.3-1.6s-.8-1-1.1-1.5c-.4-.5-.7-.9-1-1.3-.3-.4-.5-.7-.8-1l-.2-.2c-.1-.1-.1-.2-.2-.2-.1-.1-.2-.3-.3-.4-.3-.5-.5-.7-.5-.7-.9-1.2-2.4-2-4-2.1-.9-.1-1.7 0-2.5.3 1.5 3.4 16.7 39.1 65.3 30.9z"/>
    </g>
    <g>
      <path d="M50.9 165.9c-11.4 0-20.7 1.9-20.7 4.1v68c0 2.3 9.3 4.1 20.7 4.1s20.7-1.9 20.7-4.1v-68c0-2.2-9.3-4.1-20.7-4.1z" opacity=".8" fill="#fff"/>
      <path class="st9" d="M33.7 199.3v35.1c0 1.9 7.7 3.4 17.2 3.4s17.2-1.5 17.2-3.4v-35.1H33.7z"/>
      <ellipse class="st10" cx="50.9" cy="199.3" rx="17.2" ry="3.4"/>
      <path d="M50.9 174.2c-11.4 0-20.7-1.9-20.7-4.1v68c0 2.3 9.3 4.1 20.7 4.1s20.7-1.9 20.7-4.1v-68c0 2.3-9.3 4.1-20.7 4.1z" fill="#fff" opacity=".2"/>
      <g>
        <ellipse class="st13" cx="82.2" cy="229.7" rx="18.3" ry="18.1"/>
        <path class="st9" d="M97.5 219.7c.6 1.8.9 3.7.9 5.7 0 10-7.6 18.1-17 18.1-9.3 0-16.8-7.8-17-17.6-.3 1.2-.4 2.5-.4 3.8 0 10 8.2 18.1 18.3 18.1 10.1 0 18.3-8.1 18.3-18.1-.1-3.7-1.2-7.1-3.1-10z"/>
        <ellipse cx="81.9" cy="216.1" rx="1.6" ry="1.2" fill="#789438"/>
        <ellipse cx="81.9" cy="215.9" rx="1" ry=".7" fill="#83b041"/>
        <path class="st10" d="M75.5 220.8c-1.4 1.9-3.5 2.6-4.9 1.6-1.3-1-1.3-3.3.1-5.1 1.4-1.9 3.5-2.6 4.9-1.6 1.3.9 1.3 3.2-.1 5.1z"/>
        <g>
          <path class="st13" d="M80.6 233.1c0 8.7-7.1 15.8-15.8 15.8S49 241.8 49 233.1c0-1.6.2-3.1.7-4.5 1.4-4.7 7.7-8.2 15.2-8.2 7.2 0 13.2 3.2 15 7.6.2.5.3 1 .4 1.5.2 1.1.3 2.3.3 3.6z"/>
          <path class="st10" d="M80.3 230.6c0 5.7-6.9 10.3-15.5 10.3s-15.5-4.6-15.5-10.3c0-.7.1-1.4.3-2.1 1.4-4.7 7.7-8.2 15.2-8.2 7.2 0 13.2 3.2 15 7.6.2.5.3 1 .4 1.5.1.4.1.8.1 1.2z"/>
          <ellipse cx="64.8" cy="230.6" rx="15.1" ry="10" fill="#fcf4b6"/>
          <path class="st10" d="M63.5 230.7l-11.1 4.1c-1-1.3-1.5-2.7-1.5-4.2 0-.7.1-1.3.3-1.9l12.3 2zM63.8 230.1l-11.9-3c1.2-2 3.4-3.6 6.2-4.6l5.7 7.6zM64 231.3l-3.8 8c-3-.7-5.6-2.1-7.2-3.9l11-4.1zM69.4 221.9l-4.6 7.8-4.6-7.8c1.5-.3 3-.5 4.6-.5s3.2.2 4.6.5zM70.6 239c-1.8.5-3.7.8-5.8.8-1.2 0-2.4-.1-3.5-.3l3.6-8.1 5.7 7.6zM77.2 226.5L65.7 230l4.8-7.8c2.9.9 5.3 2.4 6.7 4.3zM77.7 234c-1.2 2-3.4 3.6-6.1 4.6l-5.8-7.5 11.9 2.9zM78.7 230.6c0 .9-.2 1.8-.6 2.7l-12-2.7 11.6-3.4c.6 1 1 2.2 1 3.4z"/>
          <path class="st9" d="M62.5 246c-3.5 0-6.7-.9-9.5-2.4 2.9 3.2 7.1 5.3 11.8 5.3 8.7 0 15.8-7.1 15.8-15.8-2 7.4-9.4 12.9-18.1 12.9z"/>
        </g>
      </g>
    </g>
  </g>
  <g id="Camada_10">
    <ellipse class="st4" cx="329.7" cy="244.7" rx="65.3" ry="15.1"/>
    <path class="st5" d="M395 239.6c0-8.3-29.2-15.1-65.3-15.1s-65.3 6.8-65.3 15.1v5.1c0-8.3 29.2-15.1 65.3-15.1s65.3 6.8 65.3 15.1v-5.1z"/>
    <path class="st6" d="M264.5 244.7c0 8.3 29.2 15.1 65.3 15.1s65.3-6.8 65.3-15.1v-5.1c0 8.3-29.2 15.1-65.3 15.1s-65.3-6.8-65.3-15.1v5.1z"/>
    <path class="st7" d="M395 239.6c0 8.3-29.2 15.1-65.3 15.1s-65.3-6.8-65.3-15.1 29.2-15.1 65.3-15.1 65.3 6.8 65.3 15.1zm-19.5 9.2c13.2-3.1 17.9-6.7 17.9-9.2s-4.7-6.1-17.9-9.2c-12.2-2.8-28.5-4.4-45.8-4.4-17.3 0-33.6 1.6-45.8 4.4-13.2 3.1-17.9 6.7-17.9 9.2s4.7 6.1 17.9 9.2c12.2 2.8 28.5 4.4 45.8 4.4 17.3 0 33.6-1.6 45.8-4.4z"/>
    <g>
      <g fill-rule="evenodd" clip-rule="evenodd" id="_x33_zCG9D_6_">
        <path d="M333 191.2c.8-.6 1.6-.6 2.6-.4 1.7.3 3.4.3 5.1 0 .7-.2 2.7-1.9 3.5-2.7 1.2-1.3 1.7-2.9 1.4-4.6-.3-2-1.2-3.6-2.7-5-1.7-1.7-3.5-3.3-4.6-5.5-.3-.7-.6-1.4-1.1-2-1.5-1.5-1.4-3.2-.8-4.9.1-.2-6.4 3.9-7.8 4.6-2 1-3.9 2.1-5.8 3.2-2.8 1.7-4.8 4-6 7-.9 2.3-.7 4.6.7 6.8 2.2 3.5 5.5 5.8 9.1 7.6.2 0 .2 0 .3-.2 0-.4-.2-.6-.4-.8-.9-1-1.2-2.2-1.5-3.5-.1-.3-.1-.5 0-.8.1-.6.4-.8 1-.5.7.3 1.3.7 2 .9.8.2 1.6.4 2.4.4.7 0 1.5-.2 2 .5.2.1.4 0 .6-.1z" fill="#d6a276"/>
        <path d="M327.2 195.6c.2-.4-.1-.4-.3-.6l-.2.2c.1.3.3.4.5.4z" fill="#dfb48f"/>
      </g>
      <path class="st19" d="M337.2 171c.7 1.9 1.7 3.6 3 5.1 1.1 1.3 2.5 2.4 3.6 3.8 1.8 2.3 2.1 5.1.8 7.4-.7 1.3-2.6 2.4-3.6 1.8-.8-.4-1.5-1.3.1-3.1 1.4-1.6.9-2.9-.6-4.5-1.2-1.2-2.5-2.4-3.6-3.7-.8-1-1.4-2.1-2-3.3-.1-.2-.2-.5-.4-.5-.3 0-.3.4-.3.6-.8 7.4 1.8 12.4 3.4 13.7.7.5 1 1.3 2 1.3.4 0 .9.2 1.3.5.5.4.3.6-.1.8 3.1-.4 6-1.3 7.7-4.1 1.3-2.2 1.8-4.6 1.2-7.1-.4-1.7-1.5-3-3.2-3.7-2.3-1.1-4.6-2.3-6.9-3.4-.9-.6-1.6-1-2.4-1.6zM333 191.2c-.2 0-.5 0-.5-.1-.3-.9-1.1-.6-1.7-.6-1.7.1-3.3-.5-4.7-1.3-.7-.4-1.3-.1-1.3.7 0 1.8.5 3.4 1.8 4.7.1.1.2.3.3.4 0 .2.3.3.3.6 1 .6 2.1 1.3 3.3 1.1 2.4-.2 3.5-2.6 2.3-4.7-.3-.4-.3-.6.2-.8zM330.5 174.2c-2 1.8-3.8 4.4-4.2 6.7-.5 2.4 0 3.1.6 3.7.8.8 1.7 1.4 2.9 1.7.8.2.9.1.8-.7-.4-2.2-.6-4.4-.5-6.7 0-1.5.2-3 .4-4.7z"/>
      <g id="ZVxlvY_6_">
        <path class="st20" d="M365.9 194.1c-.9-2.3-2.6-3.6-4.8-4.5-6.3-2.7-12.8-3-19.5-2.4-4.2.4-8.3 1.3-12.5 1.8-2.6.3-5.2.1-7.8 0-1.1-.1-2.2.1-3.3.5-1.1.4-2.2.7-3.3 1-1.7.6-3.5.7-5.3.5-2.2-.2-4.2 0-6.2 1.1-2.6 1.4-5.4 2.4-8.3 3.1-2.2.5-3.4 2.2-3.3 4.4 0 .7-.1 1.4.2 2.1.5-.5.3-1.2.3-1.9 0-.6.2-.9.8-.9.6 0 1.2-.3 1.7-.7.5-.4 1-.4 1.5-.1 1.2.7 2.4.7 3.5 0 1.2-.7 2.3-.9 3.6-.5 1.2.4 2.4.1 3.4-.6 1.4-.9 2.3-.7 3.4.5.4.4.7.8 1 1.3.5.6 1 1.1 1.7 1.5 1.9 1.2 3.3 1.2 5.1-.2 1.3-1 2.6-2.1 4.2-2.8 1.2-.5 2.4-.6 3.6-.7.7 0 1.1.4 1.4.8 1.8 2.3 4 4 6.7 5.1 2.9 1.1 5.8 1.2 8.6-.4.5-.3.9-.6 1.2-1.1.1-.2.3-.4.5-.6.5-.5.9-1 1.3-1.6.2-.2.3-.4.4-.6.7-.8 1-.8 1.9-.2 1.6 1.1 3.2 2.3 5.1 2.9 2.4.8 4.3.2 6.2-1.2.4-.3.6-.6 1-.9 1.3-.9 2.3-.6 2.7 1 .4 1.5.4 3 .2 4.5-.2 1.4-.4 2.7-.3 4.1 0 .8.2 1.4.9 1.8 1.2-.9 1.6-2.2 2.1-3.5-.7-.9-.3-1.8-.2-2.7.2-2.4-.3-4.8-1.1-7-.5-1.5-1.9-2-3.2-1.2-3.7 2.4-7.2 1.8-10.7-.4-1.1-.7-2.1-1.2-3.4-1.3-1.2-.1-2.2.2-3 1.1-.5.6-1 1.1-1.4 1.8-2.2 3.5-7.2 3.5-10.1.8-.9-.9-1.8-1.8-2.8-2.6-2.1-1.9-4.6-2.1-7.2-1.4-.2.1-.5.2-.7.2-.1 0-.1 0-.3-.1 3.2-1.7 6.3-3 10-1.9 1.7.5 3.3 1.2 5 1.6 1.5.4 2.9.3 4.2-.5 3.1-1.7 6.3-1.8 9.6-.4 3.1 1.4 6.3 1.5 9.4.1 2-.8 3.8-.6 5.3 1.1.2.2.4.4.8.5.4.1.3-.1.2-.3z"/>
        <path class="st21" d="M360.4 229c.3-1.1.5-2.1-.3-3.2-.6-.8-.6-1.9.1-2.6 1.3-1.4 1.1-3.1 1.2-4.8-.2-.4-.6-.5-.9-.6-3.3-.9-6.8-1.2-10.2-1.3-1.7 0-3.4-.1-5-.6-1.5-.5-3-.5-4.4-.1-4.4 1.2-8.7.7-13-.1-2-.4-3.9-.2-5.9-.1-.4 0-.8.1-1.1.5-.2.6-.3 1.3-.3 1.9 0 2.7-.1 5.4-.2 8.2 0 .6 0 1.3.8 1.4 1.9-.2 3.8-.7 5.7-.6 1.1.1 2.1 0 3.2.2 2.8.5 5.6.6 8.3.8 1.9.1 3.7.8 5.6 1.2 2 .4 4.1 1 6.2.9.9 0 1.7-.1 2.5-.5 2-.9 4-.9 6.1-.6.4.1 1 .4 1.6 0zM320.4 245.7h6.4c6.7.1 13.4.1 20 .2 3.6.1 7.1.3 10.7.4.5 0 .9.1 1-.7.3-3.6.7-7.1 1.1-10.7-1-1-2.3-1-3.5-.7-1.3.2-2.7.5-4 .9-3.1 1-6.1.6-9-.5-.7-.3-1.4-.5-2.1-.8-2.2-1-4.5-1.2-6.8-.9-2.2.3-4.3.1-6.3-.7-2.3-.9-4.4-.4-6.5.3-.4.1-.8.4-1 .8-.1.3-.1.6-.1.9v10.7c0 .4 0 .6.1.8z"/>
        <path class="st22" d="M320.4 245.7c.3-.4.2-.8.2-1.2v-11.3c-.1 0-.1-.1-.1-.1-4 .2-7.9-.5-11.9-.6-1.7 0-3.4-.4-5-.7-2.7-.5-5.3-.1-7.9.5-.9.2-1.8.2-2.5.7v2.8c0 .4.1.6.3.9.9 1.1 1 2.5.2 3.6-.5.7-.6 1.5-.5 2.3v2.1c0 1.3.1 1.3 1.4 1.3 1.9-.1 3.9-.1 5.8-.1 6.7 0 13.3-.1 20-.2z"/>
        <path class="st21" d="M362.2 211.7c.1-.3.2-.6.2-1-.6-.5-.7-1.2-.7-1.9 0-2.4.2-4.7.5-7 .1-.4.2-.9-.1-1.3-.5-.4-.7 0-1 .3-1.1.9-2.4 1.5-3.8 1.7-1.7.4-3.5.7-5.2.3-1.8-.3-3.5-1.1-5-2-.7-.4-1.2-1-2-1.1-.5.1-.6.6-1 .9-.2.2-.3.5-.5.7-.4.5-1 .9-1.5 1.3-.3.2-.7.4-.7.8 0 .2.1.3.3.3.3.1.6.1.9.3.4.2.7.4.6.9-.1.4-.5.6-.9.6-.5 0-.9-.2-1-.7-.1-.3.1-.6-.1-.9-.1-.1-.2-.2-.4-.3-1.2.2-2.4.7-3.6.9-.5.2-1 .1-1.5.1s-1 .1-1.4.4c-1.1.8-1.7.6-2.2-.6-.1-.2-.1-.3-.2-.4-.7-.7-1.7-.9-2.5-1.5-1.4-.9-2.5-2.1-3.5-3.4-.7-.5-1.5-.8-2.3-1.1-.8 0-1.5.2-2 .9-.2.4-.2.9-.2 1.3-.1 2.8.1 5.6-.2 8.5-.1 1.4.1 1.6 1.2 1.8 1 0 2-.3 3-.4 1.8-.2 3.5.1 5.2.4 2.2.5 4.5.8 6.8.3.4-.1.7-.1 1.1-.2 1.5-.5 3-.5 4.4-.1 4.2 1 8.4 1 12.6.3 1.9-.3 3.7.2 5.5.6.2.3.7.5 1.2.3z"/>
        <path class="st22" d="M321.2 227.3c-.7 0-.7-.4-.6-.9.1-1.8.2-3.5.2-5.3 0-1.7 0-3.4.2-5.1-.1-.1-.2-.2-.3-.2-5.6-.3-11.3-1.2-16.9.2-.7.2-1.3.2-2 .3-2.4.3-4.7-.1-7-.3-.6-.1-1.2-.2-1.7.2-.1.5 0 .9.4 1.4.9.9.8 1.8-.2 2.7-.2.2-.3.4-.3.7v6.5c.6.5 1.2.3 1.9.2 1.9-.3 3.7-.7 5.6-.7 1.1 0 2.2.1 3.2.5 2.2.7 4.4.8 6.7.1 1.2-.3 2.4-.2 3.6 0 .8.1 1.5.4 2.3.5h3.5c.6-.1 1.2-.1 1.4-.8z"/>
        <path d="M365.7 194.5c-2.3-2.8-3.9-2.7-6.2-1.8-3.3 1.3-6.4 1.1-9.5-.2-3.1-1.3-6.1-1.3-9.1.3-1.9 1.1-3.8 1-5.7.3-1.1-.4-2.1-.7-3.2-1.1-4-1.5-7.5-.1-10.9 1.9-.2.1-.4.2-.3.4.1.3.4.2.6.2 1-.3 2-.5 3-.7 1.8-.3 3.3.3 4.6 1.4 1 .8 1.9 1.7 2.8 2.6 2.1 2.1 4.6 2.8 7.5 2 1.4-.4 2.4-1.3 3.3-2.5l1.2-1.5c1.1-1.5 2.6-1.5 4.2-1.1.8.2 1.4.6 2.1 1 3.1 2.2 8 2.8 11 .4 1.1-.9 2.4-.3 2.9 1.2.8 2.6 1.3 5.3.8 8-.2 1.1-.1 1.1.6 1.4 1.5-3.2 1.7-6.6 1-10-.1-.5-.2-.9-.3-1.4 0-.2 0-.6-.4-.8z" fill-rule="evenodd" clip-rule="evenodd" fill="#d6763d"/>
        <path class="st22" d="M322.3 210.3c-.8.1-1.1-.3-1-1.1.3-3.1.2-6.2.2-9.3 0-.3.1-.6.2-.9-.5-.2-.8.1-1.2.4-1.3.9-2.5 1.9-3.8 2.8-1.7 1.1-3.4 1.8-5.5 1.3-.9-.2-1.6-.8-2.3-1.3-.3-.2-.6-.6-1-.4-.4.2-.3.7-.3 1-.1 1.3-.1 2.5-.5 3.7-.4 1.4-1.1 2-2.4 1.8-1.2-.1-1.9-.9-1.9-2.4 0-1.2-.1-2.5-.2-3.7-.1-.6-.2-1.2-.5-1.7-.5-.9-1-1.1-1.9-.7-1 .4-1.9.5-3 .2-.9-.3-1.5.5-2.2.7-1 .3-.7 1.2-.6 1.9.1 1.1.2 2.2 0 3.3-.2 1.1-.9 1.4-1.7 1.8.7.6.2 1.5.4 2.2 1.4.7 2.9.9 4.4.9 3.7.2 7.3-.4 11-.9 2.8-.3 5.6-.2 8.4.4.4.1.8.2 1.2.2 1 0 2 .1 3 0 .5.3 1 .4 1.2-.2z"/>
        <path class="st24" d="M292.7 207.9c1.1.1 1.6-.4 1.9-1.5.3-1.3.3-2.6 0-4-.2-.8-.2-1.3.8-1.4.3 0 .6-.3.8-.4.4-.3.7-.3 1.1-.1.9.4 1.8.3 2.7-.1 1.2-.6 1.8-.3 2.1 1 .4 1.6.4 3.2.4 4.8 0 1.8 1.1 2.8 2.9 2.6 1.1-.1 1.7-.7 2-2 .2-1.2.3-2.5.5-3.8v-1.2c1 .9 1.9 1.7 3 2 2.3.7 4.3-.1 6.2-1.4 1.5-1.1 2.9-2.4 4.6-3.3.6-.4 1.2-.6 1.8-.6.9-.1 1.6.3 2.1 1 1.4 2.2 3.5 3.7 5.9 4.7.9.7 1.9 1 3 .8.8-.1 1.7.1 2.5-.1 1.3-.2 2.5-.6 3.7-1 .2-.1.5-.2.6-.4.8-.7 1.7-1.1 2.3-2 .1-.2.2-.4-.2-.4-.9 1.1-2 1.7-3.4 2-3.2.7-6.1-.1-8.8-1.9-1.5-1-2.8-2.2-3.8-3.6-1.1-1.5-2.6-.9-3.9-.7-2.1.4-3.8 1.5-5.3 2.9-2.6 2.4-4.8 1.5-6.9-.9-.7-.9-1.3-1.9-2.5-2.4-.7-.3-1.3-.3-1.8.2-1.2 1-2.5 1.2-3.9.8-1.1-.3-2.1-.3-3.1.4-1.3.8-2.6 1-4 0-.5-.4-1.1-.1-1.5.3-.6.5-1.3.8-2 .7-.6-.1-.5.2-.5.6v2.4c0 1.3 0 2.7.1 4-.1.6.1 1.4.6 2z"/>
        <path class="st20" d="M322.3 210.3c-1.4.4-2.7.1-4.1.2.7 1 .5 2.1.7 3.2.1.4 0 .8.3 1.2 1 .5 1.9-.1 2.9 0 3.1-.7 6.2-.4 9.3.2 2.7.5 5.5.5 8.2-.3 1-.3 2-.2 2.9.1 2.4.5 4.8.9 7.2.9 1.6 0 3.2-.2 4.8-.4 2-.3 3.9-.2 5.7.5.4.2.9.4 1.4.2.2-1.4.4-2.9.6-4.3-2.4-.9-4.8-1.5-7.4-1-4.2.8-8.4.5-12.6-.5-1-.2-2-.3-3 0-3 .9-5.9.8-8.9.1-2.7-.7-5.4-.5-8-.1zM321.2 227.3c-1.1.7-2.3.3-3.4.4h-1.5c.1.5.5.4.8.5.4.1.7.1 1.1 0 .8-.1 1.1.3 1.1 1.1 0 .9-.1 1.8 0 2.7.6.5 1.2.1 1.8.1 1.1-.3 2.2-.6 3.4-.8 2.2-.4 4.4-.1 6.6.3 2 .3 4 .6 6.1.5 1 0 1.9.2 2.8.4 1.5.3 3 .7 4.5 1.1 2.3.6 4.6.6 6.9.5.8 0 1.6-.2 2.4-.6 1.6-.8 3.2-.7 4.9-.3.4.1.9.3 1.3 0 .2-1.4.5-2.8.4-4.3-.8-.1-1.5-.3-2.3-.4-1.5-.2-3-.3-4.3.3-2.7 1.2-5.4.9-8.1.4-2.6-.5-5.2-1.6-7.9-1.6-3.4 0-6.6-.8-10-1-2.3 0-4.4.2-6.6.7z"/>
        <path class="st24" d="M319.4 232c.4-1.2.1-2.4.2-3.6 0-.5-.4-.4-.8-.4-.8-.1-1.7.2-2.5-.2-.8-.2-1.5-.3-2.3-.5-1.3-.3-2.6-.3-3.8.1-1.8.5-3.7.6-5.4 0-3-1-5.9-.7-8.9-.1-.9.2-1.8.3-2.7.3v4.1c.9.5 1.9.3 2.9.1 1.4-.2 2.8-.6 4.2-.7h1.1c2.3.7 4.6 1.2 7 1 .3 0 .6.1.9 0 2.4-.9 4.7-.2 7 .1 1 .2 2.1.4 3.1-.2zM319.2 214.7c.2-1.2-.3-2.3-.2-3.5.1-.6-.6-.4-.8-.7-4.2-1.1-8.5-.9-12.8-.3-2.4.4-4.9.6-7.4.6-1.7-.1-3.2-.6-4.8-.7-.1 1.4-.1 2.9 0 4.3 1.5.7 3.1.9 4.8.9 3.4.1 6.7-.5 10.1-.9 2.8-.4 5.5-.3 8.2.3.6.1 1.3.2 1.9.3.3.1.7.1 1-.3z"/>
        <path class="st25" d="M361.6 216c-2.5-1.2-5.1-1.5-7.8-1-3.8.7-7.7.4-11.4-.5-1.1-.2-2.1-.2-3.2 0-3.2.8-6.4.7-9.5-.1-2.3-.5-4.6-.5-6.9 0-.3.1-.5.1-.8.1-1.3.2-1.4.2-1.2 1.4h.2c1.4-.4 2.9-.3 4.3-.3 2.9 0 5.6.9 8.5 1.1 1.6.1 3.2 0 4.8-.3 2.4-.5 4.8-1 7.2-.1 1.5.5 3.1.4 4.7.5 3.7.1 7.3.5 10.8 1.6.2-.7.4-1.5.3-2.4zM359.9 233.3c-1.7-.3-3.5-1.1-5.2-.3-2.4 1.1-4.9 1.1-7.4.9-2.3-.2-4.5-.9-6.8-1.5-1.2-.3-2.3-.6-3.5-.5-2.2.1-4.4-.2-6.5-.6-3.2-.6-6.4-.5-9.5.7-.8.3-.8.8-.4 1.4v.1c2.4-1 4.7-1.7 7.3-.7 2 .8 4.1 1 6.3.7 2.8-.4 5.5.2 8 1.4 3.7 1.7 7.5 1.8 11.3.5 2-.6 4.1-1.2 6.1-.2.2-.7.4-1.3.3-1.9z"/>
        <path class="st24" d="M351.8 203.1c1.9.4 3.7.2 5.5-.4.8-.5 1.5-1.3 2.2-1.9.7-.6 1.4-.8 2.3-.4.3.2.2.5.2.9-.5 2.8-.6 5.5-.5 8.3 0 .7.2 1.1 1 1.1.4-.1.8-.1 1.1-.4-1.2-1.8-.5-3.8-.3-5.7.1-1.6.2-3.2-.2-4.8-.5-1.7-1.6-2.1-3.1-1.1-.9.6-1.6 1.4-2.5 1.9-2.4 1.2-4.5.4-6.6-.7-1-.5-2-1.1-2.8-1.9-1.3-1.1-1.7-.8-2.7.5-.1.1-.2.3-.3.4 0 .2.1.3.2.3 1.1-.2 2.1.2 3 .8.7.5 1.4 1 2.2 1.3.6.5.8 1.2 1.3 1.8z"/>
        <path d="M320.8 216c.2-.7.4-1.4 1.2-1.4-1-.1-1.9.4-2.9.1-1.5.1-3-.3-4.4-.6-2.7-.5-5.3-.1-8 .1-4.2.4-8.4 1.3-12.7.2-.3-.1-.6 0-.9-.1-.1.6-.1 1.2 0 1.9 2.1.2 4.1.5 6.2.6 1.9.1 3.7-.2 5.5-.6 3.5-.8 7-.7 10.5-.4 1.9.2 3.7.3 5.5.2z" fill-rule="evenodd" clip-rule="evenodd" fill="#af6a2b"/>
        <path d="M320.6 233.2c.1-.5-.1-1.1.4-1.4-.6 0-1.1.3-1.6.2-2.1.1-4.1-.1-6-.6-.7-.2-1.3-.2-2 0-3 .8-6 .7-9-.3-.3-.1-.7-.2-1-.3-.3.1-.7.1-1 0-1.1.1-2.2.2-3.3.5-1.3.3-2.6.4-3.9.4v1.4c1.6 0 3.1-.6 4.7-.9 2.6-.4 5.2-.3 7.7.4 1.4.4 2.9.3 4.3.4 2.9.1 5.8.3 8.6.6.8.2 1.4-.1 2.1-.4z" fill-rule="evenodd" clip-rule="evenodd" fill="#af692b"/>
        <path d="M366.1 195.3c0 .5.1 1 .4 1.4 0-.7-.1-1.3-.4-1.9-.1.2-.1.4 0 .5z" fill-rule="evenodd" clip-rule="evenodd" fill="#b66450"/>
        <path d="M366.1 195.3v-.5c0-.3 0-.6-.2-.8 0 .2 0 .3-.2.4.2.4.3.7.4.9z" fill-rule="evenodd" clip-rule="evenodd" fill="#b05947"/>
        <path d="M345.2 199.2c-.1-.1-.2-.1-.2-.2-.4.5-.8 1-1.2 1.4 0 .1.1.2.2.3.3-.3.5-.6.8-.9.2-.1.5-.2.4-.6z" fill-rule="evenodd" clip-rule="evenodd" fill="#8b341c"/>
        <path d="M344 200.7c-.1-.1-.2-.2-.2-.3-.2.1-.3.2-.4.4.2.1.2.2.2.4.1-.1.3-.3.4-.5z" fill-rule="evenodd" clip-rule="evenodd" fill="#7e2815"/>
        <path class="st32" d="M323.9 221.1c0 1.3 1.2 2.5 2.5 2.5 1 0 2.2-1 2.2-1.9 0-1.1-1.5-2.3-2.7-2.3-1.1 0-2 .7-2 1.7zM352.5 223.2c.8 0 1.7-.8 1.7-1.7 0-.9-.5-1.6-1.3-1.6-1 0-2 .9-2 1.8 0 .8.7 1.5 1.6 1.5z"/>
        <path class="st33" d="M330.8 221.6c0 .5.8 1.2 1.5 1.1.5 0 .9-.3.8-.8-.1-.8-.8-1-1.4-1.1-.6 0-.8.4-.9.8z"/>
        <path d="M343.8 221.6c.1.5.3.9.9.8.6 0 .9-.4.9-1 0-.5-.3-.8-.8-.8-.6 0-.9.5-1 1z" fill-rule="evenodd" clip-rule="evenodd" fill="#c77c30"/>
        <path d="M351.3 238.6c-1.9 0-3 1-3 2.7 0 1.8 1.5 3.2 3.4 3.2 1.5 0 3.2-1.5 3.2-2.7-.1-1.8-1.6-3.2-3.6-3.2z" fill-rule="evenodd" clip-rule="evenodd" fill="#c4782e"/>
        <path class="st36" d="M341.3 238.5c0 1 .6 1.5 1.4 1.6.6 0 1.1-.2 1.1-.9s-.6-1.5-1.3-1.5c-.7-.1-1.2.3-1.2.8zM331.1 240.8c-.9 0-1.3.4-1.3 1s.4 1 1 1 1.1-.2 1.2-1c-.1-.6-.4-.9-.9-1z"/>
        <path d="M345.2 199.2c-.1.2-.3.4-.4.6.9.3 1.5 1 2.3 1.4 1.5.8 3 1.6 4.7 1.8 0-.9-.5-1.4-1.3-1.8-1.1-.6-2.1-1.3-3.2-1.9-.6-.3-1.3-.4-2.1-.1z" fill-rule="evenodd" clip-rule="evenodd" fill="#c4772e"/>
        <path class="st38" d="M361.8 200.5c-.7-.8-1.3-.7-2.1-.1-.8.7-1.8 1.4-2.4 2.3 1.8-.2 3.2-1.1 4.5-2.2z"/>
        <path class="st33" d="M340.9 204c-.1.4-.3.8 0 1.2.4.5.8.7 1.4.5.5-.1.9-.3 1-.9.1-.7-.4-.9-.9-1.2-.3-.2-.6-.2-.9-.1-.2.1-.5.1-.6.5z"/>
        <path class="st38" d="M337 204.8c-1.9 0-3.7.1-5.5-.6.2.4.1.9.5 1.3.5.4 1.2.8 1.7.3.8-.8 1.7-.8 2.7-.8.2 0 .4-.2.6-.2z"/>
        <path d="M356.1 206.4c0-.7-.5-.9-1-.9s-1 .2-1.1.8c0 .6.3 1 .9 1 .6-.1 1.1-.3 1.2-.9z" fill-rule="evenodd" clip-rule="evenodd" fill="#c77b30"/>
        <path d="M325.5 199.4c-.6-1.4-.7-1.4-2.1-1 .8.3 1.4.7 2.1 1z" fill-rule="evenodd" clip-rule="evenodd" fill="#c0742e"/>
        <path d="M340.9 204c.2-.1.4-.3.6-.4l-.2-.2c-.3 0-.5.1-.6.4.1 0 .1.1.2.2z" fill-rule="evenodd" clip-rule="evenodd" fill="#dda549"/>
        <path d="M300.3 230.8c.3.3.7.3 1 0h-1z" fill-rule="evenodd" clip-rule="evenodd" fill="#bb7431"/>
      </g>
      <path class="st24" d="M318 229.9c-2.3.4-1.8.3-2.2 1.1-.3.8-.8 1.5-1.2 3.6-.4 2.1-3.9 2.7-4-1.4s.6-2.1-1-3.3c-1.6-1.2 2.6-1.4 3.2-1.4.6 0 3.9-.2 4.3 0 .5.2.9 1.4.9 1.4z"/>
    </g>
  </g>
  <path d="M251.1 117.7c4.3-5.5 18.4-.8 15 9.2-3 8.7-9.8 5-11.9 11.7-.9 2.7-5.3.1-2.4-3.7 2.9-3.8 10.1-1.9 12.2-8.7 2.1-6.8-6.9-10.6-10-6-1.7 2.7-4.7-.1-2.9-2.5zm-3.1 28.6c.8.9 2 1 2.9.5 1.4-.7 1.6-3 .5-4-.9-.8-2.6-.7-3.5.4-.5.9-.6 2.2.1 3.1z" fill="#0a6f9b" id="Camada_9"/>
  <path class="st44" d="M247.4 188.4c5.3.2 10.7 20 9.7 37.5-.5 7.8-2.1 14.2-3.6 18.6 2.1 4.4 1.6 9.1-1.1 12-2.8 2.9-7.3 3.4-8.8 2.3-5.9-4.4 3.7-10.9 4-11.3.4-.6-1.8.5-2.3 0-2.6-2.4 5.4-4.6 5.6-5 4.9-8.7 4.7-42-5.8-49.5-1.8-1.2-.3-4.7 2.3-4.6z" id="Camada_8"/>
  <g id="Camada_7">
    <path class="st45" d="M184.1 239.4c9.4 16.2-1.9 41.4 1.1 43.2 3 1.7 12.1 4.4 15.5 1 3.4-3.4-11.4-4.5-11.4-4.5 2.9-10.7 4.7-28.4 0-38.3"/>
    <path class="st46" d="M184.1 239.4c2.4 4.2 3.5 8.9 3.7 13.7 1.4.2 2.8.3 4.1.4-.3-4.8-1.1-9.2-2.7-12.7l-5.1-1.4z"/>
  </g>
  <g id="Camada_6">
    <path class="st45" d="M208.5 239.4c9.4 16.2-1.9 41.4 1.1 43.2s12.1 4.4 15.5 1c3.4-3.4-11.4-4.5-11.4-4.5 2.9-10.7 4.7-28.4 0-38.3"/>
    <path class="st46" d="M213.6 240.8l-5.1-1.4c2.2 3.7 3.2 7.9 3.6 12.2 1.4-.3 2.8-.7 4-1.1-.4-3.6-1.2-7-2.5-9.7z"/>
  </g>
  <g id="Camada_5">
    <path class="st47" d="M254.8 203.8c-4.4 26.7-44 53.6-85.1 29.7-41.9-24.3-18.9-88.5 19-96.1 38.9-7.7 73.6 21.7 66.1 66.4z"/>
    <path class="st48" d="M156.3 185.7c-4.8 2.2-4.4 13-3.2 18.9 1.8 8.6 8 19.6 14 18.9 5.7-.7 10.5-12.1 8.4-21.4-2.4-10.6-13.8-18.9-19.2-16.4zM157.6 171.9c-.4 1.5-1.4 4.9.4 7.1 2.7 3.4 11.3 2.7 13.9-2 2.8-5.1-2-13.2-6.5-13.4-3.6-.2-6.7 4.7-7.8 8.3zM229 148.7c2.1-.5 4.7 2.5 4.1 4.3-.6 1.8-4.7 2.6-5.9.9-1.2-1.5-.1-4.8 1.8-5.2zM236.6 156.1c3.3-1.9 10.7 10.4 13.9 25.5 3.8 17.8-6.3 39-8.5 38.1s8.9-16.2 5-35.5c-3.9-19.4-13.7-26.2-10.4-28.1z"/>
    <path class="st47" d="M229.9 144c-26.8-15.5-58.2-14.3-77.6 0s-3.5 4 .6 10.8c2.4 4-6.1 25.1-5.6 40.7 0 0 4.1-32.6 24.4-43.8 34.4-18.9 58.2-7.7 58.2-7.7z"/>
  </g>
  <g id="Camada_4">
    <path class="st44" d="M200.7 186.7c.1 2.6.7 5.6 3.5 5.6s3.4-3.3 3.3-6c-.1-2.5-1.6-4.9-3.3-4.9-1.8-.2-3.5 2.5-3.5 5.3zM235.2 186.7c-.1 2.6-.7 5.6-3.5 5.6s-3.4-3.3-3.3-6c.1-2.5 1.6-4.9 3.3-4.9 1.8-.2 3.6 2.5 3.5 5.3z"/>
  </g>
  <path class="st45" d="M158.8 192.8c-5-2.9-34.6 23.1-11.3 36 10.4 5.7 24-1.2 34.3-4.7 5.8.4 14.1-1.8 18-4.5 4-2.7 3.7-7.5 2.6-9.2-4.6-6.9-12.4 4.4-13.8 5.5-2.2 1.7.6-1.8-.2-2.1-3.8-1.6-6.9 7-9 8-42.6 20.6-50.7-17.6-19.7-23.4 5-1 1.5-4.2-.9-5.6z" id="Camada_3"/>
  <path class="st44" d="M202.8 201.3c1-1.3 16.9-.6 21.2-.1 2.4.2 1.3 2.3-2.8 2.1-13.1-.6-21 1.3-18.4-2z" id="Camada_2"/>
</svg>
