<svg xmlns="http://www.w3.org/2000/svg" viewBox="0 0 300 400">
  <style>
    .st1{fill:#1da0be}.st2{opacity:.5;fill:#1486ab}.st3{fill:#ed6666}.st4{fill:#f7a686}.st5{fill:#60c7e2}.st6{opacity:.5;fill:#cbf0f4}.st8{fill:#1486ab}
  </style>
  <ellipse cx="150.5" cy="313.2" rx="74.5" ry="8.6" opacity=".2" fill="#00374f" id="Camada_9"/>
  <g id="Camada_8">
    <path class="st1" d="M126.2 244.9c19.2 31.2-11.6 61-8.3 63.4 4.2 2.9 20 6.7 23.8.7 4.1-6.5-15.7-5.8-15.7-5.8 9.9-14 17.7-30.5 7.7-56.3"/>
    <path class="st2" d="M126.2 244.9c3.6 5.9 5.4 11.7 6.1 17.3 1.7.3 3.6.5 5.7.7-.6-4.9-2-10.2-4.2-16l-7.6-2z"/>
  </g>
  <g id="Camada_7">
    <path class="st1" d="M248.5 208.5c-25.2 19.8-31.7.1-37.3-27-.6-3-.2-6.8 3.5-6.7 7.8.3.6 10.9 10.4 32.7 4.7 10.4 17.1-1.7 19.5-1.7"/>
    <path class="st1" d="M248.5 208.5c7.1.7 13.3-2.4 15.9-7.5 2.6-5.2-1.7-8.4-4.2-9.4-8.3-3.4-7.1 3.8-8.5 6.6-1.4 2.8-3.3 2.3-3.5 2l-3.5-2.6c-1.5 2.5-.4 8-.8 8.4"/>
    <path transform="matrix(-.8083 -.5887 .5887 -.8083 343.5748 508.1186)" class="st3" d="M232 192.8h45.1v10.6H232z"/>
    <path class="st4" d="M261.2 221.5l3.4 2.4c.5.4 1.1.4 1.6.2l3.9-1.7c.7-.3 1.4-.8 1.8-1.4l8.9-12.2c.5-.6.7-1.4.8-2.2l.4-4.2c.1-.5-.2-1.1-.7-1.4l-3.4-2.4c-.7-.5-1.6-.4-2.1.2l-15.2 20.8c-.3.5-.1 1.4.6 1.9zM247 175.9l-3.4-2.4c-.5-.4-1.1-.4-1.6-.2l-3.9 1.7c-.7.3-1.4.8-1.8 1.4l-8.9 12.2c-.5.6-.7 1.4-.8 2.2l-.4 4.2c-.1.5.2 1.1.7 1.4l3.4 2.4c.7.5 1.6.4 2.1-.2l15.2-20.8c.3-.4.1-1.4-.6-1.9z"/>
    <path class="st1" d="M249 200.7c-1.1-1.9 5.8-8.5 1.6-9.1-1.6-.2-4.4 2-6.3 5.7-1.9 3.7 0 8.5-1.8 9.5 0 0-1.3 3.9 3.2 3.9 1.5-1.3 2.9-2.6 2.9-2.6l.4-7.4z"/>
  </g>
  <g id="Camada_6">
    <path class="st1" d="M161.8 244.9c19.2 31.2-11.6 61-8.3 63.4 4.2 2.9 20 6.7 23.8.7 4.1-6.5-15.7-5.8-15.7-5.8 9.9-14 17.7-30.5 7.7-56.3"/>
    <path class="st2" d="M169.3 247l-7.5-2c3.6 5.9 5.5 11.8 6.1 17.5 1.9-.3 3.7-.8 5.4-1.3-.8-4.5-2-9.2-4-14.2z"/>
  </g>
  <g id="Camada_5">
    <path class="st5" d="M229.5 193c-6.5 38.9-64.3 78.2-124.2 43.4C44.1 201 77.7 107.3 132.9 96.2c56.9-11.4 107.5 31.5 96.6 96.8z"/>
    <path class="st6" d="M85.7 166.6c-7 3.2-6.5 19-4.6 27.6 2.6 12.5 11.7 28.7 20.4 27.6 8.3-1 15.3-17.7 12.2-31.3-3.5-15.4-20.2-27.5-28-23.9zM87.6 146.4c-.6 2.1-2 7.1.5 10.3 4 4.9 16.5 3.9 20.3-3 4.1-7.4-2.9-19.2-9.5-19.5-5.2-.2-9.8 6.9-11.3 12.2zM191.8 112.5c3-.7 6.8 3.7 6 6.2-.9 2.6-6.8 3.8-8.7 1.4-1.7-2.2-.1-7 2.7-7.6zM202.9 123.3c4.8-2.8 15.7 15.2 20.3 37.2 5.6 26-9.2 56.9-12.5 55.6-3.3-1.3 13-23.6 7.3-51.8s-19.9-38.2-15.1-41z"/>
    <path class="st5" d="M193.1 105.6c-39.1-22.6-85-20.9-113.2 0s-5 5.9.9 15.7c3.5 5.9-8.9 36.6-8.2 59.4 0 0 6-47.7 35.6-63.9 50.1-27.5 84.9-11.2 84.9-11.2z"/>
    <path d="M80.7 142.2c-2.9 6.4-5.1 13.1-6.5 20 63.5-16.6 139.7-11.5 154.8-5.2-1.2-5.7-2.9-11-5-16-1.1-2-2-3.1-2-3.1s-69.5-18.2-141.3 4.3z" opacity=".5" fill="#1da0be"/>
    <path class="st3" d="M72.2 158.6c65.1-17.6 144.7-11.9 157.8-5.4-2.5-12.6-7.8-19.5-7.8-19.5s-72.1-18.8-145.3 5.6c-1.6 1.5-4.7 19.3-4.7 19.3z"/>
  </g>
  <g id="Camada_4">
    <path class="st8" d="M150.5 167.9c.1 3.8 1.1 8.1 5.2 8.1s4.9-4.8 4.7-8.8c-.1-3.6-2.4-7.2-4.9-7.2-2.6 0-5.1 3.9-5 7.9zM200.8 167.9c-.1 3.8-1.1 8.1-5.2 8.1s-4.9-4.8-4.7-8.8c.1-3.6 2.4-7.2 4.9-7.2 2.6 0 5.1 3.9 5 7.9z"/>
  </g>
  <g id="Camada_3">
    <path class="st1" d="M150.5 189.5c-7 5.4-3.8 11.3 3.4 10.6s6.5-8.1 6.5-8.1"/>
    <path class="st8" d="M149.9 185.8c1.4-.6 13.2 4.6 34.5 3.4 3.5-.2 1.9 2.6-4.2 3-26.3 1.7-35.9-4.1-30.3-6.4z"/>
  </g>
  <g id="Camada_2">
    <path transform="matrix(.8083 -.5887 .5887 .8083 -107.6607 65.5623)" class="st3" d="M24.3 192.8h45.1v10.6H24.3z"/>
    <path class="st4" d="M40.2 221.5l-3.4 2.4c-.5.4-1.1.4-1.6.2l-3.9-1.7c-.7-.3-1.4-.8-1.8-1.4l-8.9-12.2c-.5-.6-.7-1.4-.8-2.2l-.4-4.2c-.1-.5.2-1.1.7-1.4l3.4-2.4c.7-.5 1.6-.4 2.1.2l15.2 20.8c.3.5.1 1.4-.6 1.9zM54.4 175.9l3.4-2.4c.5-.4 1.1-.4 1.6-.2l3.9 1.7c.7.3 1.4.8 1.8 1.4l8.9 12.2c.5.6.7 1.4.8 2.2l.4 4.2c.1.5-.2 1.1-.7 1.4l-3.4 2.4c-.7.5-1.6.4-2.1-.2L53.9 178c-.4-.6-.2-1.6.5-2.1z"/>
    <path class="st1" d="M52.9 208.5c25.2 19.8 31.7.1 37.3-27 .6-3 .2-6.8-3.5-6.7-7.8.3-.6 10.9-10.4 32.7-4.7 10.4-17.1-1.7-19.5-1.7"/>
    <path class="st1" d="M56.8 205.9c-.3-.4 1.3-5.7-.2-8.3l-3.5 2.6c-.1.3-2.1.7-3.5-2-1.4-2.8-.3-10-8.5-6.6-2.5 1-6.8 4.2-4.2 9.4 2.6 5.2 8.9 8.2 15.9 7.5"/>
  </g>
</svg>
