<?xml version="1.0" encoding="utf-8"?>
<!-- Generator: Adobe Illustrator 21.0.0, SVG Export Plug-In . SVG Version: 6.00 Build 0)  -->
<svg version="1.0" id="Camada_1" xmlns="http://www.w3.org/2000/svg" xmlns:xlink="http://www.w3.org/1999/xlink" x="0px" y="0px"
	 viewBox="0 0 266 255.3" style="enable-background:new 0 0 266 255.3;" xml:space="preserve">
<style type="text/css">
	.st0{opacity:0.2;fill:#00374F;enable-background:new    ;}
	.st1{fill:#60C7E2;}
	.st2{fill:#0C97C1;}
	.st3{opacity:0.5;fill:#CBF0F4;enable-background:new    ;}
</style>
<g>
	<g id="Camada_7">
		<ellipse class="st0" cx="188.4" cy="251.4" rx="33.5" ry="3.9"/>
		<ellipse class="st0" cx="87.7" cy="251.4" rx="33.9" ry="3"/>
	</g>
	<g id="Camada_2">
		<path class="st1" d="M69.1,239.4c-2.6,0-5.2-0.7-7.6-2c-7.3-4.2-9.8-13.5-5.6-20.8l105-181.8c4.2-7.3,13.5-9.8,20.8-5.6
			c7.3,4.2,9.8,13.5,5.6,20.8l-105,181.8C79.5,236.7,74.4,239.4,69.1,239.4L69.1,239.4z M54.7,136.5c-9.5,0-18.8-2.5-27.3-7.4
			C14.7,121.8,5.7,110,1.9,95.9c-7.8-29.1,9.5-59.2,38.7-67c29.1-7.8,59.2,9.5,67,38.7c3.8,14.1,1.8,28.9-5.5,41.5
			c-7.3,12.7-19.1,21.7-33.2,25.5C64.2,135.9,59.4,136.5,54.7,136.5z M48.5,58.4c-12.9,3.5-20.6,16.8-17.1,29.7
			c1.7,6.2,5.7,11.5,11.3,14.7c5.6,3.2,12.1,4.1,18.4,2.4c6.2-1.7,11.5-5.7,14.7-11.3s4.1-12.1,2.4-18.4
			C74.7,62.6,61.4,54.9,48.5,58.4L48.5,58.4z M188.4,239.4c-24.1,0-46.3-16.1-52.8-40.5c-3.8-14.1-1.8-28.9,5.5-41.5
			c7.3-12.7,19.1-21.7,33.2-25.5c14.1-3.8,28.8-1.8,41.5,5.5s21.7,19.1,25.5,33.2c7.8,29.1-9.5,59.2-38.7,67
			C197.9,238.8,193.1,239.4,188.4,239.4z M188.5,160.5c-2.1,0-4.2,0.3-6.3,0.8c-6.2,1.7-11.5,5.7-14.7,11.3s-4.1,12.1-2.4,18.4
			c3.5,12.9,16.8,20.6,29.7,17.1s20.6-16.8,17.1-29.7c-1.7-6.2-5.7-11.5-11.3-14.7C196.8,161.6,192.7,160.5,188.5,160.5L188.5,160.5
			z"/>
	</g>
	<g id="Camada_9">
		<path class="st2" d="M61.5,237.4c2.4,1.4,5,2,7.6,2c5.3,0,10.4-2.7,13.2-7.6L165.9,87c-7.2,3.3-15.3,5.8-25.3,5.8
			c-4.8,0-8.9-0.4-12.6-1.2L55.9,216.5C51.7,223.8,54.2,233.1,61.5,237.4z M27.4,129.2c8.4,4.9,17.8,7.4,27.3,7.4
			c4.8,0,9.5-0.6,14.2-1.9c14.1-3.8,25.9-12.8,33.2-25.5c4.4-7.7,6.9-16.1,7.3-24.7c-8.5-4.6-16.7-10-30.4-12.8
			c-0.8-0.2-1.6-0.3-2.4-0.4c0.7,1.3,1.2,2.8,1.6,4.3c1.7,6.2,0.8,12.8-2.4,18.4c-3.2,5.6-8.5,9.6-14.7,11.3s-12.8,0.8-18.4-2.4
			s-9.6-8.5-11.3-14.7c-0.5-2-0.8-4-0.8-6c-6.5,2.6-12,4.4-16.1,3.4c-4.2-1.1-8.9-3.7-14.3-5.8C0,85.2,0.6,90.6,2,96.1
			C5.7,110.1,14.8,121.9,27.4,129.2L27.4,129.2z M188.4,239.4c-24.1,0-46.3-16.1-52.8-40.5c-3.8-14.1-1.8-28.9,5.5-41.5
			c7.3-12.7,19.1-21.7,33.2-25.5c14.1-3.8,28.8-1.8,41.5,5.5s21.7,19.1,25.5,33.2c7.8,29.1-9.5,59.2-38.7,67
			C197.9,238.8,193.1,239.4,188.4,239.4z M188.5,160.5c-2.1,0-4.2,0.3-6.3,0.8c-6.2,1.7-11.5,5.7-14.7,11.3s-4.1,12.1-2.4,18.4
			c3.5,12.9,16.8,20.6,29.7,17.1s20.6-16.8,17.1-29.7c-1.7-6.2-5.7-11.5-11.3-14.7C196.8,161.6,192.7,160.5,188.5,160.5L188.5,160.5
			z"/>
	</g>
	<path id="Camada_3" class="st2" d="M247.9,150.1c2.4-7.2,16.6-12.8,18-5.9C267.6,152.4,251.2,148,247.9,150.1z"/>
	<path id="Camada_4" class="st2" d="M241.1,146c-7.6-13,6.1-29.2,13.2-20.6C259.3,131.3,244.5,133.9,241.1,146z"/>
	<path id="Camada_5" class="st2" d="M101.7,27.1c-2.4-7.2-16.6-12.8-18-5.9C82,29.5,98.4,25,101.7,27.1z"/>
	<path id="Camada_6" class="st2" d="M108.5,23c7.6-13-6.1-29.2-13.2-20.6C90.3,8.3,105.2,10.9,108.5,23z"/>
	<g id="Camada_8">
		<path class="st3" d="M13.7,96.3c-4.6,1.3-1.8,16.8,16.8,27.7c0,0,16.7,11.1,36.9,6c1.2-0.3,6.7-2.5,6.9-4c0.2-1.9-2-4.9-5.3-4.5
			c-13.6,1.9-16.7,5.9-30.9-0.3c-13.2-5.7-14.9-9.8-18.8-21.1C18.4,97.8,16.8,95.4,13.7,96.3L13.7,96.3z M48.2,33
			c3.8-5.8,28.2-1.7,43.2,13.9c10.9,11.4,17.1,27.6,13.1,30.5c-3.3,2.4-6.3,1.4-8.3-2c-3-5.2,1-12.2-5.3-19.4
			C65,26.2,54.7,45,47.8,38.1C47.4,37.6,46.8,35.1,48.2,33L48.2,33z M41.4,33.8c-2.7-0.6-5.8,1.4-6.8,3.3c-1.8,3.4,1.9,8,5,8.1
			c3.1,0,6.6-4.4,5.4-8C44.8,36.7,44,34.3,41.4,33.8z M75.1,121.4c-0.2-0.4-2-3.7-0.6-5.9c1.9-3.3,9.3-3.2,11.1,0
			c1.8,3.2-2.2,9.7-5.9,9.6C77.2,125,75.4,122,75.1,121.4L75.1,121.4z M146.9,200.1c-4.6,1.3-1.8,16.8,16.8,27.7
			c0,0,16.7,11.1,36.9,6c1.2-0.3,6.7-2.5,6.9-4c0.2-1.9-2-4.9-5.3-4.5c-13.6,1.9-16.7,5.9-30.9-0.3c-13.2-5.7-14.9-9.8-18.8-21.1
			C151.5,201.6,149.9,199.2,146.9,200.1L146.9,200.1z M181.4,136.8c3.8-5.8,28.2-1.7,43.2,13.9c10.9,11.4,17.1,27.6,13.1,30.5
			c-3.3,2.4-6.3,1.4-8.3-2c-3-5.2,1-12.2-5.3-19.4c-25.9-29.8-36.2-11-43.1-17.9C180.6,141.4,180,138.9,181.4,136.8L181.4,136.8z
			 M174.6,137.5c-2.7-0.6-5.8,1.4-6.8,3.3c-1.8,3.4,1.9,8,5,8.1c3.1,0,6.6-4.4,5.4-8C178,140.5,177.1,138.1,174.6,137.5L174.6,137.5
			z M208.3,225.2c-0.2-0.4-2-3.7-0.6-5.9c1.9-3.3,9.3-3.2,11.1,0s-2.2,9.7-5.9,9.6C210.3,228.8,208.6,225.7,208.3,225.2z
			 M61.3,215.6c-3,0.7-5.3,8-2.7,13.4c2.6,5.7,9.3,6.6,10.3,6.7c2.6,0.3,7.6,0.1,9-2.7c0.7-1.4,0.6-3.3-0.3-3.9
			c-1-0.6-2.4,1.1-5.1,1.9c-3,1-7.6,1-9.1-1.1c-2.3-3.2,3.9-9.4,1.3-12.9C63.8,216,62.4,215.3,61.3,215.6L61.3,215.6z M63.4,211.3
			c0.7,1.3,2.1,2.2,3.7,2.3c2.8,0.1,5.7-3,5-6.1c-0.5-2.4-3.1-4.2-5.3-3.8C63.7,204.2,62,208.6,63.4,211.3L63.4,211.3z M181.7,50.7
			c3-0.7,5.3-8,2.7-13.4c-2.6-5.7-9.3-6.6-10.3-6.7c-2.6-0.3-7.6-0.1-9,2.7c-0.7,1.4-0.6,3.3,0.3,3.9c1,0.6,2.4-1.1,5.1-1.9
			c3-1,7.6-1,9.1,1.1c2.3,3.2-3.9,9.4-1.3,12.9C179.1,50.3,180.6,51,181.7,50.7z M179.5,55c-0.7-1.3-2.1-2.2-3.7-2.3
			c-2.8-0.1-5.7,3-5,6.1c0.5,2.4,3.1,4.2,5.3,3.8C179.3,62.1,181,57.7,179.5,55z"/>
	</g>
</g>
</svg>
