<svg xmlns="http://www.w3.org/2000/svg" viewBox="0 0 300 400">
  <style>
    .st1{fill:#1da0be}.st2{opacity:.5;fill:#1486ab}.st3{fill:#60c7e2}.st4{opacity:.5;fill:#cbf0f4}.st5{fill:#1486ab}.st6{fill:#a6b5bc}.st9{opacity:.5;fill:#fff}.st11,.st15{fill-rule:evenodd;clip-rule:evenodd;fill:#f5fcff}.st15{fill:#1da0be}.st17{fill:#fff}.st18{fill:#e4eaed}.st20{fill:#8c6239}.st22{fill:#f68f1e}.st23{fill:#f9ba19}
  </style>
  <ellipse cx="154.3" cy="282.6" rx="49.1" ry="5.7" opacity=".2" fill="#00374f" id="sombra"/>
  <g id="perna2">
    <path class="st1" d="M158.8 238.5c9.1 15.5-1.9 39.8 1 41.5 2.9 1.7 11.6 4.2 14.9.9 3.3-3.3-11-4.3-11-4.3 2.8-10.3 4.5-27.3 0-36.8"/>
    <path class="st2" d="M163.7 239.9l-4.9-1.3c2.1 3.6 3.1 7.6 3.5 11.8 1.4-.3 2.7-.7 3.9-1-.5-3.6-1.2-6.9-2.5-9.5z"/>
  </g>
  <g id="perna1">
    <path class="st1" d="M135.3 238.5c9.1 15.5-1.9 39.8 1 41.5 2.9 1.7 11.6 4.2 14.9.9 3.3-3.3-11-4.3-11-4.3 2.8-10.3 4.5-27.3 0-36.8"/>
    <path class="st2" d="M135.3 238.5c2.3 4 3.3 8.6 3.6 13.2 1.3.2 2.7.3 4 .4-.3-4.6-1.1-8.9-2.6-12.2l-5-1.4z"/>
  </g>
  <path class="st1" d="M196.1 189.5c5.1.2 10.2 19.2 9.3 36-.4 7.5-2 13.6-3.4 17.8 2 4.2 1.5 8.8-1.1 11.6-2.7 2.8-7.1 3.3-8.5 2.2-5.7-4.3 3.6-10.5 3.8-10.9.4-.6-1.7.5-2.2 0-2.5-2.3 5.1-4.4 5.4-4.8 4.7-8.3 4.5-40.3-5.6-47.6-1.6-1-.1-4.4 2.3-4.3z" id="braco2"/>
  <g id="corpo">
    <path class="st3" d="M203.3 204.4C199 230 161 255.9 121.5 233c-40.3-23.4-18.1-85.1 18.2-92.3 37.5-7.6 70.8 20.6 63.6 63.7z"/>
    <path class="st4" d="M108.6 186.9c-4.6 2.1-4.3 12.5-3.1 18.2 1.7 8.3 7.7 18.9 13.4 18.2 5.5-.7 10.1-11.7 8-20.6-2.1-10.2-13.1-18.1-18.3-15.8zM109.9 173.7c-.4 1.4-1.3 4.7.4 6.8 2.6 3.2 10.8 2.6 13.4-2 2.7-4.9-1.9-12.7-6.3-12.9-3.5-.1-6.5 4.6-7.5 8.1zM178.5 151.3c2-.5 4.5 2.4 3.9 4.1-.6 1.7-4.5 2.5-5.7.9-1.1-1.4 0-4.5 1.8-5zM185.8 158.5c3.2-1.8 10.3 10 13.4 24.5 3.7 17.1-6.1 37.5-8.2 36.6-2.2-.8 8.6-15.5 4.8-34.1s-13.2-25.2-10-27z"/>
    <path class="st3" d="M179.4 146.8c-25.8-14.9-56-13.8-74.6 0-18.6 13.8-3.3 3.9.6 10.4 2.3 3.9-5.9 24.1-5.4 39.1 0 0 3.9-31.4 23.4-42.1 33-18.1 56-7.4 56-7.4z"/>
  </g>
  <path class="st1" d="M111 193.7c-4.8-2.7-33.2 22.2-10.9 34.6 10 5.5 23.1-1.1 32.9-4.5 5.6.4 13.5-1.7 17.3-4.3 3.8-2.6 3.6-7.2 2.5-8.8-4.4-6.7-11.9 4.2-13.3 5.2-2.1 1.6.6-1.7-.2-2-3.6-1.6-6.6 6.7-8.6 7.7-40.9 19.8-48.7-16.9-19-22.5 5-1 1.6-4.1-.7-5.4z" id="braco1"/>
  <g id="olhos">
    <path class="st5" d="M151.3 187.8c.1 2.5.7 5.4 3.4 5.4s3.2-3.2 3.1-5.8c-.1-2.4-1.6-4.7-3.2-4.7-1.7-.1-3.4 2.5-3.3 5.1zM184.4 187.8c-.1 2.5-.7 5.4-3.4 5.4s-3.2-3.2-3.1-5.8c.1-2.4 1.6-4.7 3.2-4.7 1.7-.1 3.4 2.5 3.3 5.1z"/>
  </g>
  <path class="st5" d="M153.3 202c1-1.2 16.2-.5 20.4-.1 2.3.2 1.3 2.2-2.7 2-12.6-.6-20.2 1.2-17.7-1.9z" id="boca"/>
  <g id="lata">
    <path class="st6" d="M287.3 204.4c.7 1 .6 2-.6 2.5l-25.2 12c-1.2.6-2 0-2.3-1.2l28.1-13.3z"/>
    <path d="M259.3 146.8l-27.2 13c1.3 2.7-1.4 6.3.9 11l21.2 44.5c1.2 2.5 4.1 2.9 5 2.5l28.1-13.4c.9-.4 2.5-3 1.3-5.5l-21.2-44.5c-2.3-4.6-6.8-4.9-8.1-7.6z" fill="#bdccd4"/>
    <path class="st6" d="M258.4 145l-27.2 13c-.5.2-.7.8-.5 1.4.2.5.8.7 1.4.5l27.2-13c.5-.2.7-.8.5-1.4-.3-.5-.9-.7-1.4-.5z"/>
    <path transform="matrix(.9025 -.4308 .4308 .9025 -54.1972 130.362)" fill="#ed6666" d="M241.7 160.2h38.1v49.3h-38.1z"/>
    <path class="st9" d="M256.2 148.3c.5-.2.7-.8.5-1.4-.2-.5-.8-.7-1.4-.5l-2.9 1.4c.5-.2 1.1 0 1.4.5.2.5 0 1.1-.5 1.4 1.3 2.7 4.1 3.7 6.3 8.4l21.2 44.5c1.2 2.5 1.3 4.2.4 4.7.7 1 .6 2-.6 2.5l2.9-1.4c1.2-.6 1.3-1.6.6-2.5.9-.4 2.5-3 1.3-5.5l-21.2-44.5c-2.2-4.6-6.8-4.9-8-7.6z"/>
  </g>
  <g id="garrafa">
    <path class="st3" d="M56.8 78.3l16.6 5.5.6-1.8c1-2.9-.6-6.1-3.5-7l-6.1-2c-2.9-1-6.1.6-7 3.5l-.6 1.8z"/>
    <path transform="rotate(-161.64 64.64317693 82.46845395)" class="st1" d="M55.9 81h17.5v2.9H55.9z"/>
    <path d="M59.3 147.3c.6.2 1.3-.1 1.5-.7l2.5-7.7c2.9-8.8-2.5-10.5 6-21.4h-.1c1.6-1.7 3.1-4.3 3.9-6.9 1.9-5.9 1-12-2-16.4-2-3-1.3-5-.2-8.1l-13.2-4.4c-1 3.1-1.6 5.2-5 6.3-5.1 1.7-9.5 6.1-11.4 12-.9 2.6-1.2 5.5-1 7.9h-.1c.2 13.8-5.6 11.7-8.6 20.6l-2.5 7.7c-.2.6.1 1.3.7 1.5l29.5 9.6z" fill="#e4f0f5"/>
    <path class="st11" d="M65.7 123.9c.4.1.9-.2 1-.8.2-.6 0-1.1-.4-1.3l-26.7-8.9c-.4-.1-.9.2-1 .8s0 1.1.4 1.3l26.7 8.9zM38.3 117.1c-.4-.1-.9.2-1 .8-.2.6 0 1.1.4 1.3l26.7 8.9c.4.1.9-.2 1-.8s0-1.1-.4-1.3l-26.7-8.9z"/>
    <path d="M38.3 117.1c-.4-.1-.5-.7-.4-1.3s.7-.9 1-.8l26.7 8.9c.4.1.5.7.4 1.3-.2.6-.7.9-1 .8l-26.7-8.9z" fill-rule="evenodd" clip-rule="evenodd" fill="#e4f0f5"/>
    <path class="st3" d="M21.5 165l28.3 9.4c1 .3 2-.2 2.4-1.2l7.9-23.7c.3-1-.2-2-1.2-2.4l-28.3-9.4c-1-.3-2 .2-2.4 1.2l-7.9 23.7c-.3 1 .3 2.1 1.2 2.4z"/>
    <path d="M20.2 163l31.9 10.6L57 159c-2.8.5-7.5 2-13.5 2.5-6.4-5.7-9.5-11.1-11.3-11.7-1.1-.4-5 .6-8 1.5l-4 11.7z" fill="#26ae92"/>
    <path d="M20.8 164.8l29.9 9.9c.6.2 1.2-.1 1.3-.7l2.4-7.4c-1.9-.2-6.9-.2-12.6-.2-4.8-3.5-8.9-6.6-10.4-7.5-2.5-1.5-6.4-1.7-9.2-1.6l-2 6.1c-.3.6 0 1.2.6 1.4z" fill="#3cce9e"/>
    <path class="st15" d="M60.1 149.4l-31.9-10.6c.3-.9 1.2-1.3 2.1-1.1l28.7 9.5c1 .3 1.4 1.3 1.1 2.2zM50.1 174.5L21.4 165c-.9-.3-1.3-1.2-1.1-2.1l31.9 10.6c-.3.8-1.3 1.3-2.1 1z"/>
    <path d="M17.3 171.7l2-6.2c.2-.6.9-.9 1.5-.7l29.7 9.8c.6.2.9.9.7 1.5l-1.7 5.1c-1.2 3.5-5 5.4-8.5 4.3l-.7-.2c.3-.9-.2-1.8-1.1-2.1-.9-.3-1.8.2-2.1 1.1l-11.5-3.8c.3-.9-.2-1.8-1.1-2.1s-1.8.2-2.1 1.1l-1.8-.6c-2.6-1.2-4.2-4.3-3.3-7.2z" fill="#f5fcff"/>
  </g>
  <g id="xicara">
    <ellipse transform="matrix(.0467 -.9989 .9989 .0467 -71.4733 540.8432)" class="st17" cx="247.6" cy="307.9" rx="10" ry="30.5"/>
    <path class="st18" d="M269 301.6c-5.4-2-12.7-3.4-20.9-3.7-8.1-.4-15.6.3-21.1 1.8.8 5.1 9.6 9.6 20.6 10.1 10.9.4 20.1-3.2 21.4-8.2z"/>
    <ellipse transform="matrix(.0467 -.9989 .9989 .0467 -71.4733 540.8432)" cx="247.6" cy="307.9" rx="5.2" ry="19.7" fill="none" stroke="#bdccd4" stroke-miterlimit="10"/>
    <path class="st18" d="M273.6 289.6c-1.5.4-2.5.5-2.6.5-.9.1-1.7-.5-1.8-1.4-.1-.9.5-1.7 1.4-1.8.1 0 10.8-1.4 12.2-9.4.6-3.7-.2-6.4-2.2-7.2-2.1-.9-5.2.1-6.9 2.4-.5.7-1.5.8-2.2.3-.7-.5-.8-1.5-.3-2.2 2.7-3.4 7.3-4.9 10.7-3.3 1.6.7 5.3 3.2 4.1 10.7-1.4 7.4-8.4 10.3-12.4 11.4z"/>
    <path class="st17" d="M220.8 280.8c5.8 21.7 19.2 26.3 33.6 22.5 14.4-3.8 23.2-16.8 18.1-36.2"/>
    <ellipse transform="rotate(-14.828 246.62992166 273.95615778)" class="st17" cx="246.6" cy="274" rx="26.7" ry="8.4"/>
    <path class="st20" d="M245.6 267.5c-.1 0-.2 0-.3.1-.1 0-.2.1-.3.1-12.2 3.2-20.2 8.2-22.1 11.2-.3.6-.5 1.1-.4 1.4.7 2.5 11.1 3.7 25.4 0 .1 0 .2-.1.3-.1 12.2-3.2 20.2-8.2 22.1-11.2-2.8-2-12.2-3.4-24.7-1.5z"/>
  </g>
  <g id="suco">
    <path d="M61.8 258.6c-9.9 3.4-17.4 7.7-16.7 9.7l20.1 58.9c.7 2 9.2.8 19.1-2.5 9.9-3.4 17.4-7.7 16.7-9.7l-20-59c-.7-1.9-9.3-.8-19.2 2.6z" fill="#ebf7de"/>
    <path class="st22" d="M96.8 312.3l-8.5-24.9c0 1.7-7.4 3.1-16.6 3.1-8.5 0-15.4-1.2-16.5-2.7L67 322.4l.2.5c.6 1.6 7.7.7 15.9-2.1s14.4-6.4 13.9-8l-.2-.5z"/>
    <path class="st23" d="M88.2 287l.1.4c0-.1-.1-.2-.1-.4zM55.2 287.8l-.1-.4c0 .2 0 .3.1.4z"/>
    <ellipse class="st23" cx="71.7" cy="287.4" rx="16.6" ry="3.1"/>
    <path d="M45.2 268.3c.7 2 9.2.8 19.1-2.5 9.9-3.4 17.4-7.7 16.7-9.7-.7-2-9.2-.8-19.1 2.5-10 3.3-17.4 7.7-16.7 9.7z" fill="#daf0c0"/>
    <path class="st9" d="M72.5 262.4l20.8 58.7 2.3-1.2L75.2 261z"/>
  </g>
  <g id="laranja">
    <path d="M96 269.5c-5.3 6-14.5 6.5-20.5 1.2s-6.5-14.5-1.2-20.5c1-1.1 2-2 3.2-2.7 3.8-2.3 10.3-.9 15.4 3.6 4.9 4.4 7.1 10.2 5.6 14.3-.2.4-.4.9-.6 1.3-.5 1-1.1 1.9-1.9 2.8z" fill="#f9a11b"/>
    <path class="st23" d="M97.3 267.6c-3.5 3.9-11 2.8-16.9-2.4-5.9-5.2-7.8-12.6-4.3-16.5.4-.5.9-.9 1.5-1.2 3.8-2.3 10.3-.9 15.4 3.6 4.9 4.4 7.1 10.2 5.6 14.3-.2.4-.4.9-.6 1.3-.3.3-.5.6-.7.9z"/>
    <ellipse transform="rotate(-48.333 86.65635426 258.1906425)" cx="86.7" cy="258.2" rx="9.2" ry="13.8" fill="#fcf4b6"/>
    <path class="st23" d="M85.7 257.5l-10.1-4c.1-1.4.6-2.8 1.5-3.8.4-.4.9-.8 1.4-1.1l7.2 8.9zM86.3 257.2L80 248c2-.6 4.5-.4 7 .6l-.7 8.6zM85.7 258.1l-7.5 3.2c-1.6-2.3-2.6-4.8-2.6-7l10.1 3.8zM95.1 255.1l-7.9 2.5 1.6-8.2c1.2.6 2.4 1.5 3.5 2.5s2 2 2.8 3.2zM85.5 267.4c-1.5-.7-3-1.7-4.5-2.9-.8-.7-1.6-1.5-2.2-2.3l7.4-3.3-.7 8.5zM97.7 262.9l-10-4.6 8-2.4c1.4 2.4 2.1 4.8 2 7zM93.4 268.4c-2 .6-4.5.4-7-.6l.6-8.7 6.4 9.3zM96.2 266.6c-.6.6-1.3 1.1-2.1 1.5l-6.6-9.2 10 4.7c-.1 1.2-.6 2.2-1.3 3z"/>
    <path class="st22" d="M75.7 267.3c-2.4-2.1-4.1-4.7-5-7.4 0 4 1.6 7.9 4.9 10.8 6 5.3 15.1 4.8 20.5-1.2-6 3.8-14.4 3.1-20.4-2.2z"/>
  </g>
  <g id="cafe">
    <path class="st20" d="M245.3 267.6c-14.6 2.3-25.6 2.3-25.5 4.9.1 2 6.9-1 8.1-.3 3.1 1.8-5.7 1.7-9.1 5s7.4 5.2 9.1 5.3"/>
    <path class="st20" d="M245.6 267.5c-.1 0-.2 0-.3.1-.1 0-.2.1-.3.1-12.2 3.2-20.2 8.2-22.1 11.2-.3.6-.5 1.1-.4 1.4.7 2.5 11.1 3.7 25.4 0 .1 0 .2-.1.3-.1 12.2-3.2 20.2-8.2 22.1-11.2-2.8-2-12.2-3.4-24.7-1.5zM218.2 273.3c-1.4.1-2.4.9-2.3 1.4 0 .7 1.5 1.5 2.3 1 .5-.3.7-1.5 0-2.4z"/>
    <path d="M224.8 275.8c-.2-.4-4.4 1-4.3 2.2 0 .9 2.1 2 11.1 3.1 0 0 .9 0 .9-.1 0-.2-6-1.9-9-2.2-.2 0-.6-.1-.8-.3-.4-.8 2.3-2.4 2.1-2.7z" fill="#a67c52"/>
  </g>
</svg>
