<svg xmlns="http://www.w3.org/2000/svg" viewBox="0 0 400 400">
  <style>
    .st0{opacity:.2}.st1{fill:#1da0be}.st2{opacity:.6;fill:#fff}.st3{fill:#3b4449}.st4{fill:#ed6666}.st5{fill:#f7a686}.st6{fill:#ffe999}.st7{fill:#60c7e2}.st8{opacity:.5;fill:#cbf0f4}.st9{fill:#1486ab}.st10{fill:none;stroke:#fff;stroke-width:4;stroke-linecap:round;stroke-linejoin:round;stroke-miterlimit:10}
  </style>
  <g id="Camada_17">
    <ellipse class="st0" cx="275.2" cy="372.5" rx="62.1" ry="7.2"/>
    <ellipse class="st0" cx="97.8" cy="372.5" rx="62.1" ry="7.2"/>
  </g>
  <path class="st1" d="M186.9 233.4c-20.2 19.7-22.8 23.2 1 41.8-4.2.9-16 2.1-11.7 8.7 4.2 6.6 19.6 2.9 19.1-5.8s-15.3-11.6-17.1-19.7c-1.8-8.1 4.6-11.2 8.4-16.9.3-2.6.2-5.4.3-8.1z" id="Camada_16"/>
  <g id="Camada_15">
    <path class="st2" d="M274.4 321.2l-33-34.1 5.3-6.4 20.6-7.8h10.2zM232.1 344.8l42.3-23.6-10.7 46.2z"/>
    <path class="st3" d="M326 318.7c1.6 28-20.8 53.3-49.6 53.8-29 .5-52.5-24.4-51.4-52.7 1-26.7 23.5-49 50.9-48.8 26.7.1 48.6 21.7 50.1 47.7zM276.1 277c-24.4-.3-44.6 20.6-44.4 44.9.2 23.7 19.7 43.8 43.3 44.1 25.3.3 45.7-22.3 44.4-47-1.2-22.5-20-41.8-43.3-42z"/>
  </g>
  <g id="Camada_14">
    <path class="st2" d="M96.7 321.2l-32.9-34.1 5.2-6.4 20.7-7.8h10.2zM54.5 344.8l42.2-23.6-10.6 46.2z"/>
    <path class="st3" d="M147.8 316.2c2.8 29.7-22.3 57.4-52.9 56.3-29-1-52-27.3-49.3-56.1 2.4-25.5 24.3-46.5 51.1-46.5 27 0 48.8 21.2 51.1 46.3zm-50.7-40.5c-23.6.4-42.9 19.6-43.9 42.7-1.1 24.8 19.1 46.1 43.5 46.7 26.4.6 48-23.3 45.5-49.1-2.1-22.2-21.5-40.7-45.1-40.3z"/>
  </g>
  <g id="Camada_13">
    <path class="st4" d="M119.6 228.5c5.8 10.3 18.2 18 36.6 18.6l1-4c-13.1-1.4-29.3-8-34.5-17.7l-3.1 3.1zM272.6 313.1l-50.5-48.5-1.9 6.2 48.5 46.6zM197.3 309l-67.7-24.7-4.4 5.2 67.6 23.9z"/>
    <path class="st4" d="M220.2 272.9l-89.4-2.3.6-6 90.3 2.2z"/>
    <path class="st4" d="M138.9 240.8c-4.8 49.6-21.8 73.5-42.2 82.9-2.2 1-5.1-1.8-2-4.9 3.1-3.1 27.3-8 38.1-78M229.8 254.2L204.3 309h-5.4l24.2-54.8z"/>
    <g>
      <path class="st4" d="M194.1 311.3L180 292.1l4.7-1.5 13.3 18.6z"/>
      <path class="st3" d="M173.4 292.5h17.5s2.4.2 2.4-3.2-2.9-3-2.9-3h-16.8s-1.8.2-1.8 3.1c.1 2.9 1.6 3.1 1.6 3.1z"/>
      <path class="st5" d="M275.2 311.1c4.4.4 8.4 3.8 8.7 8.1.3 4.5-2.8 8.3-7.3 9.6-4.5 1.4-66.1 4.2-77 4.2-10.9 0-16.2-7.5-16.6-16.3-.4-8.6 4.4-16.3 14.2-17.8s54.7 10.1 78 12.2z"/>
      <path class="st4" d="M203.3 317.4l14.1 19.2-4.8 1.5-13.2-18.6z"/>
      <path class="st3" d="M223.9 336.1l-17.5.2s-2.4-.2-2.4 3.2c0 3.4 2.9 3 2.9 3l16.8-.1s1.8-.2 1.8-3.1-1.6-3.2-1.6-3.2z"/>
      <path class="st6" d="M187.2 317.4c1 6.7 7.4 11.5 14.3 11 7.2-.6 12.4-6.7 12.2-13.1-.2-7.5-7.6-13.6-15.4-12.4-6.8 1-12 7.4-11.1 14.5z"/>
    </g>
    <g id="Camada_12">
      <path class="st6" d="M280.4 319.3c.2 2.9-2.2 5.6-5.2 5.6-2.7 0-5.1-2.2-5.2-4.9-.2-3 2.2-5.7 5.2-5.7 2.7.1 5 2.3 5.2 5z"/>
    </g>
    <g>
      <path class="st5" d="M248.8 249c-.2 3.9-4.1 6.8-9.1 8.7-3.9 1.4-7.4 1-10.1.8-8.3-.8-21-1.8-24.9-2.5-2.5-.4-3.3-2.8-2.9-4.6.4-1.8 1.4-3 4.1-2.7 8.3.9 10.8 1.4 24.3 2.7 6.8.7 9.9-3.1 11.9-5.4 1.6-2 7-1.7 6.7 3zM158.2 248.9c2 .6 11.9 3.6 16.8 5.1 4.8 1.5 6.4-5 1.5-6.5s-14.5-4.4-16.1-4.9c-4.4-1.4-6.2 5.1-2.2 6.3zM103.9 215.7c1.6 1.4 9.3 8.3 13.1 11.7 3.8 3.4 7.9-1.8 4.1-5.2-3.8-3.4-11.3-10.1-12.5-11.2-3.5-3.2-7.8 1.9-4.7 4.7z"/>
    </g>
  </g>
  <path class="st1" d="M217.6 245.4c-13.9 23.7 1.1 54.9-.9 59.6-1.7 4.1-7 20.8-12.1 15.8s5.4-17.1 5.4-17.1c-4.3-15.8-6.8-41.8 0-56.3" id="Camada_9"/>
  <path class="st1" d="M121.2 221.1c6.7-.7 16.3-2.3 27-6.5 23.9-9.2 47.2-28.4 44.2-35.6-1.4-3.5-7-3.4-7.6-.4-3.7 18.5-48.1 39-62.7 37.7 0 0-6-5.3-11.9-6.4-5.9-1.1-8.1 1.2-8.9 5.9-.6 3.9 1.5 6.6 3.8 7.5s7.8 2 9 1.1c1.4-.9 2.2-5.1 7.1-3.3z" id="Camada_8"/>
  <g id="Camada_7">
    <path class="st7" d="M132.3 171.6c-5.5 39.3 38.2 94.4 106.2 79 69.4-15.7 65.3-115.7 15.6-143-51.1-28-112.5-2-121.8 64z"/>
    <path class="st8" d="M278.3 189.4c5.8 5.2.5 20.2-3.9 27.9-6.3 11.2-19.9 24-27.9 20.4-7.7-3.5-9.4-21.6-2.3-33.7 8.1-13.8 27.7-20.4 34.1-14.6zM282.6 169.5c-.1 2.2-.2 7.5-3.6 9.7-5.3 3.5-17-1.2-18.6-9-1.7-8.3 8.6-17.6 15-15.9 5 1.4 7.3 9.7 7.2 15.2zM192.8 105.6c-2.7-1.6-7.7 1.5-7.6 4.2 0 2.8 5.4 5.7 7.9 3.9 2.2-1.6 2.1-6.7-.3-8.1zM178.8 112.7c-3.8-4.1-19.6 9.9-30.7 29.6-13.2 23.3-8.3 57.4-4.7 57.1s-5.4-26.6 8.5-51.9c14-25.5 30.7-30.7 26.9-34.8z"/>
    <path class="st7" d="M193.5 98.6c44.4-9.9 87.9 5.5 108.7 34s3.1 7.1-5.6 14.8c-5.2 4.6-2.4 37.8-10 59.5 0 0 8.6-47.5-14.9-72.1-39.9-41.4-78.2-36.2-78.2-36.2z"/>
  </g>
  <path class="st9" d="M227.9 193.9c-9.2 19.5-39.8 17-49.6-9-1.2-3.3 15.5 14.2 46.2-6 3-2.1 5.5 9.2 3.4 15z" id="Camada_6"/>
  <path class="st1" d="M177.8 250.5c6.8.4 16.4.3 27.7-2.1 25.1-5.3 51.1-20.6 49.3-28.2-.9-3.6-6.4-4.4-7.4-1.6-6.6 17.7-53.7 30.9-67.8 27.4 0 0-5.1-6.2-10.7-8.2-5.7-2-8.2 0-9.7 4.5-1.2 3.8.4 6.7 2.6 8s7.4 3.2 8.7 2.5c1.2-.8 2.7-4.9 7.3-2.3z" id="Camada_5"/>
  <g id="Camada_4">
    <path class="st9" d="M171.1 162.3c.1 3.7 1.1 7.9 5 7.9s4.8-4.7 4.6-8.6c-.1-3.5-2.3-7-4.8-7-2.4 0-4.9 3.8-4.8 7.7zM220.1 162.3c-.1 3.7-1.1 7.9-5 7.9-4 0-4.8-4.7-4.6-8.6.1-3.5 2.3-7 4.8-7s5 3.8 4.8 7.7z"/>
  </g>
  <g id="Camada_3">
    <path class="st1" d="M132.7 94.3c-.8 3.5-2.1 6.2-4.1 8-2 1.8-4.3 2.4-6.9 1.8-1.3-.3-2.6-.9-3.9-1.9-1.3-1-2.3-2.1-2.9-3.3-.8-1.7-1.5-3.6-1.9-5.7-.3-1.2-.7-1.9-1.2-2-4.7-1-7.5-1.4-8.7-1.1-.5.1-1.4.9-2.6 2.5-1.6 2-3.4 3.4-5.4 4.3-2.1.9-4 1.1-5.9.7-2.5-.5-4.3-2.1-5.3-4.8s-1.2-5.9-.4-9.6c.6-2.9 2-6.3 4.1-10 1.9-3.4 4.1-6.6 6.6-9.5 2.2-2.7 3.9-4.6 4.9-5.6 2.2-2.1 4.3-3.6 6.6-4.5 2.8-1.1 5.8-1.4 8.8-.7 3.8.8 6.7 2.6 8.9 5.3 1.7 2.2 3.8 6.3 6.1 12.3 1.3 3.4 2.3 7.2 2.9 11.6.9 5 1 9.1.3 12.2zM114 72.4c.2-.7 0-1.3-.5-1.8s-1.2-.8-2-1c-1-.2-1.9 0-2.7.6-.2.2-.5.6-.9 1.1-.2.8.1 1.5.8 2.1.5.4 1.1.8 1.8.9.7.2 1.4 0 2.2-.4.8-.3 1.2-.8 1.3-1.5z"/>
    <path class="st7" d="M89.6 77.5c-4.5 2.6-5.7 10.8-1.7 14.8s10.2-.5 8.8-1.8c-1.3-1.3-5.4-1.7-5.4-5.4s-.4-8.3-1.7-7.6zM117.6 56.3c3.9.9 13 19.1 11.8 28.8s-5.8-2.4-6.3-11.9c-.4-9.5-8.9-11-8.6-14.3.3-3.1 3.1-2.6 3.1-2.6zM130.7 46.7c-1.7-.4-5.3 2.3-4.7 5.7.6 3.2 4.5 4.6 6 3.7 2.3-1.4 1.1-8.8-1.3-9.4zM136 59.8c-.5-1.9 3.3-6.4 6.8-5.2 2.5.9 3.9 4.2 2.9 5.9-1.4 2.6-9.1 1.6-9.7-.7z"/>
  </g>
  <g id="Camada_2">
    <path class="st10" d="M302.6 304.1H359M327.3 322.2h37.4M307.5 341h51.8"/>
  </g>
</svg>
