<svg xmlns="http://www.w3.org/2000/svg" viewBox="0 0 400 400">
  <style>
    .st0{opacity:.2}.st2{fill:#f7a686}.st3{fill:#1486ab}.st4{fill:#60c7e2}.st5{opacity:.5;fill:#cbf0f4}.st6{fill:#1da0be}.st7{fill:#252f35}.st8{fill:#51595d}.st9{fill:none;stroke:#fff;stroke-width:4;stroke-linecap:round;stroke-linejoin:round;stroke-miterlimit:10}.st10{fill:#3b4449}
  </style>
  <ellipse class="st0" cx="140.7" cy="369" rx="113.1" ry="10.5" id="Camada_18"/>
  <g id="Camada_17">
    <path d="M36.2 276.7c15.4-28.5 108.9-109.1 174.1-25.4s44.6 114.4 18.7 118.8-68.8 3-68.8 3" fill="#ed6666"/>
    <path class="st2" d="M151.4 373.9c-6.4-54.7 65.3-68.2 88.6-54.7 23.4 13.5 19.1 46.3-11 51-32.3 4.9-77.6 3.7-77.6 3.7z"/>
  </g>
  <path class="st3" d="M161.6 328.8c24.8-9.7 57.9 11.8 61 7.9s8.8-16 4.8-21.5-8.8 15.1-8.8 15.1c-14.5-6.5-39-12.8-53.9-8.4" id="Camada_16"/>
  <g id="Camada_15">
    <path class="st4" d="M227.5 278.2c-6.3 38-62.6 76.2-121.1 42.3-59.7-34.6-26.9-125.9 27-136.7 55.4-11.1 104.7 30.7 94.1 94.4z"/>
    <path class="st5" d="M87.3 252.4c-6.9 3.2-6.3 18.5-4.5 26.9 2.6 12.2 11.4 28 19.9 26.9 8.1-1 14.9-17.3 11.9-30.5-3.4-15-19.6-26.8-27.3-23.3zM89.2 232.8c-.6 2.1-2 7 .5 10 3.9 4.8 16.1 3.8 19.8-2.9 4-7.2-2.8-18.7-9.3-19-5.1-.3-9.6 6.7-11 11.9zM190.7 199.7c2.9-.7 6.6 3.6 5.8 6.1-.8 2.5-6.6 3.7-8.5 1.3-1.5-2.1.1-6.8 2.7-7.4zM201.6 210.2c4.7-2.7 15.3 14.8 19.8 36.2 5.4 25.4-9 55.4-12.2 54.2s12.7-23 7.1-50.5-19.4-37.2-14.7-39.9z"/>
    <path class="st4" d="M192.1 193c-38.1-22-82.9-20.4-110.4 0s-4.9 5.7.9 15.3c3.4 5.7-8.7 35.7-8 57.9 0 0 5.8-46.5 34.7-62.3 48.8-26.8 82.8-10.9 82.8-10.9z"/>
  </g>
  <g id="Camada_14">
    <path class="st3" d="M150.5 258.7c.1 3.7 1.1 7.9 5 7.9 4 0 4.8-4.7 4.6-8.6-.1-3.5-2.3-7-4.8-7s-4.9 3.8-4.8 7.7zM199.5 258.7c-.1 3.7-1.1 7.9-5 7.9-4 0-4.8-4.7-4.6-8.6.1-3.5 2.3-7 4.8-7s4.9 3.8 4.8 7.7z"/>
  </g>
  <path class="st6" d="M135 331.7c25.2-4.2 48.9 12 51.9 8.1s8.4-16.2 4.2-21.7-8.4 15.3-8.4 15.3c-28.9-13.5-65.2-7.3-65.2-7.3 10.5 4.8 17.5 5.6 17.5 5.6z" id="Camada_13"/>
  <path class="st3" d="M152.3 275.3c2.3-2.3 3.8 4.2 31.3 4.2 3.4 0 1.9 3-4 3-20.5-.1-31.5-3-27.3-7.2z" id="Camada_12"/>
  <g id="Camada_11">
    <path class="st7" d="M176.3 309.8h30.6v2.5h-30.6zM173.2 291.5c-4.7.7-12 4.5-12 12.9s7.4 12.6 15.5 12.1"/>
    <path class="st8" d="M188.3 303.6c-.2-6.1-3.2-12.5-12-12.5-7.9 0-11.8 6.6-12.1 11.6-.4 6.8 5.1 14.1 12.5 13.8 6.9-.1 11.8-6.8 11.6-12.9z"/>
    <path class="st7" d="M203.4 291.5c-4.7.7-12 4.5-12 12.9s7.4 12.6 15.5 12.1"/>
    <path class="st8" d="M218.5 303.6c-.2-6.1-3.2-12.5-12-12.5-7.9 0-11.8 6.6-12.1 11.6-.4 6.8 5.1 14.1 12.5 13.8 6.9-.1 11.8-6.8 11.6-12.9z"/>
    <path class="st8" d="M176.3 291.2h30.6v18.6h-30.6z"/>
  </g>
  <path class="st6" d="M92 265.8c1.5 11.3 22.9 35.4 36.3 40.6 6 2.3 18.4 4 26 3.4 4.5 4.6 11.3 5.8 16.4 4.6 5.1-1.2 8.1-7.2 7.7-9.8-1.5-10.4-14-2.6-15.9-1.9-3.1 1.1 1-1.8.5-2.7-2.9-4.3-8.1 4.8-9.5 5-30.1 5.1-45-17.3-54.3-41-1.7-3.8-7.9-3.6-7.2 1.8z" id="Camada_10"/>
  <path class="st7" d="M162.2 299.3c-.4 1-.8 2.1-.9 3.3v.2c.1.1.4.1 1.1-.2.3-.1 1-.5 1.9-.9.6-4.1 3.5-8.9 8.9-10.3-3.7.7-8.8 3.1-11 7.9z" id="Camada_8"/>
  <path class="st6" d="M225.5 286.1c-.7 2-1.5 3.9-2.4 5.8 7.2 5.9 15.3 10.2 3.1 10.9-.7 0-7.4-9.7-9.3-5.1-.4.9 2.2 3.3 1.2 3.1-.7-.2-10.6-9.2-12.1 1.2-.5 3.6 1.2 6.8 2.9 8.5 4 4 11.1 1.7 16-3.2 21.8-1.2 10-11.7.6-21.2z" id="Camada_7"/>
  <path class="st8" d="M218.1 300.6c-.2-1.1-.6-2.3-1.1-3.3-1.7-3.5-4.9-6.1-10.6-6.1-7.9 0-2 11.8-1.2 9.3 3.1-10.1 12 .2 12.7.3.2 0 .2 0 .2-.1.1 0 .1-.1 0-.1z" id="Camada_6"/>
  <path class="st2" d="M34.2 279.3c-21.6 29.5-5.2 85 41.2 88.5 46.4 3.5 54.6 7.6 86.2 5.6s42.7-34.4 2.6-54.2C124.1 299.3 91.9 296 91.9 296c-12.4-17-37.4-44.5-57.7-16.7z" id="Camada_5"/>
  <g id="Camada_4">
    <path class="st9" d="M301.5 275.8l-1.4-36M278.6 279l-11.7-34.7M245.8 335.7l-28.6 8.5M253.2 288.1l-20.8-21.8"/>
  </g>
  <g id="Camada_3">
    <ellipse transform="rotate(-6.31 319.19989882 368.9625861)" class="st0" cx="319.2" cy="368.9" rx="58.6" ry="8.5"/>
    <path class="st10" d="M373.1 284.7l-5.7-3.3c-1.4-1-3.2-1.5-5-1.5l-100.1 11.5c-5 0-9.1 4.1-9.1 9.1v65.9c0 2.8 1.3 5.4 3.4 7.1.7.6 1.5 1 2.4 1.4l6.1 3.6.7-3.3 96.7-11.1c5 0 9.1-4.1 9.1-9.1v-66c0-1.9-.6-3.6-1.5-5.1 1 .1 2 .3 3 .8z"/>
    <path class="st10" d="M292.8 369.5l71.1-8.1-.5-52.6-70.6 8.5z"/>
    <path class="st8" d="M292.8 317.3l-31-17.9c-1 1.5-1.6 3.2-1.6 5.1v65.9c0 3 1.5 5.7 3.8 7.4l28.9-8.2-.1-52.3z"/>
    <path class="st7" d="M292.8 369.5l-28.9 8.2c1.5 1.1 3.4 1.8 5.4 1.8L369.4 368c3 0 5.6-1.4 7.3-3.7l-12.8-2.9-71.1 8.1z"/>
    <path class="st7" d="M378.5 293c0-2.6-1.1-4.9-2.8-6.6l-12.2 22.4.4 52.7 12.8 2.9c1.1-1.5 1.8-3.4 1.8-5.4v-66z"/>
    <path d="M373.1 284.7c-1.1-.5-2.4-.8-3.7-.8l-2 .2-98.1 11.3c-3.1 0-5.9 1.6-7.5 4l31 17.9 70.7-8.5 12.2-22.4c-.8-.7-1.6-1.3-2.6-1.7z" fill="#666d72"/>
  </g>
  <g id="Camada_2">
    <path class="st6" d="M152.5 124.9c.8 4.8-1.3 9-6.3 12.5-4.3 3-9.8 5.1-16.6 6.2-3.8.6-6.9.9-9.3.7-4.2-.3-7.2-1.6-9.1-3.9-1.4-1.8-2.6-4-3.7-6.7-1.3-3.5-2.4-7.8-3.3-13.1-.6-3.7-.9-6.7-1-8.9-.1-5.2.7-8.9 2.5-11.1.7-.8 2.5-1.9 5.6-3.1 3.7-1.5 7.3-2.6 10.9-3.2 2.7-.4 5.5-.7 8.2-.6 4.5 0 8.3.7 11.4 2 4 1.7 6.3 4.4 6.9 8.1.4 2.4-.1 4.7-1.5 7-1.4 2.2-2 3.6-1.9 4.2 1.6 1.1 3.1 2.5 4.4 4.2 1.6 1.8 2.5 3.7 2.8 5.7zm-23.6-16.4c-.1-.4-.5-.8-1.3-1.1s-1.5-.4-2.1-.3c-.7.1-1.5.6-2.2 1.4-.3.3-.6.6-1 1.2.1.5.5 1 1.2 1.3 1 .4 1.8.6 2.5.5 1.1-.2 1.8-.6 2.3-1.2s.7-1.4.6-1.8zm3.1 17.4c-.1-.6-.7-1-1.8-1.2-.4-.1-.9-.1-1.7-.1-.8.1-1.5.4-2.1.9-.6.5-.8 1.1-.7 1.8.1.7.5 1.1 1.2 1.4.7.2 1.4.2 2.2.1.9-.1 1.7-.5 2.2-1 .6-.4.8-1 .7-1.9z"/>
    <path class="st4" d="M107.4 116.6c-1.1 7.9 2.6 25.1 14.4 24.1s9.4-7.3 4.1-7.3-11.8-.6-12.3-7c-.5-6.3-5.6-14.3-6.2-9.8zM127.1 96.5c5.7-3.3 18.4-.3 18.4 6.9s-3.9 5.9-4.6 2.5-7.7-8-10.1-6.6c-2.4 1.3-6.1-1.4-3.7-2.8zM162.1 109.2c1.6-2.7-1.2-7.2-3.7-7.3-2.8-.1-5.9 5.3-4.3 7.7 1.4 2 6.5 2.2 8-.4zM158.2 119c.3-1.8 4.6-4.1 8-2 3.3 2.1 3.2 6.9 1.7 8-2.3 1.7-10.2-3.2-9.7-6z"/>
  </g>
</svg>
