<?xml version="1.0" encoding="utf-8"?>
<!-- Generator: Adobe Illustrator 21.0.0, SVG Export Plug-In . SVG Version: 6.00 Build 0)  -->
<svg version="1.0" id="Camada_1" xmlns="http://www.w3.org/2000/svg" xmlns:xlink="http://www.w3.org/1999/xlink" x="0px" y="0px"
	 viewBox="0 0 201 175.7" style="enable-background:new 0 0 201 175.7;" xml:space="preserve">
<style type="text/css">
	.st0{opacity:0.2;fill:#00374F;enable-background:new    ;}
	.st1{fill:#60C7E2;}
	.st2{fill:#1DA0BE;}
	.st3{fill:#E4F0F5;}
	.st4{fill:#F5FCFF;}
	.st5{fill:#26AE92;}
	.st6{fill:#3CCE9E;}
	.st7{fill:#0A6F9B;}
	.st8{fill:#1486AB;}
	.st9{opacity:0.5;fill:#1486AB;enable-background:new    ;}
	.st10{opacity:0.5;fill:#CBF0F4;enable-background:new    ;}
</style>
<g>
	<ellipse id="Camada_14" class="st0" cx="103.5" cy="169.8" rx="51" ry="5.9"/>
	<g id="Camada_13">
		<path class="st1" d="M171.7,55.6l10.1-2.5l-0.3-1.1c-0.4-1.8-2.2-2.9-4-2.4l-3.7,0.9c-1.8,0.4-2.9,2.2-2.4,4L171.7,55.6z"/>
		<path class="st2" d="M182.2,54.8l-10.2,2.5l-0.4-1.6l10.2-2.5L182.2,54.8z"/>
		<path class="st3" d="M195,89.6c0.4-0.1,0.6-0.5,0.5-0.8l-1.2-4.7c-1.3-5.4-4.6-4.5-3.8-12.7h-0.1c0.3-1.4,0.2-3.1-0.2-4.7
			c-0.9-3.6-3.3-6.4-6.3-7.7c-2-0.8-2.2-2.1-2.7-4l-8.1,2c0.5,1.9,0.8,3.1-0.5,4.8c-2,2.5-2.8,6.1-1.9,9.7c0.4,1.6,1.1,3.2,2,4.3
			h-0.1c4.5,6.9,0.9,7.7,2.3,13.1l1.2,4.7c0.1,0.4,0.5,0.6,0.8,0.5L195,89.6L195,89.6z"/>
		<path class="st4" d="M190.8,75.7c0.2-0.1,0.4-0.4,0.3-0.7s-0.3-0.6-0.6-0.5l-16.3,4.1c-0.2,0.1-0.4,0.4-0.3,0.7s0.3,0.6,0.6,0.5
			L190.8,75.7z M174.8,81.1c-0.2,0.1-0.4,0.4-0.3,0.7s0.3,0.6,0.6,0.5l16.3-4.1c0.2-0.1,0.4-0.4,0.3-0.7s-0.3-0.6-0.6-0.5
			L174.8,81.1z"/>
		<path class="st3" d="M174.8,81.1c-0.2,0.1-0.5-0.2-0.6-0.5s0-0.7,0.3-0.7l16.3-4.1c0.2-0.1,0.5,0.2,0.6,0.5s0,0.7-0.3,0.7
			L174.8,81.1z"/>
		<path class="st1" d="M181.6,110.6l17.3-4.3c0.6-0.1,1-0.8,0.8-1.4l-3.6-14.5c-0.1-0.6-0.8-1-1.4-0.8l-17.3,4.3
			c-0.6,0.1-1,0.8-0.8,1.4l3.6,14.5C180.4,110.4,181,110.8,181.6,110.6z"/>
		<path class="st5" d="M180.3,110l19.5-4.9l-2.2-8.9c-1.3,1.2-3.2,3.4-6,5.6c-5-0.8-8.3-2.6-9.5-2.3c-0.7,0.2-2.3,1.9-3.5,3.3
			L180.3,110L180.3,110z"/>
		<path class="st6" d="M181.2,110.7l18.2-4.6c0.3-0.1,0.5-0.4,0.5-0.8l-1.1-4.5c-1,0.5-3.5,2.1-6.4,3.9c-3.6-0.3-6.6-0.5-7.7-0.4
			c-1.7,0.1-3.8,1.2-5.2,2.1l0.9,3.8C180.5,110.6,180.8,110.8,181.2,110.7L181.2,110.7z"/>
		<path class="st2" d="M196.1,90.4l-19.5,4.9c-0.1-0.5,0.2-1.1,0.7-1.2l17.5-4.4C195.4,89.5,196,89.8,196.1,90.4z M199.1,106.3
			l-17.5,4.4c-0.5,0.1-1.1-0.2-1.2-0.7l19.5-4.9C199.9,105.6,199.6,106.1,199.1,106.3z"/>
		<path class="st3" d="M181.7,115.3l-1-3.7c-0.1-0.4,0.1-0.7,0.5-0.8l18.1-4.5c0.4-0.1,0.7,0.1,0.8,0.5l0.8,3.1
			c0.5,2.1-0.8,4.3-2.9,4.9l-0.4,0.1c-0.1-0.5-0.7-0.9-1.2-0.7c-0.5,0.1-0.9,0.7-0.7,1.2l-7,1.8c-0.1-0.5-0.7-0.9-1.2-0.7
			c-0.5,0.1-0.9,0.7-0.7,1.2l-1.1,0.3C183.9,118.2,182.1,117.1,181.7,115.3L181.7,115.3z"/>
		<g>
			<path class="st1" d="M11.5,87l10.4,1.2l0.1-1.1c0.2-1.8-1.1-3.5-2.9-3.7L15.3,83c-1.8-0.2-3.5,1.1-3.7,2.9L11.5,87z"/>
			<path class="st2" d="M21.7,89.9l-10.4-1.2l0.2-1.7l10.4,1.2L21.7,89.9z"/>
			<path class="st3" d="M21.5,127c0.4,0,0.7-0.2,0.8-0.6l0.5-4.8c0.6-5.5-2.7-5.9,0.8-13.3h-0.1c0.7-1.2,1.3-2.9,1.4-4.5
				c0.4-3.7-0.9-7.1-3.2-9.4c-1.6-1.5-1.4-2.8-1.1-4.7l-8.3-0.9c-0.2,1.9-0.3,3.2-2.1,4.3c-2.7,1.6-4.8,4.8-5.2,8.4
				c-0.2,1.6,0,3.4,0.4,4.7H5.3c1.9,8-1.8,7.6-2.4,13.1l-0.5,4.8c0,0.4,0.2,0.7,0.6,0.8L21.5,127L21.5,127z"/>
			<path class="st4" d="M22.4,112.5c0.2,0,0.5-0.2,0.5-0.6c0-0.4-0.1-0.7-0.4-0.7l-16.7-1.9c-0.2,0-0.5,0.2-0.5,0.6
				c0,0.4,0.1,0.7,0.4,0.7L22.4,112.5z M5.5,111.9c-0.2,0-0.5,0.2-0.5,0.6c0,0.4,0.1,0.7,0.4,0.7l16.7,1.9c0.2,0,0.5-0.2,0.5-0.6
				c0-0.4-0.1-0.7-0.4-0.7L5.5,111.9z"/>
			<path class="st3" d="M5.5,111.9c-0.2,0-0.4-0.3-0.4-0.7s0.3-0.6,0.5-0.6l16.7,1.9c0.2,0,0.4,0.3,0.4,0.7s-0.3,0.6-0.5,0.6
				L5.5,111.9z"/>
			<path class="st1" d="M1.7,142l17.7,2c0.6,0.1,1.2-0.4,1.2-1l1.6-14.8c0.1-0.6-0.4-1.2-1-1.2l-17.7-2c-0.6-0.1-1.2,0.4-1.2,1
				l-1.6,14.8C0.6,141.4,1.1,141.9,1.7,142z"/>
			<path class="st5" d="M0.7,141l19.9,2.2l1-9.2c-1.6,0.7-4.1,2.1-7.6,3.1c-4.4-2.5-6.9-5.3-8.1-5.4c-0.7-0.1-2.8,1-4.5,1.9L0.7,141
				L0.7,141z"/>
			<path class="st6" d="M1.2,141.9l18.7,2.1c0.3,0,0.7-0.2,0.7-0.6l0.5-4.6c-1.1,0.1-4,0.7-7.4,1.4c-3.2-1.5-6-2.7-7-3.1
				c-1.6-0.5-4-0.2-5.6,0.2l-0.4,3.8C0.6,141.6,0.8,141.9,1.2,141.9L1.2,141.9z"/>
			<path class="st2" d="M22.3,128l-19.9-2.2c0.1-0.5,0.6-0.9,1.1-0.9l18,2C21.9,127,22.3,127.5,22.3,128L22.3,128z M19.5,144l-18-2
				c-0.5-0.1-0.9-0.6-0.9-1.1l19.9,2.2C20.5,143.6,20.1,144,19.5,144z"/>
			<path class="st3" d="M0,146.4l0.4-3.9c0-0.4,0.4-0.7,0.8-0.6l18.6,2.1c0.4,0,0.7,0.4,0.6,0.8L20,148c-0.2,2.2-2.2,3.8-4.4,3.5
				h-0.4c0.1-0.5-0.3-1-0.9-1.1s-1,0.3-1.1,0.9L6,150.5c0.1-0.5-0.3-1-0.9-1.1c-0.5-0.1-1,0.3-1.1,0.9l-1.1-0.1
				C1.2,149.9-0.2,148.2,0,146.4z"/>
		</g>
	</g>
	<path id="Camada_9" class="st7" d="M150.8,2.3c4.3-5.5,18.4-0.8,15,9.2c-3,8.7-9.8,5-11.9,11.7c-0.9,2.7-5.3,0.1-2.4-3.7
		c2.9-3.8,10.1-1.9,12.2-8.7s-6.9-10.6-10-6C152,7.5,149,4.7,150.8,2.3L150.8,2.3z M147.7,30.9c0.8,0.9,2,1,2.9,0.5
		c1.4-0.7,1.6-3,0.5-4c-0.9-0.8-2.6-0.7-3.5,0.4C147.1,28.7,147,30,147.7,30.9z"/>
	<path id="Camada_8" class="st8" d="M147.1,73c5.3,0.2,10.7,20,9.7,37.5c-0.5,7.8-2.1,14.2-3.6,18.6c2.1,4.4,1.6,9.1-1.1,12
		c-2.8,2.9-7.3,3.4-8.8,2.3c-5.9-4.4,3.7-10.9,4-11.3c0.4-0.6-1.8,0.5-2.3,0c-2.6-2.4,5.4-4.6,5.6-5c4.9-8.7,4.7-42-5.8-49.5
		C143,76.4,144.5,72.9,147.1,73L147.1,73z"/>
	<g id="Camada_7">
		<path class="st2" d="M83.8,124c9.4,16.2-1.9,41.4,1.1,43.2c3,1.7,12.1,4.4,15.5,1S89,163.7,89,163.7c2.9-10.7,4.7-28.4,0-38.3"/>
		<path class="st9" d="M83.8,124c2.4,4.2,3.5,8.9,3.7,13.7c1.4,0.2,2.8,0.3,4.1,0.4c-0.3-4.8-1.1-9.2-2.7-12.7L83.8,124z"/>
	</g>
	<g id="Camada_6">
		<path class="st2" d="M108.2,124c9.4,16.2-1.9,41.4,1.1,43.2s12.1,4.4,15.5,1c3.4-3.4-11.4-4.5-11.4-4.5c2.9-10.7,4.7-28.4,0-38.3"
			/>
		<path class="st9" d="M113.3,125.4l-5.1-1.4c2.2,3.7,3.2,7.9,3.6,12.2c1.4-0.3,2.8-0.7,4-1.1C115.4,131.5,114.6,128.1,113.3,125.4z
			"/>
	</g>
	<g id="Camada_5">
		<path class="st1" d="M154.5,88.4c-4.4,26.7-44,53.6-85.1,29.7C27.5,93.8,50.5,29.6,88.4,22C127.3,14.3,162,43.7,154.5,88.4
			L154.5,88.4z"/>
		<path class="st10" d="M56,70.3c-4.8,2.2-4.4,13-3.2,18.9c1.8,8.6,8,19.6,14,18.9c5.7-0.7,10.5-12.1,8.4-21.4
			C72.8,76.1,61.4,67.8,56,70.3z M57.3,56.5c-0.4,1.5-1.4,4.9,0.4,7.1c2.7,3.4,11.3,2.7,13.9-2c2.8-5.1-2-13.2-6.5-13.4
			C61.5,48,58.4,52.9,57.3,56.5L57.3,56.5z M128.7,33.3c2.1-0.5,4.7,2.5,4.1,4.3c-0.6,1.8-4.7,2.6-5.9,0.9
			C125.7,37,126.8,33.7,128.7,33.3L128.7,33.3z M136.3,40.7c3.3-1.9,10.7,10.4,13.9,25.5c3.8,17.8-6.3,39-8.5,38.1s8.9-16.2,5-35.5
			C142.8,49.4,133,42.6,136.3,40.7z"/>
		<path class="st1" d="M129.6,28.6c-26.8-15.5-58.2-14.3-77.6,0s-3.5,4,0.6,10.8c2.4,4-6.1,25.1-5.6,40.7c0,0,4.1-32.6,24.4-43.8
			C105.8,17.4,129.6,28.6,129.6,28.6L129.6,28.6z"/>
	</g>
	<g id="Camada_4">
		<path class="st8" d="M100.4,75.3c0.1,2.6,0.7,5.6,3.5,5.6s3.4-3.3,3.3-6c-0.1-2.5-1.6-4.9-3.3-4.9
			C102.1,69.8,100.4,72.5,100.4,75.3L100.4,75.3z M134.9,75.3c-0.1,2.6-0.7,5.6-3.5,5.6s-3.4-3.3-3.3-6c0.1-2.5,1.6-4.9,3.3-4.9
			C133.2,69.8,135,72.5,134.9,75.3L134.9,75.3z"/>
	</g>
	<path id="Camada_3" class="st2" d="M58.5,77.4c-5-2.9-34.6,23.1-11.3,36c10.4,5.7,24-1.2,34.3-4.7c5.8,0.4,14.1-1.8,18-4.5
		c4-2.7,3.7-7.5,2.6-9.2c-4.6-6.9-12.4,4.4-13.8,5.5c-2.2,1.7,0.6-1.8-0.2-2.1c-3.8-1.6-6.9,7-9,8C36.5,127,28.4,88.8,59.4,83
		C64.4,82,60.9,78.8,58.5,77.4L58.5,77.4z"/>
	<path id="Camada_2" class="st8" d="M102.5,87.9c1-1.3,16.9-0.6,21.2-0.1c2.4,0.2,1.3,2.3-2.8,2.1C107.8,89.3,99.9,91.2,102.5,87.9z
		"/>
</g>
</svg>
