<svg xmlns="http://www.w3.org/2000/svg" viewBox="0 0 300 400">
  <style>
    .st1{fill:#1da0be}.st2{opacity:.5;fill:#1486ab}.st3{fill:#60c7e2}.st4{opacity:.5;fill:#cbf0f4}.st5{fill:#1486ab}.st7{fill-rule:evenodd;clip-rule:evenodd;fill:#f5fcff}.st9{fill:#97aab2}.st10{fill:#718389}.st12,.st16{fill-rule:evenodd;clip-rule:evenodd}.st12{opacity:.4;fill:#f5fcff}.st16{fill:#1da0be}
  </style>
  <ellipse cx="131.1" cy="340.4" rx="64.6" ry="7.4" opacity=".2" fill="#00374f" id="Camada_20"/>
  <path class="st1" d="M176.9 234.9c5.5 11.6 28.8 22.1 42.6 12.1 6.2-4.5 11-10.5 14.6-17.4 5.1-.5 9.7-4.9 11.6-8.9 1.9-3.9-.6-9.5-2.7-10.7-8.1-4.8-9.5 8-9.9 9.8-.7 2.8-.8-1.8-1.6-1.8-4.3 0-.6 8.3-1.1 9.7-10.5 29.8-33.1 20.8-48.5 3.2-2.4-2.9-7.6-1.5-5 4z" id="Camada_19"/>
  <g id="Camada_18">
    <path class="st1" d="M106.1 282.4c11.9 20.4-2.5 52.5 1.4 54.7 3.8 2.2 15.3 5.6 19.6 1.2 4.3-4.3-14.5-5.6-14.5-5.6 3.7-13.6 5.9-36 0-48.5"/>
    <path class="st2" d="M106.1 282.4c3.1 5.3 4.4 11.3 4.7 17.4 1.8.2 3.5.4 5.3.5-.4-6-1.4-11.7-3.5-16.1l-6.5-1.8z"/>
  </g>
  <g id="Camada_17">
    <path class="st1" d="M137 282.4c11.9 20.4-2.5 52.5 1.4 54.7 3.8 2.2 15.3 5.6 19.6 1.2 4.3-4.3-14.5-5.6-14.5-5.6 3.7-13.6 5.9-36 0-48.5"/>
    <path class="st2" d="M143.5 284.1l-6.5-1.7c2.8 4.7 4.1 10 4.6 15.5 1.8-.4 3.5-.9 5.1-1.3-.6-4.7-1.6-9-3.2-12.5z"/>
  </g>
  <g id="Camada_16">
    <path class="st3" d="M195.6 237.4c-5.6 33.8-55.7 67.8-107.7 37.6-53.1-30.8-23.9-112 24-121.6 49.3-9.9 93.1 27.3 83.7 84z"/>
    <path class="st4" d="M70.9 214.4c-6.1 2.8-5.6 16.5-4 24 2.3 10.9 10.2 24.9 17.7 23.9 7.2-.9 13.3-15.4 10.6-27.2-3-13.3-17.5-23.8-24.3-20.7zM72.6 196.9c-.5 1.8-1.8 6.2.5 8.9 3.5 4.2 14.3 3.4 17.6-2.6 3.6-6.4-2.5-16.7-8.2-16.9-4.6-.2-8.6 6.1-9.9 10.6zM162.9 167.5c2.6-.6 5.9 3.2 5.2 5.4-.7 2.3-5.9 3.3-7.5 1.2-1.5-1.9-.1-6 2.3-6.6zM172.6 176.9c4.2-2.4 13.6 13.2 17.6 32.2 4.8 22.6-8 49.3-10.8 48.2-2.9-1.1 11.3-20.5 6.4-44.9-5-24.4-17.4-33.1-13.2-35.5z"/>
    <path class="st3" d="M164.1 161.6c-33.9-19.6-73.7-18.2-98.2 0s-4.4 5.1.8 13.7c3.1 5.1-7.7 31.8-7.1 51.5 0 0 5.2-41.3 30.9-55.4 43.4-24 73.6-9.8 73.6-9.8z"/>
  </g>
  <g id="Camada_15">
    <path class="st5" d="M135.8 206.3c.1 3.3.9 7.1 4.5 7.1 3.5 0 4.3-4.2 4.1-7.6-.1-3.1-2-6.2-4.2-6.2-2.4-.2-4.5 3.2-4.4 6.7zM172.5 206.3c-.1 3.3-.9 7.1-4.5 7.1-3.5 0-4.3-4.2-4.1-7.6.1-3.1 2-6.2 4.2-6.2 2.3-.2 4.5 3.2 4.4 6.7z"/>
  </g>
  <path class="st1" d="M80.6 217.8c-6.7.2-13.5 25.3-12.2 47.4.6 9.9 2.7 18 4.5 23.5-2.6 5.5-2 11.6 1.4 15.2 3.5 3.7 9.3 4.3 11.2 2.9 7.5-5.6-4.7-13.9-5.1-14.4-.5-.8 2.3.6 2.9 0 3.3-3-6.8-5.8-7.1-6.3-6.2-11-5.9-53.1 7.3-62.6 2.3-1.4.3-5.8-2.9-5.7z" id="Camada_14"/>
  <g id="Camada_13">
    <path d="M262.9 252.2l-.8-3.9c-.1-.5-.5-.8-1-.7l-.3.1c.6-.1 1-.7.9-1.3l-3.6-18.7c-.1-.6-.7-1-1.3-.9h.1c.5-.1.8-.5.7-1l-1.2-5.9c-1.3-6.8-5.4-5.9-4-16h-.1c.4-1.7.4-3.9 0-5.9-.9-4.5-3.7-8.1-7.3-9.9-2.4-1.2-2.6-2.8-3.1-5.1l-.9-4.6c-.1-.4-.5-.6-.8-.6l-8.9 1.7c-.4.1-.6.5-.6.8l.9 4.6h.1c.5 2.4.8 3.9-.9 5.9-2.6 3-3.9 7.4-3 11.9.4 2 1.2 4 2.3 5.4h-.1c5.2 8.8.6 9.6 2 16.4l1.2 5.9c.1.5.5.8 1 .7l.4-.1c-.6.1-1 .7-.9 1.3l3.6 18.7c.1.6.7 1 1.3.9l-.3.1c-.5.1-.8.5-.7 1l.9 4.7c.4 2.2 2.6 3.7 4.8 3.2l1.4-.3c-.1-.7.3-1.3 1-1.5.7-.1 1.3.3 1.5 1l8.8-1.7c-.1-.7.3-1.3 1-1.5.7-.1 1.3.3 1.5 1l.5-.1c2.7-.3 4.4-2.9 3.9-5.6z" fill="#fff"/>
    <path class="st7" d="M252.5 209.3c.3-.1.5-.5.4-.9-.1-.4-.4-.8-.7-.7l-20.5 4c-.3.1-.5.5-.4.9.1.4.4.8.7.7l20.5-4zM232.3 214.9c-.3.1-.5.5-.4.9.1.4.4.8.7.7l20.5-4c.3-.1.5-.5.4-.9-.1-.4-.4-.8-.7-.7l-20.5 4z"/>
    <path d="M232.3 214.9c-.3.1-.6-.3-.7-.7-.1-.4.1-.8.4-.9l20.5-4c.3-.1.6.3.7.7.1.4-.1.8-.4.9l-20.5 4z" fill-rule="evenodd" clip-rule="evenodd" fill="#e4f0f5"/>
  </g>
  <path class="st3" d="M233.8 224.3c-.4-2.3-.1-3.7.2-5.3 0-.2.1-.4.1-.5h20.1c.2.5.3 1.1.5 1.8l6.5 32.3c.3 1.5-.5 3-1.9 3.6-.5-.5-1.2-.8-2-.8-.2 0-.4 0-.6.1-.8.2-1.5.6-1.9 1.3-.1.1-.2.3-.2.4l-6.5 1.3c-.5-.5-1.3-.8-2-.8-.2 0-.4 0-.6.1-.8.2-1.5.6-1.9 1.3-.1.1-.2.3-.2.4h-.7c-1.1 0-2.1-.8-2.3-1.9l-6.6-33.3z" id="Camada_12"/>
  <path class="st5" d="M124.1 220.7c3.4 18.1 26.9 19.7 27.7 16.8.8-2.9-20.3 2.7-23.1-18.6-.5-3.1-5.1-3.4-4.6 1.8z" id="Camada_10"/>
  <path class="st3" d="M235 218.5v-82.6h4.5v82.6" id="Camada_9"/>
  <path class="st3" d="M232.5 173.3c-.2-5.3-7.2-7.5-7.8-3.6-.3 2.7 4.5.7 7.8 3.6z" id="Camada_8"/>
  <path class="st3" d="M231.2 175.8c-2-1.7-7.3-.7-6.4 1.6 1 2.8 5.1-1.6 6.4-1.6z" id="Camada_7"/>
  <g id="Camada_6">
    <path transform="rotate(-180 222.3508 124.94805)" class="st9" d="M214.5 121.5h15.7v7h-15.7z"/>
    <path class="st9" d="M230.2 121.5c10.6 0 10.8 7.8 10.8 13.3h-7.2c0-4.2-.7-6.4-3.5-6.4-2.4 0-.1-6.9-.1-6.9z"/>
    <path class="st10" d="M234.1 134.5h6.5c.7 0 1.3.6 1.3 1.3v.2c0 .7-.6 1.3-1.3 1.3h-6.5c-.7 0-1.3-.6-1.3-1.3v-.2c0-.7.6-1.3 1.3-1.3z"/>
    <circle class="st10" cx="222.4" cy="117.1" r="2.8"/>
    <path transform="rotate(-180 229.6458 117.14125)" class="st10" d="M224.7 115.6h9.8v3.1h-9.8z"/>
    <path transform="rotate(-180 227.97565 120.0766)" class="st10" d="M225.9 118.7h4.3v2.8h-4.3z"/>
    <circle class="st9" cx="225.9" cy="117.1" r="2.8"/>
    <circle class="st9" cx="234.4" cy="117.1" r="2.8"/>
    <path class="st3" d="M185.4 127.2c3.3-1.7 3.3-10-.1-13.2-.9-.9-1.8-1.1-2.3-2.3-.8-2.1 1.4-3.3 1.5-6.5.1-2.8-1.6-3.5-1.3-6.2.2-1.9 1.2-3.1 1.9-4.1 4.5-6.6 5.1-14.5 5.2-15.9.2-2.6.5-7-2-8.9-.8-.6-1.7-.8-2.4-1.9-1-1.7.1-3-.9-4.4-1-1.5-2.9-.8-3.4-2s.6-3.4 2.3-4.1c2.2-.9 3.5 1.7 6.9 1.6 3.4-.1 5.1-3 6.5-2.1 1.1.7-.1 2.5 1.3 4.6 1.1 1.8 2.5 1.3 3.8 3.3 1.2 1.8.5 2.6 1.5 3.6 2 1.9 5.7-.8 7.8 1.1 1.5 1.3.2 3.2 2 5 1.8 1.9 4.1.8 5.3 2.5 1.2 1.8-.6 3.8.5 5 1.3 1.4 4.1-.9 6.6 0 5.2 1.9 6.9 17.5.8 23.1-1.1 1-2.8 2-3.2 2.3-4.8 2.9-6.8 2-8.5 3.4-4.1 3.6 3.7 12.9-.5 19.5-2.2 3.4-7.4 5.8-11.8 5.4-2.7-.3-3.8-1.5-5.4-.8-2.9 1.3-1.3 5.9-4 10.3-3.4 5.7-12.5 8.8-17.9 6.4-3-1.4-3-3.7-6.5-4.8-4.2-1.3-6.1 1.4-8.7-.1-2.8-1.7-4.6-7.2-3.4-11.3.3-1 .8-2.3.3-2.9-.9-1-3.4.8-4.6-.3-1-.9-.3-3.3-.3-3.6.6-2.1 1.9-2.1 2.1-3.7.3-2.1-1.6-3.6-1.1-4.2.5-.6 2.1.8 3.7.1 1.8-.7 1.3-3.3 2.8-4 2.3-1.1 5.3 4.9 9 4.4 3.6-.5 4.4-6.7 8.6-6.9.8 0 1.9.1 2.1.7.3.8-1.7 1.6-2.4 3.4-.8 2.1.3 4.9 2 6.5 1.5 1.7 4.3 3.1 6.2 2z"/>
  </g>
  <g id="Camada_5">
    <path d="M262.9 252.2l-.8-3.9c-.1-.5-.5-.8-1-.7l-.3.1c.6-.1 1-.7.9-1.3l-3.6-18.7c-.1-.6-.7-1-1.3-.9h.1c.5-.1.8-.5.7-1l-1.2-5.9c-1.3-6.8-5.4-5.9-4-16h-.1c.4-1.7.4-3.9 0-5.9-.9-4.5-3.7-8.1-7.3-9.9-2.4-1.2-2.6-2.8-3.1-5.1l-.9-4.6c-.1-.4-.5-.6-.8-.6l-8.9 1.7c-.4.1-.6.5-.6.8l.9 4.6h.1c.5 2.4.8 3.9-.9 5.9-2.6 3-3.9 7.4-3 11.9.4 2 1.2 4 2.3 5.4h-.1c5.2 8.8.6 9.6 2 16.4l1.2 5.9c.1.5.5.8 1 .7l.4-.1c-.6.1-1 .7-.9 1.3l3.6 18.7c.1.6.7 1 1.3.9l-.3.1c-.5.1-.8.5-.7 1l.9 4.7c.4 2.2 2.6 3.7 4.8 3.2l1.4-.3c-.1-.7.3-1.3 1-1.5.7-.1 1.3.3 1.5 1l8.8-1.7c-.1-.7.3-1.3 1-1.5.7-.1 1.3.3 1.5 1l.5-.1c2.7-.3 4.4-2.9 3.9-5.6z" opacity=".4" fill="#fff"/>
    <path class="st12" d="M252.5 209.3c.3-.1.5-.5.4-.9-.1-.4-.4-.8-.7-.7l-20.5 4c-.3.1-.5.5-.4.9.1.4.4.8.7.7l20.5-4zM232.3 214.9c-.3.1-.5.5-.4.9.1.4.4.8.7.7l20.5-4c.3-.1.5-.5.4-.9-.1-.4-.4-.8-.7-.7l-20.5 4z"/>
    <path d="M232.3 214.9c-.3.1-.6-.3-.7-.7-.1-.4.1-.8.4-.9l20.5-4c.3-.1.6.3.7.7.1.4-.1.8-.4.9l-20.5 4z" opacity=".4" fill-rule="evenodd" clip-rule="evenodd" fill="#e4f0f5"/>
  </g>
  <g id="Camada_4">
    <path class="st3" d="M238.6 252.1l22.2-4.3c.6-.1 1-.7.9-1.3l-3.6-18.7c-.1-.6-.7-1-1.3-.9l-22.2 4.3c-.6.1-1 .7-.9 1.3l3.6 18.7c.1.6.7 1 1.3.9z"/>
    <path d="M237.3 251.2l24.5-4.8-2.2-11.2c-1.6 1.4-4.1 4-7.8 6.5-6.2-1.3-10.2-3.7-11.6-3.4-.8.2-3 2.2-4.6 3.9l1.7 9z" fill="#26ae92"/>
    <path d="M238.3 252.1l22.9-4.5c.4-.1.7-.5.6-.9l-1.1-5.7c-1.3.6-4.5 2.4-8.2 4.5-4.4-.5-8.2-1-9.5-1-2.1 0-4.8 1.2-6.6 2.3l.9 4.7c.2.4.6.7 1 .6z" fill="#3cce9e"/>
    <path class="st16" d="M258.1 227.8l-24.5 4.8v-.1c-.1-.6.3-1.2.9-1.3l22.2-4.3c.7-.2 1.3.2 1.4.9zM260.8 247.7l-22 4.3c-.8.3-1.5-.1-1.4-1l24.5-4.8c.2.8-.2 1.5-1.1 1.5z"/>
  </g>
  <path class="st1" d="M230.5 227.7c.5-1.5-3.2-9.7 1.1-9.7 1.4 0 1.4 1.9.2 3.5-1.1 1.6-.8 5.9-.8 5.9l-.5.3z" id="Camada_3"/>
  <path transform="rotate(168.932 236.64854166 182.92385182)" class="st1" d="M230.2 181.9h13v2.1h-13z" id="Camada_2"/>
</svg>
