<svg xmlns="http://www.w3.org/2000/svg" viewBox="0 0 300 400">
  <style>
    .st2{fill:none;stroke:#80d2e8;stroke-width:8;stroke-linecap:round;stroke-linejoin:round;stroke-miterlimit:10}.st3{fill:#d2ecf2}.st4{fill:#bbe2eb}.st6{fill:#60c7e2}.st7{fill:#26ae92}.st8{fill:#3cce9e}.st9{fill-rule:evenodd;clip-rule:evenodd}.st10,.st9{fill:#1da0be}.st11{fill:none;stroke:#cbf0f4;stroke-width:4;stroke-linecap:round;stroke-linejoin:round;stroke-miterlimit:10}
  </style>
  <g id="Camada_2">
    <circle cx="151" cy="197.5" r="128" fill="#ed6666"/>
    <circle cx="151" cy="197.5" r="115.9" fill="#fff"/>
  </g>
  <g id="Camada_3">
    <path class="st2" d="M151 88.6v10.7M151 295.8v10.7M205.5 103.2l-5.4 9.2M101.9 282.7l-5.4 9.2M245.4 143.1l-9.3 5.3M65.9 246.7l-9.3 5.3M260 197.5h-10.7M52.7 197.5H42M245.1 252.4l-8.8-6.1M65.9 148.4l-9.3-5.3M205.5 291.9l-5.4-9.2M101.9 112.4l-5.4-9.2"/>
  </g>
  <g id="Camada_4">
    <path class="st3" d="M154.7 156.5c.6-.2.9-.7.8-1.3l-1.9-7.2c-2.2-8.3-7.3-6.9-6.3-19.6h-.1c.4-2.2.2-4.9-.5-7.3-1.5-5.5-5.3-9.8-9.9-11.7-3.1-1.3-5-2.8-5.8-5.7l-10.3 2.8c.8 2.9.6 5-1.4 7.6-3 3.9-4.2 9.5-2.7 15.1.7 2.5 1.9 4.9 3.3 6.6h-.1c7.2 10.5 1.6 11.9 3.9 20.3l1.9 7.2c.2.6.7.9 1.3.8l27.8-7.6z"/>
    <path class="st4" d="M147.7 135.1c.4-.1.5-.6.4-1.2-.1-.5-.6-.9-.9-.8l-25.2 6.7c-.4.1-.5.6-.4 1.2.1.5.6.9.9.8l25.2-6.7zM123.1 143.8c-.4.1-.5.6-.4 1.2.1.5.6.9.9.8l25.2-6.7c.4-.1.5-.6.4-1.2-.1-.5-.6-.9-.9-.8l-25.2 6.7z"/>
    <path d="M123.1 143.8c-.4.1-.8-.3-.9-.8-.1-.5 0-1.1.4-1.2l25.2-6.7c.4-.1.8.3.9.8s0 1.1-.4 1.2l-25.2 6.7z" fill-rule="evenodd" clip-rule="evenodd" fill="#d2ecf2"/>
    <path class="st6" d="M134.6 189.3l26.4-7.1c1-.3 1.6-1.3 1.3-2.3l-5.9-22c-.3-1-1.3-1.6-2.3-1.3l-26.4 7.1c-1 .3-1.6 1.3-1.3 2.3l5.9 22c.3 1 1.3 1.6 2.3 1.3z"/>
    <path class="st7" d="M132.5 188.4l30-8-3.7-13.8c-1.9 1.9-4.8 5.3-9.2 8.8-7.8-1.1-13-3.7-14.7-3.3-1 .3-3.5 3-5.4 5.2l3 11.1z"/>
    <path class="st8" d="M133.8 189.5l28.1-7.5c.5-.1.8-.7.7-1.2l-1.9-6.9c-1.6.8-5.4 3.3-9.9 6.2-5.5-.3-10.2-.5-11.9-.5-2.6.1-5.8 2-8 3.4l1.6 5.8c.2.6.8.9 1.3.7z"/>
    <path class="st9" d="M156.4 157.6l-30 8c-.2-.8.3-1.7 1.1-1.9l27-7.2c.8-.2 1.7.3 1.9 1.1zM161.4 182.1l-27 7.2c-.8.2-1.7-.3-1.9-1.1l30-8c.2.9-.3 1.7-1.1 1.9z"/>
    <path class="st3" d="M134.7 196.6l-1.6-5.8c-.2-.6.2-1.2.8-1.3l27.9-7.5c.6-.2 1.2.2 1.3.8l1.3 4.8c.9 3.3-1.1 6.7-4.4 7.6l-.6.2c-.2-.8-1.1-1.3-1.9-1.1-.8.2-1.3 1.1-1.1 1.9l-10.8 2.9c-.2-.8-1.1-1.3-1.9-1.1-.8.2-1.3 1.1-1.1 1.9l-1.7.4c-2.7.7-5.5-.9-6.2-3.7z"/>
    <path class="st6" d="M119 104.5l13.2-3.5-.1-.3c-.8-3-3.8-4.7-6.8-3.9l-2.5.7c-3 .8-4.7 3.8-3.9 6.8l.1.2z"/>
    <path transform="scale(-1) rotate(-15 -788.66738085 956.27822296)" class="st10" d="M119.1 102.7h13.7v2.3h-13.7z"/>
  </g>
  <g id="Camada_5">
    <path class="st6" d="M235.4 190.5v13.9h.4c3.1 0 5.6-2.5 5.6-5.6V196c0-3.1-2.5-5.6-5.6-5.6h-.4z"/>
    <path transform="matrix(0 -1 1 0 36.7878 431.6655)" class="st10" d="M227.3 196.3h13.9v2.3h-13.9z"/>
    <path class="st4" d="M184.2 209.6c0 .5.4.9.9.9h6.4c7.4 0 7.3-4.5 17.6-.9v-.1c1.7.8 4 1.2 6.2 1.2 4.9 0 9.3-2.2 11.9-5.6 1.7-2.3 3.4-2.2 6-2.2v-11.1c-2.6 0-4.3.1-6-2.2-2.6-3.4-7-5.6-11.9-5.6-2.2 0-4.4.5-6.2 1.2v-.1c-10.3 3.6-10.2-1.3-17.6-1.3h-6.4c-.5 0-.9.4-.9.9v24.9z"/>
    <path class="st3" d="M203.4 208.6c0 .3.4.6.9.6s.9-.3.9-.6v-22.3c0-.3-.4-.6-.9-.6s-.9.3-.9.6v22.3zM201.6 186.3c0-.3-.4-.6-.9-.6s-.9.3-.9.6v22.3c0 .3.4.6.9.6s.9-.3.9-.6v-22.3z"/>
    <path class="st4" d="M201.6 186.3c0-.3.4-.6.9-.6s.9.3.9.6v22.3c0 .3-.4.6-.9.6s-.9-.3-.9-.6v-22.3z"/>
    <path class="st6" d="M161.4 186v22.8c0 1 .8 1.9 1.9 1.9h19c1 0 1.9-.8 1.9-1.9V186c0-1-.8-1.9-1.9-1.9h-19c-1 0-1.9.9-1.9 1.9z"/>
    <path class="st7" d="M162.6 184.1v26.6h12.2c-1.1-2-3.3-5.1-5.2-9.5 2.7-6.2 6-9.9 6-11.4 0-.9-1.7-3.6-3.1-5.6l-9.9-.1z"/>
    <path class="st8" d="M161.4 185v24.9c0 .5.4.8.8.8h6.2c-.3-1.5-1.6-5.2-3-9.5 1.5-4.5 2.7-8.3 3-9.7.5-2.2-.3-5.2-1.1-7.3h-5.1c-.4-.1-.8.3-.8.8z"/>
    <path class="st9" d="M182.8 210.7v-26.6c.7 0 1.3.6 1.3 1.3v24c.1.7-.5 1.3-1.3 1.3zM161.4 209.4v-24c0-.7.6-1.3 1.3-1.3v26.6c-.7 0-1.3-.6-1.3-1.3z"/>
    <path class="st4" d="M155.4 184.1h5.1c.5 0 .9.4.9.9v24.8c0 .5-.4.9-.9.9h-4.2c-2.9 0-5.3-2.4-5.3-5.3v-.6c.7 0 1.3-.6 1.3-1.3 0-.7-.6-1.3-1.3-1.3v-9.6c.7 0 1.3-.6 1.3-1.3 0-.7-.6-1.3-1.3-1.3v-1.5c0-2.4 2-4.4 4.4-4.4z"/>
  </g>
  <g id="Camada_6">
    <path class="st11" d="M80.9 157.5c-.7 1.4-1.4 2.7-2 4.2M89.2 144.9c-1.7 2.1-3.3 4.3-4.8 6.6M105.1 130.3c-4.3 3-8.2 6.3-11.7 9.9M84.8 166c-.6 1.5-1.2 3-1.7 4.5M90.8 154.7c-.8 1.2-1.5 2.4-2.3 3.6M107.2 137.5c-4.6 3.4-8.7 7.3-12.3 11.6M92.6 166.6c-1 2.2-2 4.6-2.7 6.9M108.9 145.5c-5.3 4.4-9.7 9.5-13.1 15.1"/>
  </g>
  <g id="Camada_7">
    <path class="st11" d="M206.4 143.5c-.9-1.2-1.9-2.4-2.9-3.6M214.3 156.3c-1.2-2.5-2.5-4.8-3.9-7.1M220.8 177c-.8-5.2-2.2-10.1-4-14.8M197 143.4c-1.1-1.2-2.2-2.3-3.3-3.4M204.7 153.7c-.7-1.2-1.5-2.4-2.3-3.6M213.4 175.8c-1.1-5.7-2.9-11-5.3-16M193.2 150.2c-1.6-1.9-3.3-3.7-5.1-5.4M205.4 174c-1.7-6.6-4.5-12.8-8.1-18.3"/>
  </g>
</svg>
