<svg xmlns="http://www.w3.org/2000/svg" viewBox="0 0 400 400">
  <style>
    .st1{fill:#60c7e2}.st2{fill:#1da0be}.st3{fill:#e4f0f5}.st4,.st5{fill-rule:evenodd;clip-rule:evenodd;fill:#f5fcff}.st5{fill:#e4f0f5}.st6{fill:#26ae92}.st7{fill:#3cce9e}.st8{fill-rule:evenodd;clip-rule:evenodd;fill:#1da0be}.st10,.st11,.st12{fill:#1486ab}.st11,.st12{opacity:.5}.st12{fill:#cbf0f4}
  </style>
  <ellipse cx="203.8" cy="285.2" rx="51" ry="5.9" opacity=".2" fill="#00374f" id="Camada_14"/>
  <g id="Camada_13">
    <path class="st1" d="M272 171l10.1-2.5-.3-1.1c-.4-1.8-2.2-2.9-4-2.4l-3.7.9c-1.8.4-2.9 2.2-2.4 4l.3 1.1z"/>
    <path transform="rotate(165.977 277.28359137 170.56817287)" class="st2" d="M272.1 169.7h10.5v1.7h-10.5z"/>
    <path class="st3" d="M295.3 205c.4-.1.6-.5.5-.8l-1.2-4.7c-1.3-5.4-4.6-4.5-3.8-12.7h-.1c.3-1.4.2-3.1-.2-4.7-.9-3.6-3.3-6.4-6.3-7.7-2-.8-2.2-2.1-2.7-4l-8.1 2c.5 1.9.8 3.1-.5 4.8-2 2.5-2.8 6.1-1.9 9.7.4 1.6 1.1 3.2 2 4.3h-.1c4.5 6.9.9 7.7 2.3 13.1l1.2 4.7c.1.4.5.6.8.5l18.1-4.5z"/>
    <path class="st4" d="M291.1 191.1c.2-.1.4-.4.3-.7s-.3-.6-.6-.5l-16.3 4.1c-.2.1-.4.4-.3.7s.3.6.6.5l16.3-4.1zM275.1 196.5c-.2.1-.4.4-.3.7s.3.6.6.5l16.3-4.1c.2-.1.4-.4.3-.7s-.3-.6-.6-.5l-16.3 4.1z"/>
    <path class="st5" d="M275.1 196.5c-.2.1-.5-.2-.6-.5s0-.7.3-.7l16.3-4.1c.2-.1.5.2.6.5s0 .7-.3.7l-16.3 4.1z"/>
    <path class="st1" d="M281.9 226l17.3-4.3c.6-.1 1-.8.8-1.4l-3.6-14.5c-.1-.6-.8-1-1.4-.8l-17.3 4.3c-.6.1-1 .8-.8 1.4l3.6 14.5c.2.6.8 1 1.4.8z"/>
    <path class="st6" d="M280.6 225.4l19.5-4.9-2.2-8.9c-1.3 1.2-3.2 3.4-6 5.6-5-.8-8.3-2.6-9.5-2.3-.7.2-2.3 1.9-3.5 3.3l1.7 7.2z"/>
    <path class="st7" d="M281.5 226.1l18.2-4.6c.3-.1.5-.4.5-.8l-1.1-4.5c-1 .5-3.5 2.1-6.4 3.9-3.6-.3-6.6-.5-7.7-.4-1.7.1-3.8 1.2-5.2 2.1l.9 3.8c.1.4.4.6.8.5z"/>
    <path class="st8" d="M296.4 205.8l-19.5 4.9c-.1-.5.2-1.1.7-1.2l17.5-4.4c.6-.2 1.2.1 1.3.7zM299.4 221.7l-17.5 4.4c-.5.1-1.1-.2-1.2-.7l19.5-4.9c0 .5-.3 1-.8 1.2z"/>
    <path class="st3" d="M282 230.7l-1-3.7c-.1-.4.1-.7.5-.8l18.1-4.5c.4-.1.7.1.8.5l.8 3.1c.5 2.1-.8 4.3-2.9 4.9l-.4.1c-.1-.5-.7-.9-1.2-.7-.5.1-.9.7-.7 1.2l-7 1.8c-.1-.5-.7-.9-1.2-.7-.5.1-.9.7-.7 1.2l-1.1.3c-1.8.2-3.6-.9-4-2.7z"/>
    <g>
      <path class="st1" d="M111.8 202.4l10.4 1.2.1-1.1c.2-1.8-1.1-3.5-2.9-3.7l-3.8-.4c-1.8-.2-3.5 1.1-3.7 2.9l-.1 1.1z"/>
      <path transform="rotate(-173.668 116.8829706 203.80195012)" class="st2" d="M111.7 202.9h10.5v1.7h-10.5z"/>
      <path class="st3" d="M121.8 242.4c.4 0 .7-.2.8-.6l.5-4.8c.6-5.5-2.7-5.9.8-13.3h-.1c.7-1.2 1.3-2.9 1.4-4.5.4-3.7-.9-7.1-3.2-9.4-1.6-1.5-1.4-2.8-1.1-4.7l-8.3-.9c-.2 1.9-.3 3.2-2.1 4.3-2.7 1.6-4.8 4.8-5.2 8.4-.2 1.6 0 3.4.4 4.7h-.1c1.9 8-1.8 7.6-2.4 13.1l-.5 4.8c0 .4.2.7.6.8l18.5 2.1z"/>
      <path class="st4" d="M122.7 227.9c.2 0 .5-.2.5-.6 0-.4-.1-.7-.4-.7l-16.7-1.9c-.2 0-.5.2-.5.6 0 .4.1.7.4.7l16.7 1.9zM105.8 227.3c-.2 0-.5.2-.5.6 0 .4.1.7.4.7l16.7 1.9c.2 0 .5-.2.5-.6 0-.4-.1-.7-.4-.7l-16.7-1.9z"/>
      <path class="st5" d="M105.8 227.3c-.2 0-.4-.3-.4-.7 0-.4.3-.6.5-.6l16.7 1.9c.2 0 .4.3.4.7 0 .4-.3.6-.5.6l-16.7-1.9z"/>
      <path class="st1" d="M102 257.4l17.7 2c.6.1 1.2-.4 1.2-1l1.6-14.8c.1-.6-.4-1.2-1-1.2l-17.7-2c-.6-.1-1.2.4-1.2 1l-1.6 14.8c-.1.6.4 1.1 1 1.2z"/>
      <path class="st6" d="M101 256.4l19.9 2.2 1-9.2c-1.6.7-4.1 2.1-7.6 3.1-4.4-2.5-6.9-5.3-8.1-5.4-.7-.1-2.8 1-4.5 1.9l-.7 7.4z"/>
      <path class="st7" d="M101.5 257.3l18.7 2.1c.3 0 .7-.2.7-.6l.5-4.6c-1.1.1-4 .7-7.4 1.4-3.2-1.5-6-2.7-7-3.1-1.6-.5-4-.2-5.6.2l-.4 3.8c-.1.5.1.8.5.8z"/>
      <path class="st8" d="M122.6 243.4l-19.9-2.2c.1-.5.6-.9 1.1-.9l18 2c.4.1.8.6.8 1.1zM119.8 259.4l-18-2c-.5-.1-.9-.6-.9-1.1l19.9 2.2c0 .5-.4.9-1 .9z"/>
      <path class="st3" d="M100.3 261.8l.4-3.9c0-.4.4-.7.8-.6l18.6 2.1c.4 0 .7.4.6.8l-.4 3.2c-.2 2.2-2.2 3.8-4.4 3.5h-.4c.1-.5-.3-1-.9-1.1s-1 .3-1.1.9l-7.2-.8c.1-.5-.3-1-.9-1.1-.5-.1-1 .3-1.1.9l-1.1-.1c-1.7-.3-3.1-2-2.9-3.8z"/>
    </g>
  </g>
  <path d="M251.1 117.7c4.3-5.5 18.4-.8 15 9.2-3 8.7-9.8 5-11.9 11.7-.9 2.7-5.3.1-2.4-3.7 2.9-3.8 10.1-1.9 12.2-8.7 2.1-6.8-6.9-10.6-10-6-1.7 2.7-4.7-.1-2.9-2.5zm-3.1 28.6c.8.9 2 1 2.9.5 1.4-.7 1.6-3 .5-4-.9-.8-2.6-.7-3.5.4-.5.9-.6 2.2.1 3.1z" fill="#0a6f9b" id="Camada_9"/>
  <path class="st10" d="M247.4 188.4c5.3.2 10.7 20 9.7 37.5-.5 7.8-2.1 14.2-3.6 18.6 2.1 4.4 1.6 9.1-1.1 12-2.8 2.9-7.3 3.4-8.8 2.3-5.9-4.4 3.7-10.9 4-11.3.4-.6-1.8.5-2.3 0-2.6-2.4 5.4-4.6 5.6-5 4.9-8.7 4.7-42-5.8-49.5-1.8-1.2-.3-4.7 2.3-4.6z" id="Camada_8"/>
  <g id="Camada_7">
    <path class="st2" d="M184.1 239.4c9.4 16.2-1.9 41.4 1.1 43.2 3 1.7 12.1 4.4 15.5 1 3.4-3.4-11.4-4.5-11.4-4.5 2.9-10.7 4.7-28.4 0-38.3"/>
    <path class="st11" d="M184.1 239.4c2.4 4.2 3.5 8.9 3.7 13.7 1.4.2 2.8.3 4.1.4-.3-4.8-1.1-9.2-2.7-12.7l-5.1-1.4z"/>
  </g>
  <g id="Camada_6">
    <path class="st2" d="M208.5 239.4c9.4 16.2-1.9 41.4 1.1 43.2s12.1 4.4 15.5 1c3.4-3.4-11.4-4.5-11.4-4.5 2.9-10.7 4.7-28.4 0-38.3"/>
    <path class="st11" d="M213.6 240.8l-5.1-1.4c2.2 3.7 3.2 7.9 3.6 12.2 1.4-.3 2.8-.7 4-1.1-.4-3.6-1.2-7-2.5-9.7z"/>
  </g>
  <g id="Camada_5">
    <path class="st1" d="M254.8 203.8c-4.4 26.7-44 53.6-85.1 29.7-41.9-24.3-18.9-88.5 19-96.1 38.9-7.7 73.6 21.7 66.1 66.4z"/>
    <path class="st12" d="M156.3 185.7c-4.8 2.2-4.4 13-3.2 18.9 1.8 8.6 8 19.6 14 18.9 5.7-.7 10.5-12.1 8.4-21.4-2.4-10.6-13.8-18.9-19.2-16.4zM157.6 171.9c-.4 1.5-1.4 4.9.4 7.1 2.7 3.4 11.3 2.7 13.9-2 2.8-5.1-2-13.2-6.5-13.4-3.6-.2-6.7 4.7-7.8 8.3zM229 148.7c2.1-.5 4.7 2.5 4.1 4.3-.6 1.8-4.7 2.6-5.9.9-1.2-1.5-.1-4.8 1.8-5.2zM236.6 156.1c3.3-1.9 10.7 10.4 13.9 25.5 3.8 17.8-6.3 39-8.5 38.1s8.9-16.2 5-35.5c-3.9-19.4-13.7-26.2-10.4-28.1z"/>
    <path class="st1" d="M229.9 144c-26.8-15.5-58.2-14.3-77.6 0s-3.5 4 .6 10.8c2.4 4-6.1 25.1-5.6 40.7 0 0 4.1-32.6 24.4-43.8 34.4-18.9 58.2-7.7 58.2-7.7z"/>
  </g>
  <g id="Camada_4">
    <path class="st10" d="M200.7 190.7c.1 2.6.7 5.6 3.5 5.6s3.4-3.3 3.3-6c-.1-2.5-1.6-4.9-3.3-4.9-1.8-.2-3.5 2.5-3.5 5.3zM235.2 190.7c-.1 2.6-.7 5.6-3.5 5.6s-3.4-3.3-3.3-6c.1-2.5 1.6-4.9 3.3-4.9 1.8-.2 3.6 2.5 3.5 5.3z"/>
  </g>
  <path class="st2" d="M158.8 192.8c-5-2.9-34.6 23.1-11.3 36 10.4 5.7 24-1.2 34.3-4.7 5.8.4 14.1-1.8 18-4.5 4-2.7 3.7-7.5 2.6-9.2-4.6-6.9-12.4 4.4-13.8 5.5-2.2 1.7.6-1.8-.2-2.1-3.8-1.6-6.9 7-9 8-42.6 20.6-50.7-17.6-19.7-23.4 5-1 1.5-4.2-.9-5.6z" id="Camada_3"/>
  <path class="st10" d="M202.8 203.3c1-1.3 16.9-.6 21.2-.1 2.4.2 1.3 2.3-2.8 2.1-13.1-.6-21 1.3-18.4-2z" id="Camada_2"/>
</svg>
