<?xml version="1.0" encoding="utf-8"?>
<!-- Generator: Adobe Illustrator 21.0.0, SVG Export Plug-In . SVG Version: 6.00 Build 0)  -->
<svg version="1.0" id="Camada_1" xmlns="http://www.w3.org/2000/svg" xmlns:xlink="http://www.w3.org/1999/xlink" x="0px" y="0px"
	 viewBox="0 0 614.4 172.6" style="enable-background:new 0 0 614.4 172.6;" xml:space="preserve">
<style type="text/css">
	.st0{fill:none;stroke:#1486AB;stroke-width:2;stroke-linecap:round;stroke-linejoin:round;stroke-miterlimit:10;}
	.st1{fill:#FFFFFF;}
</style>
<g>
	<g>
		<path class="st0" d="M129.7,128.8c-7.1,0-10.9-7.4-12.9-15.6"/>
		<path class="st0" d="M124.8,56.7c-4.3,0-7.4-3.2-7.4-7.6"/>
		<path class="st0" d="M185,92.7c-0.4-0.5-0.8-1.1-1.2-1.8c-4.2-7.2-7-21.1-7-27.4"/>
		<path class="st0" d="M146.7,99c-1.3-9.4-1.6-18.2-1.6-22.4"/>
		<path class="st0" d="M162.7,130.5c-6.1,0-10.1-6.8-12.8-15.7"/>
		<path class="st0" d="M197,99c-1.6,0-3.1-0.3-4.5-0.9"/>
		<path class="st0" d="M190.7,61.6c0-1.8,0-7.9-2.2-9.5"/>
		<path class="st0" d="M265,70.6c-4.7-3.4-6.9-9.2-7.1-13.5"/>
		<path class="st0" d="M270.9,91.7c1.1-6.3,2.6-13.4,2.9-15s0.8-3.5-0.1-3.5c-0.3,0-0.6,0-0.9,0"/>
		<path class="st0" d="M289.6,148.8c-7,1.4-16.8-3-19.6-20.1"/>
		<path class="st0" d="M269.8,59.1c2.2-7.6,2.9-13.2-0.1-14.9"/>
		<path class="st0" d="M243.8,67.1c0-2.8-1.8-4.6-4.2-5.5"/>
		<path class="st0" d="M226.4,126.3c-13.9,0-21.7-13.1-23.7-25.6"/>
		<path class="st0" d="M502.1,67.1c0-2.8-1.8-4.6-4.2-5.5"/>
		<path class="st0" d="M461.4,102.7c-0.1-0.7-0.3-1.3-0.4-2"/>
		<path class="st0" d="M484.7,126.3c-10.2,0-17.1-7.1-20.9-15.8"/>
		<path class="st0" d="M56.9,159.5c-28.7,2.8-30.4-67.9-31.5-98.6"/>
		<path class="st0" d="M16.9,42.2C7.6,42.2-0.6,37,1.2,26.5"/>
		<path class="st0" d="M116,108.6c-7-0.4-12-3.9-15.3-7"/>
		<path class="st0" d="M92.7,92.3c-7-13.4-12.8-28.2-12.2-43.3"/>
		<path class="st0" d="M102.8,62.1c0.7-5.2,1.1-10.2,1.1-14.7c0-6.5-2-12.9-8-14.4"/>
		<path class="st0" d="M24.9,45.3c-0.3-7.9-0.7-15.2-1.8-21.4c-0.8-4.1-2.3-6.9-4-8.3"/>
		<path class="st0" d="M198.6,158.5c-8.8,3.6-18.5,6.1-29.9,6.1c-28.9,0-37.2-14.1-39.3-22.2"/>
		<path class="st0" d="M423.6,24.1c0-6.2-1.4-15.8-9.4-15.8"/>
		<path class="st0" d="M431,103.2c1.2-10.9-0.8-21.5-9.2-27.7c-6.4-4.6-16.7-7.1-24.6-7.8"/>
		<path class="st0" d="M362.9,145.2c-2,0.4-3.4,0.2-3.4,0.2c-8.4,0-9.5-9.2-9.5-15.5c0-5,0.4-10,1-15"/>
		<path class="st0" d="M371.7,42.3c-2.5-15.2-7.1-23.3-11.4-26.1"/>
		<path class="st0" d="M423,163.8c-13.7,9.8-27.2,11.4-33.5-1.3c-1-2-3.2-7.4-2.2-14.5"/>
		<path class="st0" d="M425.1,121.4L425.1,121.4c-7,2.7-13.7,6.3-18.2,10.8"/>
		<path class="st0" d="M374,65.1c-4.1,9.4-7,18.4-7,18.4"/>
		<path class="st0" d="M578.1,144.5c-6.4-0.4-9.6-10.3-9.6-21.2c0-23.2,8.6-43.3,9.7-63.4"/>
		<path class="st0" d="M507.5,102.7c-0.4-7.3,0.5-14.6,0.5-14.6"/>
		<path class="st0" d="M513.5,117.2c-1.4-0.3-2.5-1.2-3.3-2.6"/>
		<path class="st0" d="M544.2,111.3c-7.2-0.9-5.3-20.7-4-33.1"/>
	</g>
	<g>
		<path class="st1" d="M110.7,44.6c0-11.3-5-18.5-14.7-18.5c-10.1,0-12,13.2-12.5,19.9c-0.6,14.1,4.4,28,10.8,40.7
			c0.2,0.4,1.9-3.1,2.2-4.9c-5-9.7-9.4-23.7-9.4-31.7c0-5.5,0.8-20.4,9-20.4s11.2,7.3,10.8,14.7c-1.3,21.3-4.6,42.6-32.5,91.7
			c-3.2,4.9-6.4,7.7-8.7,7.7c-11.3,0-14.1-51.7-16.9-89.2c-0.4-3.5-0.4-6.9-0.6-10.6C47.5,24.5,46.7,5.5,28,5.5
			c-11.1,0-21.3,7.8-23.9,18.1c-1.8,10.5,6.4,15.7,15.7,15.7c2.3,0,2.1-2.6,0-2.7c-7.7-0.2-14-4.2-12.5-12c1.5-6.3,6.9-12.9,12-12.9
			c2.7,0,5.5,3.1,6.7,9.4c1.5,8.8,1.7,19.9,2.1,31.8c0,1.8,0.1,3.5,0.1,5.2c1.1,30.7,2.8,101.4,31.5,98.6c3.2-0.6,6.2-2.8,9.4-6.2
			c13.6-15.1,29.2-48.7,37.7-76.4C109.5,65.6,110.7,53,110.7,44.6z"/>
		<path class="st1" d="M103.8,93.3c-0.5,1.3-1.1,2.8-1.5,3.9c2.8,3,7.3,6.8,13.8,8.1l0,0c-0.2-1.1-0.4-2.3-0.6-3.6
			C111,100.2,107,97.2,103.8,93.3z"/>
		<path class="st1" d="M149.7,109.1L149.7,109.1c-0.4-1.3-0.8-3-1.1-5l0,0c-0.2,0.3-0.3,0.7-0.5,1c-2.7,5.5-5.7,10.1-8.1,10.1
			c-7.6,0-7.7-23.2-7.7-28.3c0-6,1.4-11.6,1.4-17.6c0-2.8-1-5.2-4.2-5.2c-13.3,0-11.9,17.5-11.9,27c0,2.7,0.2,6.7,0.7,11.1l0,0
			c0.1,1.1,0.3,2.2,0.5,3.4l0,0l0,0l0,0c1.7,9.9,5.5,20.2,13.9,20.2C139.2,125.8,145.1,118,149.7,109.1z"/>
		<path class="st1" d="M150.4,100.2L150.4,100.2c0.2,0.9,0.3,1.8,0.5,2.7c0,0.1,0,0.1,0,0.2c0.2,0.9,0.4,1.8,0.5,2.7l0,0l0,0
			c2.5,11.7,6.9,21.8,14.3,21.8c13.5,0,21.1-20.2,24.5-32c-1-0.4-2.4-2.1-2.9-2.8c-2.2,8.2-9.2,26.4-14.3,26.4
			c-6.9,0-8.3-33.5-8.3-38.6c0-7.8-3.4-12-11.3-12c-3.5,0-5.3,1.7-5.3,5.2C148.1,78.4,148.6,89.4,150.4,100.2L150.4,100.2z"/>
		<path class="st1" d="M127.8,53.7c5.5,0,8-4.1,8-9.1c0-4.3-3.4-7.7-7.7-7.7c-5.5,0-7.7,4.3-7.7,9.2
			C120.4,50.5,123.5,53.7,127.8,53.7z"/>
		<path class="st1" d="M203.3,95.5c-0.1-0.9-0.2-2-0.2-3l0,0c-0.9,0.3-1.9,0.5-2.8,0.5c-3.2,0-7.5-0.8-10.9-6.4
			c-3.4-5.7-6-18.6-6-26c0-4.6,1-11.8,7-11.8c3.4,0,3.4,7.8,3.4,9.9c0,7.5-1.1,16.7-3.3,24.4c0.2,0.9,1.5,3.6,2.4,4.1
			c2.3-8.1,4.3-20.9,4.3-28.5c0-4.3-0.3-13.3-6.6-13.3c-8.8,0-10.6,8-10.6,15.3c0,6.9,3.8,23.6,8.1,29.1
			C194,97.4,200.7,96.2,203.3,95.5z"/>
		<path class="st1" d="M610.9,88.2c-5.2,13.1-18.5,39.6-22.1,39.6c-0.7,0-1.3-0.4-1.3-4.8c0-22.7,9-44,9-65.9c0-9-1.8-15.5-7-16.1
			c-2.4-0.4-5.6,0.6-8.4,3.5c-11.2,14.3-16.2,30.9-24.8,45.9c-0.7,1.5-0.3-4.6,0.4-11.6c0-9.8,5.9-26.7-6.2-28.3
			c-2.7,0.1-4.9,1.7-6.4,4.6l-17.3,37.8c1-5.5,1.5-13.2,1.5-19.5c0-6,0-9.4-4.9-9.4c-11.1,0-12.5,22-12.5,22s-1.1,9.3-0.1,17l0,0
			l0,0c0.2,1.7,0.5,3.2,0.9,4.6l0,0l0,0c0.8,2.9,2.2,5,4.3,5.4c5.3,1.1,7-2.9,8.8-6.6c2.2-5.6,7.1-16.9,19-43c0.1,1,0.1,2,0.1,3.1
			c0,6.9-6.2,40.6,3.2,41.7c2.1,0.1,4.3-1.3,7-5.2c2.2-2.2,22.7-51.4,25.8-50.8c1,0.1,1.3,2,1.3,4.6c0,20.7-8.7,41.2-8.7,64.4
			c0,10.9,2.1,19.7,8.5,20.2c2.7,0.4,6.6-2.8,10.1-7.4c9.4-13.2,21.6-42.3,23.1-45.9C615.1,86.2,612.6,83.9,610.9,88.2z"/>
		<path class="st1" d="M268.2,69.9c-0.4,1.2-0.9,2.5-1.3,3.8c-5.7,16.4-19.4,43.6-31.1,43.6c-6.1,0-16.3-9.9-15.6-27.3
			c0.1-1.8,0.3-3.5,0.6-5.3l0,0l0,0c0.2-1.2,0.5-2.4,0.8-3.5l0,0l0,0c3.4-12.9,12.4-23.1,17.6-23.1c3.9,0,7.7,2,7.7,6
			c0,9.1-14.8,16.2-23.1,17l0,0c-0.2,0.9-0.4,2.1-0.6,3.3C234,82.6,250,76,250,64.4c0-8.1-8.7-11.6-15.7-11.6c-18.3,0-29,23-29,38.6
			c0,0.1,0,0.1,0,0.2l0,0l0,0l0,0c0,0.5,0,1,0,1.5v0.1c0,0.5,0.1,1,0.1,1.5l0,0c1.1,13.4,9.1,28.6,24.1,28.6
			c6.9,0,21.5,2.2,41.6-52.4C269.8,70.6,268.9,70.3,268.2,69.9L268.2,69.9z"/>
		<path class="st1" d="M269.8,120.7L269.8,120.7c-39,2-61.7,36.4-97,36.4c-22.4,0-35.9-7.3-36.9-22.4c-0.4-5.4-5.2-4.5-5.2-0.9
			c0,4.9,3.9,26.9,40,26.9c43.2,0,61.7-35.5,99.4-35.9l0,0C269.9,123.6,269.8,122.1,269.8,120.7z"/>
		<path class="st1" d="M290.2,122.8L290.2,122.8c0,1.4,0,3.1,0.3,4.6c2.1,1.2,3.9,3,5.6,5.7c3.6,5.7,0.9,8.4-1.6,7.1
			c-2.3-1.2-5.6-6.9-6.9-14l0,0c-0.3-1.4-0.5-2.9-0.6-4.5l0,0l0,0c0-0.7-0.1-1.4-0.1-2.1c0-10,1.7-19.9,1.7-19.9l2.8-16.4
			c0.6-2.8,0.8-4.8,0.8-5.7c0-3.5-2.4-7.3-5-9c-4.3-2.2-6.8-1.3-12.5-1.8c-0.7-0.1-1.4-0.2-2.1-0.4l0,0c-1-0.3-1.9-0.8-2.8-1.3l0,0
			c-3.1-2.2-5.3-6.2-5.8-11.4c-0.7-7.7,1.7-14,7.3-12.9c5.7,1.1,3.2,10.5-0.9,22.7l0,0c0.7,0.3,1.7,0.7,3,0.8
			c0.2-0.6,0.4-1.2,0.6-1.8c1.4-4.1,8.5-22.6-2-25.2c-2-0.5-12.1-0.8-11.2,17c0.2,4.5,2.6,10.7,7.9,14l0,0c0.8,0.5,1.8,1,2.8,1.3
			l0,0c1.5,0.5,3.2,0.8,5.1,0.8c1,0,0.5,1.9,0.1,3.5s-1.8,8.7-2.9,15c-0.9,5.8-2.4,17.7-1.4,31.8l0,0c0,0.2,0,0.5,0,0.7
			c0.1,1.2,0.2,2.4,0.4,3.5l0,0l0,0c2.6,17.9,12.6,22.4,19.7,21c8.6-1.7,9-7.3,6.3-13.5C296.6,127.5,294,124.5,290.2,122.8z"/>
		<path class="st1" d="M508.8,106c-4.4,6.2-9.7,11.3-14.8,11.3c-6.1,0-16.3-9.9-15.6-27.3c0.1-1.8,0.3-3.5,0.6-5.3l0,0l0,0
			c0.2-1.2,0.5-2.4,0.8-3.5l0,0c3.4-12.9,12.4-23.1,17.6-23.1c3.9,0,7.7,2,7.7,6c0,9.1-14.6,16.1-23,17c-0.3,1-0.5,2.2-0.6,3.3l0,0
			c10.8-1.8,26.7-8.4,26.7-20c0-8.1-8.7-11.6-15.7-11.6c-18.3,0-29,23-29,38.6c0,4.2,0.7,8.7,2.1,13l0,0l0,0
			c0.4,1.1,0.7,2.1,1.2,3.1l0,0l0,0c3.8,8.7,10.7,15.8,20.9,15.8c9,0,16.5-5.8,22.4-13.4l0,0C509.5,108.8,509.1,107.4,508.8,106z"/>
		<path class="st1" d="M386.6,30.4L386.6,30.4c-0.5-1.6-1.1-3.1-1.7-4.6l0,0C380.8,16,374.7,9.4,366,8.1
			c-20.6-3.1-14.7,20.8-14,23.3c0.7,2.2,4,1.6,2.8-1.7s-3.1-13.8,2.5-17c5.3-3.1,14.6,4.8,17.9,31l0,0l0,0c0.2,1.2,0.3,2.5,0.4,3.8
			c0.1,1.2,0.2,2.5,0.3,3.8l0,0l0,0c1.9,30.5-5.8,88.1-15.1,86.9c-4.9-0.6-4.5-8.4-4.5-11.5c0-15.3,3.4-29.8,7.7-44.4
			c0,0,3.6-11.2,9.1-24.5c0.1-2.6,0.1-6.2-0.2-9.2c-8.1,18.1-12,32.7-12,32.7c-4.6,15.1-8,30.2-8,45.5c0,6.3,1.1,15.5,9.5,15.5
			c0,0,20.2,3.3,26.3-38.4C392.6,78.3,392.9,49.7,386.6,30.4z"/>
		<path class="st1" d="M455.6,105.7c-0.1,1.1-0.3,2.3-0.5,3.6l0,0c3.4-0.7,6.6-1.2,9.4-1.5c-0.4-1-0.9-2.1-1.3-3.1
			C460.6,104.9,458.1,105.3,455.6,105.7z"/>
		<path class="st1" d="M440.7,67.4c-7.1-5.7-17.4-8-29.5-6.2C426.9,54.1,442,39.4,442,21c0-10.8-7.1-21-18.8-21
			c-15.7,0-27,8.6-36.5,23l0,0c0.6,1.1,1.3,2.6,1.8,4.4c7.4-11.3,17.2-22.2,28.7-22.2c8,0,9.4,9.7,9.4,15.8
			c0,15.7-16.4,37.3-30.7,40.5c-1.7,0.4-1.9,2.9,0,2.9c8,0,21.1,2.5,28.8,8c11.5,8.4,11.1,25,6.9,39.3c0,0.1-0.1,0.2-0.1,0.4l0,0
			c-0.4,1.4-0.9,2.9-1.4,4.3l0,0c-6.4,18.2-18.5,35.3-25.1,39.3c-5.6,3.5-12,4.5-11.8-4.8c0.5-14.7,15.4-25.6,32.5-32.8
			c0.6-1.4,1.3-2.9,1.9-4.5c-14.7,6.2-25.1,14.1-30.3,19.9c-11.2,12.7-6.7,24.2-5.3,27.1c5.5,11,17.2,9.7,29.1,1.1
			c12.9-9.3,27-33.5,30.1-51.7l0,0l0,0c0.2-1,0.3-2,0.4-3c0-0.2,0-0.5,0.1-0.7l0,0l0,0C453.4,90.3,450.2,75,440.7,67.4z"/>
	</g>
</g>
</svg>
