<svg xmlns="http://www.w3.org/2000/svg" viewBox="0 0 70 76"><defs><style>.cls-1{fill:#2c4372;}.cls-2{fill:#3b5998;}.cls-3{fill:#fff;}</style></defs><title>fb</title><g id="Camada_2" data-name="Camada 2"><g id="Camada_1-2" data-name="Camada 1"><path class="cls-1" d="M10,6H60A10,10,0,0,1,70,16V66A10,10,0,0,1,60,76H10A10,10,0,0,1,0,66V16A10,10,0,0,1,10,6"/><path class="cls-2" d="M10,0H60A10,10,0,0,1,70,10V60A10,10,0,0,1,60,70H10A10,10,0,0,1,0,60V10A10,10,0,0,1,10,0"/><path id="_Caminho_" data-name="&lt;Caminho&gt;" class="cls-3" d="M38.12,29.6V26.24a1.78,1.78,0,0,1,1.86-2h4.71V17L38.2,17c-7.2,0-8.84,5.37-8.84,8.8v3.8H25.2V38h4.2V59h8.4V38H44l.3-3.3.46-5.1Z"/></g></g></svg>