<svg xmlns="http://www.w3.org/2000/svg" viewBox="0 0 70 76"><defs><style>.cls-1{fill:#a6382b;}.cls-2{fill:#dd4b39;}.cls-3{fill:#fff;}</style></defs><title>gp</title><g id="Camada_2" data-name="Camada 2"><g id="Camada_1-2" data-name="Camada 1"><path class="cls-1" d="M10,6H60A10,10,0,0,1,70,16V66A10,10,0,0,1,60,76H10A10,10,0,0,1,0,66V16A10,10,0,0,1,10,6"/><path class="cls-2" d="M10,0H60A10,10,0,0,1,70,10V60A10,10,0,0,1,60,70H10A10,10,0,0,1,0,60V10A10,10,0,0,1,10,0"/><path id="_Caminho_" data-name="&lt;Caminho&gt;" class="cls-3" d="M58.85,34.73H57.64V33.65c0-1.54,0-3.08,0-4.63,0-.25-.27-.71-.42-.71-1.41-.06-2.82,0-4.31,0v6.44H46.43c0,.48,0,.81,0,1.13,0,1.17.1,2.33.16,3.5,1.14,0,2.28.09,3.42.12,1,0,1.9,0,3,0v6.35h4.66V39.45H64V34.73Z"/><path id="_Caminho_2" data-name="&lt;Caminho&gt;" class="cls-3" d="M40.57,34.19c-4,.05-8,0-12.07,0-1.15,0-2.3,0-3.45,0-.22,0-.61.27-.61.42,0,2.32,0,4.64,0,7.08h9.85c-.13.48-.21.82-.32,1.16-1.51,4.48-6.14,6.7-11.1,5.89a10.86,10.86,0,0,1-8.9-12.89,10.47,10.47,0,0,1,.78-2.48A10.85,10.85,0,0,1,26.78,27.3a10.36,10.36,0,0,1,4.63,2.4l5.39-5.43-.45-.35a17.71,17.71,0,0,0-14.94-4.1,18.42,18.42,0,0,0-15.12,15,18.19,18.19,0,0,0,1,9.76A18.56,18.56,0,0,0,26.66,56.35a16.58,16.58,0,0,0,10.68-5c4.24-4.52,5.33-10,4.66-16C41.89,34.37,41.49,34.18,40.57,34.19Z"/></g></g></svg>