<svg xmlns="http://www.w3.org/2000/svg" viewBox="0 0 26.15 21.22"><defs><style>.cls-1{fill:#cbf0f4;}</style></defs><title>Ativo 1</title><g id="Camada_2" data-name="Camada 2"><g id="Camada_1-2" data-name="Camada 1"><path class="cls-1" d="M11.42,5.94c5.32-1.06,11.9-1,13.62-.64a1.53,1.53,0,0,1-.32,3c-2.6.33-7,.38-7.6.45,0,0,2.6-.15,2.6,1.94A2.36,2.36,0,0,1,18.25,13a2.08,2.08,0,0,1,1.22,2.46,2.24,2.24,0,0,1-1.55,1.7,2.56,2.56,0,0,1-1.79,3.76c-1.75.48-11.34.77-13.65-1.41S-.29,14.59.18,11,6,4.83,7.35,3,9.13-.29,10.23,0s2.46,1.75.23,4.67c-1.17,1.53-.79,1.57,1,1.22"/></g></g></svg>