<svg xmlns="http://www.w3.org/2000/svg" viewBox="0 0 70 76"><defs><style>.cls-1{fill:#024974;}.cls-2{fill:#02619b;}.cls-3{fill:#fff;}</style></defs><title>in</title><g id="Camada_2" data-name="Camada 2"><g id="Camada_1-2" data-name="Camada 1"><path class="cls-1" d="M10,6H60A10,10,0,0,1,70,16V66A10,10,0,0,1,60,76H10A10,10,0,0,1,0,66V16A10,10,0,0,1,10,6"/><path class="cls-2" d="M10,0H60A10,10,0,0,1,70,10V60A10,10,0,0,1,60,70H10A10,10,0,0,1,0,60V10A10,10,0,0,1,10,0"/><polygon id="_Caminho_" data-name="&lt;Caminho&gt;" class="cls-3" points="15 38.41 15 58 24.33 58 24.33 36.84 24.33 31.33 15 31.33 15 38.41"/><circle id="_Caminho_2" data-name="&lt;Caminho&gt;" class="cls-3" cx="19.67" cy="22.67" r="4.67"/><path id="_Caminho_3" data-name="&lt;Caminho&gt;" class="cls-3" d="M54.8,39.52c-.63-5-2.94-8.19-9.74-8.19-4,0-6.74,1.5-7.84,3.6H37.1v-3.6H29.67V58h7.77V44.78c0-3.49.66-6.86,5-6.86S47,41.91,47,45V58h8V43.35h0A31,31,0,0,0,54.8,39.52Z"/></g></g></svg>