<?xml version="1.0" encoding="utf-8"?>
<!-- Generator: Adobe Illustrator 21.0.0, SVG Export Plug-In . SVG Version: 6.00 Build 0)  -->
<svg version="1.0" id="Camada_1" xmlns="http://www.w3.org/2000/svg" xmlns:xlink="http://www.w3.org/1999/xlink" x="0px" y="0px"
	 viewBox="0 0 198.6 77.9" style="enable-background:new 0 0 198.6 77.9;" xml:space="preserve">
<style type="text/css">
	.st0{fill:#CBF0F4;}
</style>
<path class="st0" d="M14.6,40.2c1.7-13.9,13.6-24.7,28-24.7c8.7,0,16.5,4,21.7,10.2c5.3-4,11.8-6.3,18.9-6.3c1.6,0,3.3,0.1,4.8,0.4
	C96,7.9,109.6,0,125,0c20.7,0,38,14.1,42.9,33.3c2.4-0.9,5-1.3,7.8-1.3c12.7,0,23,10.3,23,23c0,12.7-10.3,23-23,23h-21.9H99.9h-3.6
	H66.7H19.1C8.6,77.9,0,69.4,0,58.8C0,49.8,6.2,42.3,14.6,40.2"/>
</svg>
