<?xml version="1.0" encoding="utf-8"?>
<!-- Generator: Adobe Illustrator 21.0.0, SVG Export Plug-In . SVG Version: 6.00 Build 0)  -->
<svg version="1.0" id="Camada_1" xmlns="http://www.w3.org/2000/svg" xmlns:xlink="http://www.w3.org/1999/xlink" x="0px" y="0px"
	 viewBox="0 0 182.7 83.6" style="enable-background:new 0 0 182.7 83.6;" xml:space="preserve">
<style type="text/css">
	.st0{fill:#CBF0F4;}
</style>
<path class="st0" d="M151.9,22c-1.6,0-3.2,0.1-4.8,0.4c-7-13.3-20.9-22.3-37-22.3C99,0,89,4.3,81.5,11.3c-5.9-3.2-12.6-5-19.8-5
	c-19.4,0-35.8,13.3-40.5,31.2C9.3,38.5,0,48.5,0,60.6c0,12.7,10.3,23.1,23.1,23.1h16.4h44.4h26.2h41.8c17,0,30.8-13.8,30.8-30.8
	S168.9,22,151.9,22"/>
</svg>
