<?xml version="1.0" encoding="utf-8"?>
<!-- Generator: Adobe Illustrator 21.0.0, SVG Export Plug-In . SVG Version: 6.00 Build 0)  -->
<svg version="1.0" id="Camada_1" xmlns="http://www.w3.org/2000/svg" xmlns:xlink="http://www.w3.org/1999/xlink" x="0px" y="0px"
	 viewBox="0 0 240 83.6" style="enable-background:new 0 0 240 83.6;" xml:space="preserve">
<style type="text/css">
	.st0{fill:#CBF0F4;}
</style>
<path class="st0" d="M226.9,54.4c0.1-0.8,0.1-1.6,0.1-2.4c0-3.5-0.6-6.8-1.7-10c-0.1-0.3-0.2-0.6-0.3-0.9c-4.4-11.7-15.7-20-28.9-20
	c-9.5,0-18,4.3-23.7,11.1C166.9,13.6,149.7,0,129.3,0c-15,0-28.3,7.4-36.5,18.7c-1.3-0.2-2.6-0.4-3.9-0.4c-6,0-11.5,2.5-15.4,6.4
	c-5.6-4.1-12.5-6.5-20-6.5c-14.9,0-27.5,9.6-32.1,23h-0.2C9.5,41.2,0,50.7,0,62.4c0,11.7,9.5,21.2,21.2,21.2h204.1
	c8.1,0,14.7-6.6,14.7-14.7C240,61.4,234.2,55.1,226.9,54.4"/>
</svg>
