<svg xmlns="http://www.w3.org/2000/svg" xmlns:xlink="http://www.w3.org/1999/xlink" viewBox="0 0 193.7 259.85"><defs><style>.cls-1{fill:none;}.cls-2{opacity:0.2;}.cls-3{clip-path:url(#clip-path);}.cls-4{fill:#cbf0f4;}.cls-5{fill:#60c7e2;}.cls-6{opacity:0.5;}.cls-7{clip-path:url(#clip-path-2);}.cls-8{clip-path:url(#clip-path-3);}.cls-9{clip-path:url(#clip-path-4);}.cls-10{clip-path:url(#clip-path-5);}.cls-11{fill:#1486ab;}</style><clipPath id="clip-path"><rect class="cls-1" x="29.24" y="243.11" width="145.26" height="16.74"/></clipPath><clipPath id="clip-path-2"><rect class="cls-1" x="15.88" y="89.99" width="40.61" height="65.87"/></clipPath><clipPath id="clip-path-3"><rect class="cls-1" x="23.97" y="52.7" width="27.14" height="30.1"/></clipPath><clipPath id="clip-path-4"><rect class="cls-1" x="143.8" y="27.37" width="11.13" height="10.58"/></clipPath><clipPath id="clip-path-5"><rect class="cls-1" x="159.69" y="39.94" width="26.37" height="109.57"/></clipPath></defs><title>Ativo 2</title><g id="Camada_2" data-name="Camada 2"><g id="Camada_1-2" data-name="Camada 1"><g class="cls-2"><g class="cls-3"><path d="M174.51,251.48c0,4.62-32.52,8.37-72.63,8.37s-72.63-3.75-72.63-8.37,32.52-8.37,72.63-8.37,72.63,3.75,72.63,8.37"/></g></g><path class="cls-4" d="M162.79,125c3,5.46,6.62,44.9,8,55.92.62,4.93-.78,18.52-2.29,24.79a17,17,0,0,1-.86,17.32c-3,4.47-10,5.35-12.38,4.09-9.4-5,2.8-14.35,4.06-16,2-2.57-2.06.3-2.73-.47-3.45-4,7.23-6.43,7.58-7.42,7.15-20.37-5.05-53.7-7.92-75.5-.47-3.54,5.11-5.36,6.53-2.74"/><path class="cls-4" d="M84.85,171.88c5.3,19.9,8.87,46.33,1.65,64-6.3,15.39,21.57,14.71,22.3,10.76s-9.25-10.51-17.28-4.79c8-13,3-49,.21-63.08"/><path class="cls-4" d="M112.53,171.88c5.3,19.9,8.87,46.33,1.65,64-6.3,15.39,21.57,14.71,22.3,10.76s-9.25-10.51-17.28-4.79c8-13,3-49,.21-63.08"/><path class="cls-5" d="M191.9,122.4C184.15,168.19,116,214.16,45.55,173c-71.88-42-32-152.09,33.06-164.92C145.52-5.11,204.9,45.51,191.9,122.4"/><g class="cls-6"><g class="cls-7"><path class="cls-4" d="M22.8,90.74c-8.31,3.79-7.67,22.31-5.56,32.51C20.3,138,30.94,157,41.16,155.8,51,154.63,59.23,135,55.64,119,51.57,100.84,32,86.53,22.8,90.74"/></g></g><g class="cls-6"><g class="cls-8"><path class="cls-4" d="M25.09,67c-.71,2.49-2.41,8.41.6,12.13,4.67,5.78,19.37,4.7,23.95-3.44,4.88-8.69-3.33-22.63-11.1-23C32.31,52.4,26.87,60.82,25.09,67"/></g></g><g class="cls-6"><g class="cls-9"><path class="cls-4" d="M147.78,27.46c3.56-.85,8,4.4,7,7.36s-8,4.41-10.22,1.57c-1.93-2.51,0-8.15,3.22-8.93"/></g></g><g class="cls-6"><g class="cls-10"><path class="cls-4" d="M160.83,40.27c5.65-3.24,18.37,18,23.81,43.8,6.45,30.66-11,66.89-14.88,65.39s15.41-27.72,8.8-60.94-23.38-45-17.73-48.25"/></g></g><path class="cls-5" d="M149.4,19.42C103.44-7.3,49.44-5.51,16.16,19s-6,6.87,1,18.53c4.14,6.93-10.63,43.07-9.84,69.91,0,0,7.21-56.05,42.1-75.1,59.1-32.27,100-12.93,100-12.93"/><path class="cls-4" d="M38.06,125c3,5.46,6.62,44.9,8,55.92.62,4.93-.78,18.52-2.29,24.79A17,17,0,0,1,42.91,223c-3,4.47-10,5.35-12.38,4.09-9.4-5,2.8-14.35,4.06-16,2-2.57-2.06.3-2.73-.47-3.45-4,7.23-6.43,7.58-7.42,7.15-20.37-5.05-53.7-7.92-75.5-.47-3.54,5.11-5.36,6.53-2.74"/><path class="cls-11" d="M87.19,131.28c2.11-4.11,32.17-8.8,42-2.34,5.42,3.58-.8,5.49-6,3.18-16.29-7.25-41.52,9.93-36-.84"/><path class="cls-11" d="M87.17,102.29c.14,4.9,1.4,10.47,6.63,10.47s6.31-6.23,6.11-11.35a12.58,12.58,0,0,0-2.26-6.73,71.94,71.94,0,0,0-10.16,4.46,12.64,12.64,0,0,0-.32,3.15"/><path class="cls-11" d="M141.51,94.54a12.52,12.52,0,0,0-2.37,6.88c-.2,5.12.87,11.35,6.11,11.35s6.49-5.57,6.63-10.47a12.32,12.32,0,0,0-.12-2.08c-4.4-3.84-7.22-5.05-10.25-5.67"/></g></g></svg>