<svg xmlns="http://www.w3.org/2000/svg" viewBox="0 0 70 76"><defs><style>.cls-1{fill:#2a6ea1;}.cls-2{fill:#55acee;}.cls-3{fill:#fff;}</style></defs><title>tw</title><g id="Camada_2" data-name="Camada 2"><g id="Camada_1-2" data-name="Camada 1"><path class="cls-1" d="M10,6H60A10,10,0,0,1,70,16V66A10,10,0,0,1,60,76H10A10,10,0,0,1,0,66V16A10,10,0,0,1,10,6"/><path class="cls-2" d="M10,0H60A10,10,0,0,1,70,10V60A10,10,0,0,1,60,70H10A10,10,0,0,1,0,60V10A10,10,0,0,1,10,0"/><path id="_Caminho_" data-name="&lt;Caminho&gt;" class="cls-3" d="M58.08,23.91a19.1,19.1,0,0,1-5.44,1.47,9.37,9.37,0,0,0,4.17-5.16,19.11,19.11,0,0,1-6,2.26,9.52,9.52,0,0,0-6.91-2.94A9.33,9.33,0,0,0,34.66,31a27,27,0,0,1-19.52-9.74,9.18,9.18,0,0,0-1.28,4.69,9.29,9.29,0,0,0,4.21,7.76,9.56,9.56,0,0,1-4.29-1.17v.12A9.15,9.15,0,0,0,14.43,36a9.46,9.46,0,0,0,6.95,5.77,9.78,9.78,0,0,1-2.5.33,9.48,9.48,0,0,1-1.78-.17,9.46,9.46,0,0,0,8.85,6.47,19.18,19.18,0,0,1-11.76,4,19.59,19.59,0,0,1-2.26-.13,27.14,27.14,0,0,0,14.52,4.19c14.8,0,23.9-10.26,26.3-20.89a25.62,25.62,0,0,0,.64-5.63c0-.4,0-.81,0-1.21A19,19,0,0,0,58.08,23.91Z"/></g></g></svg>